<svg xmlns="http://www.w3.org/2000/svg" viewBox="0 0 326.61 488.15"><defs><style>.cls-1{fill:#96cff0;}.cls-2{fill:#1a2453;}.cls-3{fill:#1c4681;}.cls-4{fill:#2895ce;}</style></defs><g id="Layer_2" data-name="Layer 2"><g id="building_background" data-name="building background"><path class="cls-1" d="M144.76,0h.76a106.71,106.71,0,0,1,10.71,4.59,111,111,0,0,1,34.42,26.77L145.52,55.84"/><polygon class="cls-2" points="203.65 112.44 145.26 146.01 90.66 114.73 148.94 82.29 203.65 112.44"/><polyline class="cls-3" points="144.21 400.63 90.66 368.42 90.66 114.73 143.99 146.09"/><polygon class="cls-4" points="203.65 366.12 203.65 112.44 143.99 146.09 144.11 401.19 203.65 366.12"/><path class="cls-1" d="M148.58,81.68,90.45,114.73,144,146.09l59.66-33.65Zm-46,31.76,45.3-25.22,42.81,24.38L145,137.75Z"/><polyline class="cls-3" points="145.31 137.84 102.69 113.81 102.69 32.31 145.15 55.72"/><polygon class="cls-4" points="190.65 112.85 190.65 31.36 145.15 55.72 145.23 138.26 190.65 112.85"/><path class="cls-4" d="M145.52,0a60.87,60.87,0,0,0-18.36,6.88,62.87,62.87,0,0,0-24.3,25.86l42.66,23.1"/><polyline class="cls-1" points="220.66 286.07 158.28 249.71 180.29 237.47 244.06 274.74"/><polygon class="cls-2" points="158.33 250.07 158.33 270.72 224.88 310.5 224.88 287.55 158.33 250.07"/><polygon class="cls-1" points="320.58 411.12 254.18 459.98 213.32 440.9 279.32 391.74 320.58 411.12"/><polygon class="cls-4" points="326.61 423.7 324.12 203.17 252.89 241.66 254.71 464.24 326.61 423.7"/><polyline class="cls-3" points="254.71 464.24 213.5 440.57 213.31 222.97 253.18 241.66"/><polygon class="cls-1" points="324.12 203.17 253.81 241.82 212.95 222.73 282.87 183.79 324.12 203.17"/><polygon class="cls-4" points="178.08 461.29 178.08 256.29 126.48 285.27 129.31 488.15 178.08 461.29"/><path class="cls-3" d="M129.3,487.45.65,414,0,162.11a258.06,258.06,0,0,1,64.25,41.3,259.86,259.86,0,0,1,62.23,81.87"/><path class="cls-1" d="M51.25,133.81,0,162.11A280.4,280.4,0,0,1,30.6,179.7c49,32.43,78.53,74.31,95.84,105.67L178.22,256c-18.56-32.06-49.07-73.17-97.91-105.32A292.57,292.57,0,0,0,51.25,133.81Z"/></g></g></svg>