<svg xmlns="http://www.w3.org/2000/svg" viewBox="0 0 338.28 457.67"><defs><style>.cls-1{fill:#1a2453;}.cls-2{fill:#1c4681;}.cls-3{fill:#2895ce;}.cls-4{fill:#96cff0;}</style></defs><g id="Layer_2" data-name="Layer 2"><g id="building_background" data-name="building background"><polygon class="cls-1" points="241.41 63.33 186.5 94.9 135.16 65.49 189.96 34.98 241.41 63.33"/><polyline class="cls-2" points="185.5 334.33 135.16 304.05 135.16 65.49 185.31 94.98"/><polygon class="cls-3" points="241.41 301.88 241.41 63.33 185.31 94.98 185.41 334.85 241.41 301.88"/><path class="cls-4" d="M189.62,34.41,135,65.49,185.3,95l56.11-31.65Zm-43.3,29.86,42.6-23.71,39.39,22L185.15,87Z"/><polyline class="cls-3" points="185.15 87.03 153.5 68.33 153.5 45.31 185.72 61.48"/><polyline class="cls-1" points="223.27 65.45 185.15 87.03 185.87 62.18 223.27 41.72"/><polyline class="cls-2" points="186.54 82.18 146.47 59.58 146.31 33.8 186.59 56.82"/><polygon class="cls-3" points="228.46 57.97 228.31 31.65 185.87 56.1 185.75 81.86 228.46 57.97"/><polygon class="cls-4" points="229.03 32.37 186.59 56.82 146.72 33.94 188.75 10.79 229.03 32.37"/><polyline class="cls-2" points="187.31 35.96 183.71 34.12 183.71 2.88 187.31 4.32"/><polygon class="cls-3" points="190.91 33.95 190.91 2.5 187.31 4.32 187.31 35.96 190.91 33.95"/><polygon class="cls-3" points="183.71 2.88 187.31 4.32 187.31 0 183.71 2.88"/><polygon class="cls-4" points="190.91 2.52 187.31 4.32 187.31 0 190.91 2.52"/><polygon class="cls-4" points="101.2 327.04 38.77 372.99 0.35 355.04 62.41 308.81 101.2 327.04"/><polygon class="cls-3" points="106.88 338.87 104.54 131.49 37.55 167.69 39.26 376.99 106.88 338.87"/><polyline class="cls-2" points="39.26 376.99 0.52 354.73 0.34 150.11 37.83 167.68"/><polygon class="cls-4" points="104.54 131.49 38.42 167.83 0 149.89 65.75 113.27 104.54 131.49"/><polyline class="cls-2" points="337.17 358.89 239.01 301.39 238.87 143.62 337.17 200.83"/><polygon class="cls-3" points="240.06 301.46 238.95 143.39 67.28 242.69 67.02 400.73 240.06 301.46"/><line class="cls-4" x1="206.29" y1="406.64" x2="205.73" y2="396.11"/><polygon class="cls-4" points="337.17 200.33 203.82 277.95 172.46 260.23 306.67 183.14 337.17 200.33"/><polygon class="cls-1" points="105.53 219.27 67.08 242.48 165.08 299.6 205.71 276.52 105.53 219.27"/><polyline class="cls-2" points="165.25 457.67 67.08 400.17 66.94 242.39 165.25 299.61"/><polygon class="cls-3" points="180.22 269.66 85.94 215.86 67.08 242.48 165.25 299.61 180.22 269.66"/><polygon class="cls-4" points="105.35 219.19 86.08 215.74 180.22 269.66 205.73 276.31 105.35 219.19"/><polyline class="cls-2" points="196.86 274.09 170.24 289.62 165.25 299.61 205.73 276.31"/><line class="cls-4" x1="67.08" y1="318.46" x2="67.08" y2="308.48"/><polygon class="cls-4" points="239.01 143.21 211.83 159.29 309.44 216.41 336.72 200.42 239.01 143.21"/><polygon class="cls-4" points="265.94 159.98 132.59 237.6 104.55 220.98 238.76 143.89 265.94 159.98"/><polygon class="cls-4" points="332.74 314.69 199.39 392.32 168.02 374.59 302.24 297.5 332.74 314.69"/><path class="cls-3" d="M337.17,200.33l-171.66,99.3-.26,158,173-99.28ZM241,366.88l.1-57.54,62.5-36.15.4,57.55Z"/></g></g></svg>