<svg xmlns="http://www.w3.org/2000/svg" xmlns:xlink="http://www.w3.org/1999/xlink" viewBox="0 0 1970.82 1448"><defs><style>.cls-1{fill:url(#linear-gradient);}</style><linearGradient id="linear-gradient" x1="985.41" y1="418.72" x2="985.41" y2="1006.81" gradientUnits="userSpaceOnUse"><stop offset="0" stop-color="#fff"/><stop offset="0.02" stop-color="#fff" stop-opacity="0.96"/><stop offset="0.13" stop-color="#fff" stop-opacity="0.74"/><stop offset="0.25" stop-color="#fff" stop-opacity="0.54"/><stop offset="0.37" stop-color="#fff" stop-opacity="0.38"/><stop offset="0.49" stop-color="#fff" stop-opacity="0.24"/><stop offset="0.62" stop-color="#fff" stop-opacity="0.13"/><stop offset="0.74" stop-color="#fff" stop-opacity="0.06"/><stop offset="0.87" stop-color="#fff" stop-opacity="0.01"/><stop offset="1" stop-color="#fff" stop-opacity="0"/></linearGradient></defs><title>Cloud_Layer_Flipped</title><g id="Layer_3" data-name="Layer 3"><path class="cls-1" d="M1940.23,1006.81V465.69a82.36,82.36,0,0,0-117.16,5.36,72.48,72.48,0,0,0-72.94,5.31A82.41,82.41,0,0,0,1610.29,446a72.38,72.38,0,0,0-81,11.75,37,37,0,0,0-43.06-7.71,42.09,42.09,0,0,0-71.57,16A27.86,27.86,0,0,0,1382,479.18a64.19,64.19,0,0,0-49.69,2.88,72.9,72.9,0,0,0-113,5.72,65.22,65.22,0,0,0-7-.4,64.2,64.2,0,0,0-38.69,12.77,54.51,54.51,0,0,0-53.6-12.28,82.42,82.42,0,0,0-140.15-31.32,72.39,72.39,0,0,0-94.13,27.95,72.88,72.88,0,0,0-102.53,11.4,62.64,62.64,0,0,0-18,2.85,94.93,94.93,0,0,0-161.43-36.09,83.41,83.41,0,0,0-95.32,15.47,56,56,0,0,0-86.5-3.91A49.24,49.24,0,0,0,362,487.34a64.48,64.48,0,0,0-12.89-1.28A63.7,63.7,0,0,0,321,492.62a72.89,72.89,0,0,0-106.16-2.34,56.07,56.07,0,0,0-64.56,13.65A49.25,49.25,0,0,0,84.11,527a37,37,0,0,0-50.85,47v432.87Z"/></g></svg>