<svg id="Layer_1" data-name="Layer 1" xmlns="http://www.w3.org/2000/svg" viewBox="0 0 395.223 222.472"><defs><style>.cls-1{fill:#001949;}</style></defs><path class="cls-1" d="M56.319,137.657c3.441,2.046,5.161,4.626,5.275,7.815l-7.321.652a6.222,6.222,0,0,0-3.46-5.326c-4.3-2.485-12.209-2.647-16.865.059-4.738,2.753-4.158,7.343-.015,9.735,2.458,1.419,5.891,1.887,9.41,1.906L42.1,156.8c-4.684-.008-9.314-.653-13.368-2.994-7.732-4.463-7.7-11.77-.212-16.119C36.038,133.318,48.772,133.3,56.319,137.657Z" transform="translate(-22.921 -89.336)"/><path class="cls-1" d="M87.172,108.44c7.668,4.427,7.7,11.685.059,16.127-7.586,4.409-20.079,4.391-27.766-.048-7.643-4.412-7.7-11.641-.116-16.049C66.993,104.028,79.51,104.017,87.172,108.44Zm-22.29,12.931c4.693,2.71,12.3,2.717,16.928.03,4.656-2.706,4.631-7.122-.062-9.831-4.667-2.695-12.278-2.688-16.934.018-4.624,2.687-4.6,7.089.068,9.783" transform="translate(-22.921 -89.336)"/><path class="cls-1" d="M59.724,92.593c3.442,2.046,5.162,4.626,5.275,7.815l-7.321.652a6.22,6.22,0,0,0-3.46-5.326c-4.3-2.485-12.208-2.647-16.864.059-4.738,2.753-4.159,7.343-.015,9.735,2.458,1.419,5.891,1.887,9.41,1.906l-1.242,4.3c-4.684-.008-9.314-.653-13.368-2.993-7.732-4.464-7.7-11.771-.212-16.12C39.444,88.255,52.178,88.236,59.724,92.593Z" transform="translate(-22.921 -89.336)"/><polygon class="cls-1" points="308.436 160.716 281.808 176.191 276.425 173.084 303.054 157.609 308.436 160.716"/><path class="cls-1" d="M287.662,224.061l-14.468,23.26-5.835-3.369,2.025-3.137-10.726-6.193-5.428,1.172-5.823-3.362,40.089-8.467Zm-22.349,9.12,6.531,3.771,3.861-6.016-10.392,2.245" transform="translate(-22.921 -89.336)"/><polygon class="cls-1" points="156.523 120.04 151.252 123.103 140.481 116.884 135.28 119.907 144.525 125.245 139.19 128.345 129.945 123.007 124.439 126.207 135.21 132.425 129.895 135.514 113.735 126.185 140.364 110.71 156.523 120.04"/><path class="cls-1" d="M200.108,220.674c3.441,2.045,5.161,4.626,5.275,7.814l-7.321.653a6.224,6.224,0,0,0-3.461-5.327c-4.3-2.484-12.214-2.65-16.87.056-4.738,2.753-4.152,7.346-.015,9.735,2.464,1.423,5.9,1.891,9.416,1.909l-1.242,4.3c-4.69-.011-9.314-.652-13.368-2.993-7.732-4.464-7.7-11.77-.212-16.12C179.827,216.335,192.561,216.317,200.108,220.674Z" transform="translate(-22.921 -89.336)"/><polygon class="cls-1" points="252.549 175.48 212.721 184.098 212.523 183.984 227.323 160.916 233.031 164.211 224.43 177.161 246.777 172.147 252.549 175.48"/><polygon class="cls-1" points="221.245 157.406 194.616 172.881 189.227 169.77 215.856 154.295 221.245 157.406"/><polygon class="cls-1" points="209.427 150.583 204.124 153.665 197.541 149.865 176.215 162.258 170.808 159.135 192.133 146.742 185.532 142.931 190.835 139.849 209.427 150.583"/><path class="cls-1" d="M260.733,208.645c3.441,2.046,5.168,4.63,5.281,7.819l-7.321.652a6.229,6.229,0,0,0-3.46-5.326c-4.31-2.489-12.215-2.651-16.871.055-4.738,2.754-4.152,7.347-.015,9.735,2.458,1.419,5.9,1.891,9.41,1.906l-1.236,4.305c-4.69-.011-9.32-.656-13.374-3-7.732-4.464-7.69-11.767-.206-16.116C240.458,204.31,253.186,204.288,260.733,208.645Z" transform="translate(-22.921 -89.336)"/><polygon class="cls-1" points="216.459 107.613 189.83 123.088 184.441 119.977 211.07 104.502 216.459 107.613"/><polygon class="cls-1" points="182.221 87.273 182.755 105.357 197.668 96.691 203.07 99.809 175.883 115.609 175.634 115.465 175.099 97.343 160.186 106.01 154.798 102.899 181.953 87.118 182.221 87.273"/><polygon class="cls-1" points="111.515 93.481 112.049 111.565 126.962 102.899 132.37 106.021 105.183 121.82 104.934 121.676 104.393 103.551 89.48 112.218 84.098 109.11 111.253 93.329 111.515 93.481"/><path class="cls-1" d="M196.551,172.222l-16.784,9.754c-6.032,3.5-15.057,3.38-20.765.085s-5.947-8.519.085-12.025l16.784-9.754,5.421,3.13-16.765,9.743c-2.912,1.692-2.713,4.254-.121,5.75a11,11,0,0,0,9.96-.07l16.765-9.743Z" transform="translate(-22.921 -89.336)"/><polygon class="cls-1" points="145.783 66.044 118.494 81.902 113.106 78.791 124.701 72.053 105.837 74.08 109.218 63.114 97.623 69.852 92.241 66.745 119.529 50.886 119.829 51.06 115.066 68.694 145.483 65.871 145.783 66.044"/><polygon class="cls-1" points="111.465 46.231 84.177 62.089 78.788 58.978 90.383 52.239 71.52 54.267 74.907 43.304 63.312 50.042 57.923 46.931 85.211 31.073 85.511 31.246 80.749 48.881 111.165 46.057 111.465 46.231"/><polygon class="cls-1" points="296.618 153.893 291.315 156.975 284.733 153.174 263.407 165.568 258.006 162.449 279.331 150.056 272.729 146.244 278.032 143.163 296.618 153.893"/><polygon class="cls-1" points="350.878 184.647 351.413 202.732 366.325 194.065 371.727 197.184 344.54 212.983 344.291 212.839 343.756 194.718 328.844 203.384 323.455 200.273 350.61 184.492 350.878 184.647"/><path class="cls-1" d="M352.735,261.763c7.662,4.424,7.7,11.685.059,16.127-7.586,4.409-20.085,4.387-27.766-.047-7.648-4.417-7.708-11.645-.122-16.054C332.55,257.347,345.067,257.336,352.735,261.763Zm-22.29,12.931c4.693,2.71,12.3,2.717,16.929.03,4.655-2.706,4.631-7.122-.062-9.831-4.674-2.7-12.278-2.687-16.934.018-4.625,2.688-4.606,7.085.067,9.783" transform="translate(-22.921 -89.336)"/><polygon class="cls-1" points="395.223 208.53 353.839 220.079 349.134 217.362 390.498 205.802 395.223 208.53"/><polygon class="cls-1" points="81.909 76.388 82.444 94.472 97.356 85.806 102.758 88.924 75.571 104.724 75.322 104.58 74.787 86.459 59.874 95.125 54.486 92.014 81.641 76.233 81.909 76.388"/><path class="cls-1" d="M83.766,153.5c7.668,4.427,7.7,11.685.059,16.127-7.586,4.409-20.079,4.391-27.766-.048-7.649-4.416-7.7-11.641-.115-16.049C63.587,149.092,76.1,149.077,83.766,153.5Zm-22.29,12.931c4.693,2.71,12.3,2.717,16.929.03,4.655-2.706,4.631-7.122-.062-9.831-4.667-2.695-12.279-2.688-16.934.018-4.625,2.687-4.6,7.089.067,9.783" transform="translate(-22.921 -89.336)"/><polygon class="cls-1" points="315.457 211.8 291.939 215.829 280.509 222.472 275.159 219.382 286.589 212.74 293.487 199.116 299.578 202.632 295.208 210.83 309.353 208.276 315.457 211.8"/><polygon class="cls-1" points="289.037 196.546 283.734 199.628 277.151 195.828 255.826 208.221 250.418 205.099 271.744 192.705 265.148 188.898 270.451 185.816 289.037 196.546"/><polygon class="cls-1" points="264.015 182.1 237.387 197.575 232.005 194.468 258.633 178.993 264.015 182.1"/></svg>