<svg id="Layer_1" data-name="Layer 1" xmlns="http://www.w3.org/2000/svg" viewBox="0 0 254.292 147.164"><defs><style>.cls-1{fill:#001949;}</style></defs><path class="cls-1" d="M197.167,186.917l-16.778,9.75c-6.032,3.506-15.07,3.381-20.771.089s-5.948-8.526.085-12.032l16.777-9.75,5.421,3.13-16.765,9.742c-2.905,1.689-2.706,4.251-.114,5.747a10.991,10.991,0,0,0,9.959-.063l16.765-9.742Z" transform="translate(-97.919 -144.991)"/><path class="cls-1" d="M155.864,163.071c8.685,5.014,8.9,10.99.6,15.811a27.074,27.074,0,0,1-27.233-.336l-7.8-4.5,26.616-15.467Zm-21.249,12.394a16.34,16.34,0,0,0,16.439.269c4.986-2.9,4.8-6.525-.5-9.588l-2.414-1.394-15.985,9.29,2.465,1.423" transform="translate(-97.919 -144.991)"/><polygon class="cls-1" points="42.788 9.33 37.523 12.389 26.746 6.167 21.538 9.193 30.783 14.531 25.449 17.631 16.204 12.294 10.704 15.49 21.481 21.712 16.16 24.805 0 15.475 26.629 0 42.788 9.33"/><path class="cls-1" d="M218.29,198.481c3.448,2.042,5.161,4.626,5.288,7.815l-7.322.652a6.242,6.242,0,0,0-3.466-5.33c-4.3-2.485-12.208-2.647-16.864.059-4.745,2.757-4.159,7.343-.015,9.735,2.458,1.419,5.9,1.891,9.4,1.91l-1.23,4.3c-4.69-.011-9.32-.656-13.375-3-7.731-4.464-7.7-11.77-.211-16.12C198.015,194.139,210.743,194.124,218.29,198.481Z" transform="translate(-97.919 -144.991)"/><polygon class="cls-1" points="190.995 94.897 164.367 110.372 158.978 107.261 185.607 91.786 190.995 94.897"/><path class="cls-1" d="M310.286,251.6c7.668,4.427,7.709,11.682.059,16.127-7.58,4.405-20.072,4.387-27.753-.048-7.649-4.416-7.709-11.644-.129-16.049C290.113,247.179,302.625,247.172,310.286,251.6Zm-22.277,12.931c4.686,2.706,12.291,2.717,16.916.03,4.662-2.71,4.637-7.126-.049-9.831s-12.279-2.687-16.941.022c-4.624,2.687-4.6,7.081.074,9.779" transform="translate(-97.919 -144.991)"/><polygon class="cls-1" points="179.177 88.074 173.874 91.156 167.292 87.355 145.966 99.748 140.558 96.626 161.884 84.233 155.282 80.422 160.585 77.34 179.177 88.074"/><path class="cls-1" d="M245.226,213.893l-14.474,23.264-5.836-3.37,2.019-3.14-10.72-6.189-5.435,1.168-5.816-3.358,40.1-8.471Zm-22.356,9.123,6.531,3.771,3.868-6.019-10.4,2.248" transform="translate(-97.919 -144.991)"/><polygon class="cls-1" points="233.437 118.82 233.965 136.909 248.884 128.239 254.292 131.361 227.099 147.164 226.85 147.02 226.315 128.891 211.396 137.561 206.014 134.454 233.175 118.669 233.437 118.82"/></svg>