<svg id="Layer_1" data-name="Layer 1" xmlns="http://www.w3.org/2000/svg" height="100%" width="100%" viewBox="0 0 370.89 214.263"><defs><style>.cls-1{fill:#001949;}.cls-2{isolation:isolate;}</style></defs><polygon class="cls-1" points="91.995 33.253 85.189 37.208 71.27 29.173 64.546 33.08 76.492 39.977 69.603 43.98 57.658 37.083 50.553 41.212 64.472 49.248 57.596 53.244 36.718 41.19 71.117 21.199 91.995 33.253"/><polygon class="cls-1" points="60.71 15.191 26.311 35.181 19.371 31.174 33.155 23.164 20.724 15.987 6.94 23.997 0 19.99 34.399 0 41.339 4.007 27.574 12.006 40.005 19.183 53.77 11.184 60.71 15.191"/><polygon class="cls-1" points="268.978 135.434 262.127 139.415 253.623 134.505 226.074 150.515 219.09 146.482 246.638 130.473 238.114 125.551 244.965 121.57 268.978 135.434"/><g class="cls-2"><path class="cls-1" d="M130.78,147.931l-18.694,30.043-7.534-4.35,2.612-4.055-13.855-8-7.017,1.511-7.515-4.338,51.786-10.937Zm-28.871,11.778,8.441,4.873,4.977-7.775-13.418,2.9" transform="translate(-14.229 -101.485)"/><polygon class="cls-1" points="147.075 65.054 119.552 81.048 133.465 89.081 126.589 93.076 105.717 81.026 140.116 61.036 147.075 65.054"/><polygon class="cls-1" points="184.758 86.81 177.907 90.791 169.403 85.881 141.854 101.89 134.876 97.861 162.424 81.852 153.901 76.931 160.751 72.95 184.758 86.81"/><polygon class="cls-1" points="219.375 106.796 184.976 126.787 178.036 122.78 191.82 114.77 179.389 107.593 165.605 115.603 158.665 111.596 193.064 91.605 200.004 95.612 186.24 103.611 198.67 110.788 212.435 102.789 219.375 106.796"/></g><polygon class="cls-1" points="298.156 152.28 291.349 156.235 277.437 148.203 270.713 152.111 282.653 159.004 275.764 163.007 263.825 156.114 256.72 160.242 270.633 168.275 263.757 172.27 242.885 160.22 277.284 140.23 298.156 152.28"/><path class="cls-1" d="M339.074,268.359c4.444,2.639,6.671,5.975,6.815,10.092l-9.458.845c-.054-2.706-1.48-5.161-4.462-6.883-5.567-3.214-15.776-3.42-21.79.074-6.127,3.561-5.368,9.489-.024,12.574,3.179,1.836,7.618,2.444,12.156,2.47l-1.6,5.551c-6.052-.011-12.032-.84-17.274-3.867-9.986-5.765-9.931-15.2-.27-20.819C312.88,262.752,329.324,262.73,339.074,268.359Z" transform="translate(-14.229 -101.485)"/><polygon class="cls-1" points="370.89 194.273 336.491 214.263 329.551 210.257 343.334 202.246 330.903 195.069 317.12 203.08 310.179 199.073 344.578 179.082 351.519 183.089 337.754 191.088 350.185 198.265 363.949 190.266 370.89 194.273"/></svg>