<svg xmlns="http://www.w3.org/2000/svg" viewBox="0 0 874.31 87.89"><defs><style>.cls-1{fill:#1b4480;}.cls-2{fill:none;stroke:#001d55;stroke-miterlimit:10;}</style></defs><title>Title</title><g id="Layer_2" data-name="Layer 2"><g id="Layer_3" data-name="Layer 3"><path class="cls-1" d="M65.53,7.67V86.38H49.76V54.83H21.48V86.38H5.71V7.67H21.48V39.16H49.76V7.67Z"/><path class="cls-1" d="M137,75.39H105.51l-5,11H83.39L121,5.71h.48l37.65,80.67H142Zm-6.15-13.48-9.57-21-9.62,21Z"/><path class="cls-1" d="M166.24,47.07c0-22.22,18.7-41,40.87-41,10.25.15,19.33,4.2,27.59,12.16l-9.13,12.45c-5.38-5.27-11.82-8.49-18.61-8.49-12.64,0-24.7,11.23-24.7,25,0,14,12.5,24.85,24.65,24.85,7.23,0,13.48-3.86,18.7-9l9.09,12.79c-6.94,6.88-15.38,12.06-27.3,12.06C184.7,87.89,166.24,69.19,166.24,47.07Z"/><path class="cls-1" d="M293.28,86.38,269.35,51.9V86.38H253.58V7.67h15.77v34l22.12-34h18.27L284.49,46.19l28,40.19Z"/><path class="cls-1" d="M407.14,5.71V86.38H391.32V52.1l-22.66,33h-.1l-22.7-33V86.38H330V5.71h.88l37.69,52,37.65-52Z"/><path class="cls-1" d="M430.81,7.67h15.82V86.38H430.81Z"/><path class="cls-1" d="M520.11,23.34H500.77v63H484.9v-63H465.52V7.67h54.59Z"/><path class="cls-1" d="M634.1,70.6V86.38H574.87V83.5c29-26.27,42.24-40.14,42.24-48.64,0-7.47-6.06-12.79-11-12.79A13.78,13.78,0,0,0,592.6,35.79l-14.36-3.66c0-14.26,12.5-25.88,27.3-25.88C620.67,6.25,633,19.48,633,34,633,47,619.84,62.5,608.56,70.6Z"/><path class="cls-1" d="M650.94,47c0-23.88,13.13-40.77,32.66-40.77S716.17,23.14,716.17,47,703.09,87.74,683.6,87.74,650.94,70.85,650.94,47Zm49.36,0c0-14.55-6.54-24.85-16.79-24.85s-16.8,10.3-16.8,24.85,6.54,24.76,16.8,24.76S700.3,61.52,700.3,47Z"/><path class="cls-1" d="M792.24,70.6V86.38H733V83.5c29-26.27,42.23-40.14,42.23-48.64,0-7.47-6-12.79-11-12.79a13.78,13.78,0,0,0-13.48,13.72l-14.35-3.66c0-14.26,12.5-25.88,27.29-25.88,15.14,0,27.44,13.23,27.44,27.78C791.11,47,778,62.5,766.7,70.6Z"/><path class="cls-1" d="M809.07,47c0-23.88,13.14-40.77,32.67-40.77S874.31,23.14,874.31,47s-13.09,40.72-32.57,40.72S809.07,70.85,809.07,47Zm49.37,0c0-14.55-6.55-24.85-16.8-24.85s-16.8,10.3-16.8,24.85,6.55,24.76,16.8,24.76S858.44,61.52,858.44,47Z"/><path class="cls-2" d="M60.31,2.45V81.16H44.54V49.62H16.27V81.16H.5V2.45H16.27V34H44.54V2.45Z"/><path class="cls-2" d="M131.79,70.18h-31.5l-5,11H78.18L115.77.5h.49l37.65,80.66H136.77ZM125.64,56.7l-9.57-21-9.62,21Z"/><path class="cls-2" d="M161,41.86c0-22.22,18.7-41,40.87-41C212.15,1,221.23,5,229.48,13l-9.13,12.45C215,20.18,208.54,17,201.75,17,189.1,17,177,28.19,177,42c0,14,12.5,24.85,24.66,24.85,7.23,0,13.48-3.86,18.7-9l9.08,12.8c-6.93,6.88-15.38,12.06-27.29,12.06C179.48,82.68,161,64,161,41.86Z"/><path class="cls-2" d="M288.07,81.16,264.14,46.69V81.16H248.37V2.45h15.77v34l22.12-34h18.26L279.28,41l28,40.18Z"/><path class="cls-2" d="M401.93.5V81.16H386.11V46.89l-22.66,33h-.1l-22.7-33V81.16H324.83V.5h.88l37.69,52L401.05.5Z"/><path class="cls-2" d="M425.6,2.45h15.82V81.16H425.6Z"/><path class="cls-2" d="M514.89,18.13H495.56v63H479.69v-63H460.3V2.45h54.59Z"/><path class="cls-2" d="M628.89,65.39V81.16H569.66V78.28c29-26.27,42.24-40.13,42.24-48.63,0-7.47-6.06-12.79-11-12.79a13.78,13.78,0,0,0-13.48,13.72L573,26.92C573,12.66,585.53,1,600.32,1c15.14,0,27.45,13.23,27.45,27.78,0,12.94-13.14,28.47-24.42,36.57Z"/><path class="cls-2" d="M645.72,41.81C645.72,17.93,658.86,1,678.39,1S711,17.93,711,41.81s-13.09,40.72-32.57,40.72S645.72,65.64,645.72,41.81Zm49.37,0c0-14.55-6.54-24.85-16.8-24.85S661.5,27.26,661.5,41.81,668,66.56,678.29,66.56,695.09,56.31,695.09,41.81Z"/><path class="cls-2" d="M787,65.39V81.16H727.79V78.28C756.8,52,770,38.15,770,29.65c0-7.47-6-12.79-11-12.79a13.78,13.78,0,0,0-13.48,13.72l-14.36-3.66c0-14.26,12.5-25.88,27.3-25.88C773.6,1,785.9,14.27,785.9,28.82c0,12.94-13.13,28.47-24.41,36.57Z"/><path class="cls-2" d="M803.86,41.81C803.86,17.93,817,1,836.53,1s32.56,16.89,32.56,40.77S856,82.53,836.53,82.53,803.86,65.64,803.86,41.81Zm49.36,0c0-14.55-6.54-24.85-16.79-24.85s-16.8,10.3-16.8,24.85,6.54,24.75,16.8,24.75S853.22,56.31,853.22,41.81Z"/></g></g></svg>