<svg xmlns="http://www.w3.org/2000/svg" xmlns:xlink="http://www.w3.org/1999/xlink" viewBox="0 0 750.08 2350.61"><defs><style>.cls-1{fill:url(#linear-gradient);}.cls-2{fill:#fff;}.cls-3{fill:#96cff0;}.cls-4{fill:#e09c6b;}.cls-5{fill:#2895cd;}.cls-6{fill:#f88d91;}.cls-7{fill:#666;}.cls-8{fill:#f8bdab;}.cls-9{fill:#4699d3;}.cls-10{fill:#1b4581;}.cls-11{fill:#f9b180;}.cls-12{fill:#4d4d4d;}.cls-13{fill:#f8ada3;}.cls-14{fill:url(#linear-gradient-2);}.cls-15{fill:url(#linear-gradient-3);}.cls-16{fill:url(#linear-gradient-4);}.cls-17{fill:url(#linear-gradient-5);}.cls-18{fill:url(#linear-gradient-6);}.cls-19{fill:url(#linear-gradient-7);}.cls-20{fill:gray;}.cls-21{fill:#2589bc;}.cls-22{fill:#f1f1f2;}.cls-23,.cls-26{fill:#2896cd;}.cls-24{fill:#d0d2d3;}.cls-25{fill:#e6e7e8;}.cls-26{stroke:#fff;}.cls-26,.cls-42{stroke-miterlimit:10;}.cls-27,.cls-41{fill:#fcb017;}.cls-28{fill:#ffdf3f;}.cls-29{fill:#603813;}.cls-30{fill:#8c6239;}.cls-31{fill:#c69c6d;}.cls-32{fill:#2e1606;}.cls-33{fill:#42210b;}.cls-34{fill:#754c24;}.cls-35{fill:#e6e6e6;}.cls-36{fill:#ccc;}.cls-37{fill:#999;}.cls-38{fill:#b3b3b3;}.cls-39{fill:#001d55;}.cls-40{fill:#a67c52;}.cls-41{opacity:0.68;}.cls-42{fill:none;stroke:#000;}.cls-43{fill:url(#radial-gradient);}.cls-44{fill:url(#linear-gradient-8);}</style><linearGradient id="linear-gradient" x1="374.93" y1="127.23" x2="374.93" y2="2484.68" gradientUnits="userSpaceOnUse"><stop offset="0" stop-color="#cee1ec" stop-opacity="0"/><stop offset="0.02" stop-color="#cee1ec" stop-opacity="0.16"/><stop offset="0.04" stop-color="#cee1ec" stop-opacity="0.34"/><stop offset="0.06" stop-color="#cee1ec" stop-opacity="0.5"/><stop offset="0.09" stop-color="#cee1ec" stop-opacity="0.63"/><stop offset="0.12" stop-color="#cee1ec" stop-opacity="0.75"/><stop offset="0.15" stop-color="#cee1ec" stop-opacity="0.84"/><stop offset="0.19" stop-color="#cee1ec" stop-opacity="0.91"/><stop offset="0.24" stop-color="#cee1ec" stop-opacity="0.96"/><stop offset="0.31" stop-color="#cee1ec" stop-opacity="0.99"/><stop offset="0.5" stop-color="#cee1ec"/><stop offset="0.6" stop-color="#cee1ec" stop-opacity="0.99"/><stop offset="0.66" stop-color="#cee1ec" stop-opacity="0.95"/><stop offset="0.71" stop-color="#cee1ec" stop-opacity="0.89"/><stop offset="0.76" stop-color="#cee1ec" stop-opacity="0.8"/><stop offset="0.8" stop-color="#cee1ec" stop-opacity="0.69"/><stop offset="0.84" stop-color="#cee1ec" stop-opacity="0.55"/><stop offset="0.88" stop-color="#cee1ec" stop-opacity="0.39"/><stop offset="0.91" stop-color="#cee1ec" stop-opacity="0.2"/><stop offset="0.95" stop-color="#cee1ec" stop-opacity="0"/></linearGradient><linearGradient id="linear-gradient-2" x1="470.46" y1="689.29" x2="464.73" y2="689.29" gradientUnits="userSpaceOnUse"><stop offset="0" stop-color="#fff"/><stop offset="1" stop-color="#ccc" stop-opacity="0.99"/></linearGradient><linearGradient id="linear-gradient-3" x1="459.42" y1="695.17" x2="453.84" y2="695.17" xlink:href="#linear-gradient-2"/><linearGradient id="linear-gradient-4" x1="451.37" y1="690.8" x2="445.8" y2="690.8" gradientUnits="userSpaceOnUse"><stop offset="0" stop-color="#fff"/><stop offset="1" stop-color="#b3b3b3" stop-opacity="0.99"/></linearGradient><linearGradient id="linear-gradient-5" x1="480.77" y1="682.67" x2="475.2" y2="682.67" xlink:href="#linear-gradient-2"/><linearGradient id="linear-gradient-6" x1="486.88" y1="674.22" x2="481.78" y2="674.22" xlink:href="#linear-gradient-2"/><linearGradient id="linear-gradient-7" x1="493.08" y1="676.15" x2="488.36" y2="676.15" xlink:href="#linear-gradient-2"/><radialGradient id="radial-gradient" cx="416.24" cy="1524.92" fx="359.6200605749948" fy="1574.0916520216736" r="74.99" gradientTransform="translate(737.66 -22.76) rotate(27)" gradientUnits="userSpaceOnUse"><stop offset="0.28" stop-color="#96cff0"/><stop offset="0.71" stop-color="#146fc1"/></radialGradient><linearGradient id="linear-gradient-8" x1="375.04" y1="2135.97" x2="375.04" y2="2613.61" gradientUnits="userSpaceOnUse"><stop offset="0" stop-color="#fff"/><stop offset="0.37" stop-color="#fff" stop-opacity="0.99"/><stop offset="0.51" stop-color="#fff" stop-opacity="0.97"/><stop offset="0.6" stop-color="#fff" stop-opacity="0.92"/><stop offset="0.68" stop-color="#fff" stop-opacity="0.85"/><stop offset="0.75" stop-color="#fff" stop-opacity="0.77"/><stop offset="0.8" stop-color="#fff" stop-opacity="0.66"/><stop offset="0.86" stop-color="#fff" stop-opacity="0.53"/><stop offset="0.91" stop-color="#fff" stop-opacity="0.39"/><stop offset="0.95" stop-color="#fff" stop-opacity="0.22"/><stop offset="0.99" stop-color="#fff" stop-opacity="0.04"/><stop offset="1" stop-color="#fff" stop-opacity="0"/></linearGradient></defs><title>Tracks_Background</title><g id="Layer_2" data-name="Layer 2"><g id="Layer_3" data-name="Layer 3"><polygon class="cls-1" points="396.03 352.53 0.09 123.93 0.09 227.17 694.37 628.01 0.09 1028.83 0.09 1166.89 0.09 2389.14 749.78 2389.14 749.78 148.28 396.03 352.53"/><polygon class="cls-2" points="750.09 722.45 0 1155.5 0 1382.21 286.79 1547.79 750.09 1280.33 750.09 722.45"/><polygon class="cls-3" points="414.03 564.76 384.65 580.91 367.57 572.93 396.79 556.66 414.03 564.76"/><polyline class="cls-4" points="505.76 675.73 330.99 575.55 330.54 507.56 506.45 607.91"/><polygon class="cls-5" points="563.66 643.89 564.62 576.39 505.17 608.35 504.42 676.05 563.66 643.89"/><polygon class="cls-3" points="388.58 472.89 330.56 507.38 506.45 608.03 564.3 576.37 388.58 472.89"/><polygon class="cls-6" points="476.41 590.9 330.55 507.33 355.31 474.06 513.94 568.46 476.41 590.9"/><polyline class="cls-7" points="564.71 579.9 388.19 475.99 387.81 471.35 564.23 574.65"/><polygon class="cls-8" points="564.23 576.2 388.58 472.89 355.31 474.06 513.94 568.46 564.23 576.2"/><polygon class="cls-9" points="359.95 581.73 340.22 570.51 340.22 550.39 359.95 562.39 359.95 581.73"/><polygon class="cls-9" points="359.95 552.52 340.22 541.3 340.22 521.18 359.95 533.17 359.95 552.52"/><polygon class="cls-9" points="390.13 599.2 370.4 587.98 370.4 567.86 390.13 579.86 390.13 599.2"/><polygon class="cls-9" points="390.13 569.98 370.4 558.76 370.4 538.65 390.13 550.64 390.13 569.98"/><polyline class="cls-4" points="399.58 699.72 351.08 669.88 351.58 560.03 401.23 590.03"/><polyline class="cls-10" points="457.11 667.5 407.56 636.89 407.56 529.84 458.43 558.07"/><polygon class="cls-11" points="458.75 667.56 458.58 558.01 401.23 589.71 399.52 699.72 458.75 667.56"/><polyline class="cls-12" points="458.63 561.34 405.63 531.39 405.63 525.72 459.02 555.15"/><polygon class="cls-7" points="405.63 531.39 405.63 525.59 351.08 558.22 351.46 564.41 405.63 531.39"/><polygon class="cls-6" points="432.5 549.95 387.06 524.42 351.93 561.1 401.18 589.9 432.5 549.95"/><polygon class="cls-8" points="407.48 528.77 387.06 524.42 432.71 549.95 458.82 557.76 407.48 528.77"/><polygon class="cls-13" points="457.84 556.47 399.8 588.19 432.69 549.89 457.84 556.47"/><polygon class="cls-7" points="459.02 560.96 459.02 555.15 400.6 586.49 400.99 592.68 459.02 560.96"/><polyline class="cls-12" points="400.99 592.87 351.46 564.11 351.46 558.44 401.37 586.68"/><ellipse class="cls-2" cx="433.56" cy="560.62" rx="5.61" ry="5.04" transform="translate(-207.26 257.93) rotate(-27)"/><path class="cls-7" d="M433.65,556.07l.2,4.65h-.39C433.53,559.17,433.59,557.62,433.65,556.07Z"/><path class="cls-7" d="M436.54,559.14,433.91,561a.46.46,0,0,1-.46-.31.24.24,0,0,1,.14-.25Z"/><g id="left_wing" data-name="left wing"><polyline class="cls-4" points="361.3 759.13 186.53 658.95 186.07 590.96 361.99 691.31"/><polygon class="cls-3" points="244.06 556.24 186.1 590.78 360.83 690.66 417.4 657.42 244.06 556.24"/><polygon class="cls-6" points="361.11 691.11 186.23 590.9 224.15 546.79 387.42 643.13 361.11 691.11"/><polygon class="cls-8" points="401.74 647 243.88 556.47 224.15 546.79 387.42 643.13 401.74 647"/></g><polyline class="cls-12" points="361.88 695.36 185.46 593.86 185.46 588.19 362.27 689.17"/><g id="front"><polygon class="cls-11" points="564.23 643.9 564.62 576.2 361.11 691.11 361.24 759.13 564.23 643.9"/><polygon class="cls-13" points="564.23 576.2 361.11 691.11 387.42 643.13 513.94 568.46 564.23 576.2"/></g><polygon class="cls-6" points="387.42 643.13 388.97 639.65 471.38 588.58 512.77 568.85 387.42 643.13"/><polygon class="cls-7" points="564.62 580.07 564.62 574.26 360.73 689.56 361.11 695.75 564.62 580.07"/><polygon class="cls-3" points="387.03 707.62 375.04 714.51 374.65 699.16 386.65 692.27 387.03 707.62"/><polygon class="cls-3" points="409.16 695.51 397.17 702.4 396.78 687.06 408.77 680.17 409.16 695.51"/><polygon class="cls-3" points="430.83 683.52 418.83 690.41 418.45 675.07 430.44 668.18 430.83 683.52"/><polygon class="cls-3" points="387.01 733.63 375.02 740.52 374.63 725.18 386.62 718.29 387.01 733.63"/><polygon class="cls-3" points="409.14 721.53 397.14 728.42 396.76 713.08 408.75 706.19 409.14 721.53"/><polygon class="cls-3" points="430.8 709.54 418.81 716.43 418.42 701.08 430.42 694.19 430.8 709.54"/><polygon class="cls-3" points="514.31 633.96 502.32 640.85 501.93 625.51 513.92 618.62 514.31 633.96"/><polygon class="cls-3" points="536.44 621.86 524.45 628.75 524.06 613.4 536.05 606.51 536.44 621.86"/><polygon class="cls-3" points="558.11 609.86 546.11 616.75 545.73 601.41 557.72 594.52 558.11 609.86"/><polygon class="cls-3" points="514.29 659.98 502.29 666.87 501.91 651.52 513.9 644.63 514.29 659.98"/><polygon class="cls-3" points="536.41 647.87 524.42 654.76 524.03 639.42 536.03 632.53 536.41 647.87"/><polygon class="cls-3" points="558.08 635.88 546.09 642.77 545.7 627.42 557.69 620.53 558.08 635.88"/><polygon class="cls-9" points="215.25 668.28 195.52 657.06 195.52 636.94 215.25 648.93 215.25 668.28"/><polygon class="cls-9" points="215.25 639.06 195.52 627.84 195.52 607.72 215.25 619.72 215.25 639.06"/><polygon class="cls-9" points="245.43 685.75 225.7 674.53 225.7 654.41 245.43 666.4 245.43 685.75"/><polygon class="cls-9" points="245.43 656.53 225.7 645.31 225.7 625.19 245.43 637.18 245.43 656.53"/><polygon class="cls-9" points="277.54 704.32 257.81 693.1 257.81 672.98 277.54 684.97 277.54 704.32"/><polygon class="cls-9" points="277.54 675.1 257.81 663.88 257.81 643.76 277.54 655.76 277.54 675.1"/><polygon class="cls-9" points="343.31 741.07 323.58 729.85 323.58 709.73 343.31 721.73 343.31 741.07"/><polygon class="cls-9" points="343.31 711.86 323.58 700.64 323.58 680.52 343.31 692.51 343.31 711.86"/><polygon class="cls-9" points="310.04 722.89 290.31 711.67 290.31 691.55 310.04 703.54 310.04 722.89"/><polygon class="cls-9" points="310.04 693.67 290.31 682.45 290.31 662.33 310.04 674.33 310.04 693.67"/><polygon class="cls-9" points="387.42 621.85 361.5 606.76 361.5 587.03 387.81 602.89 387.42 621.85"/><polygon class="cls-3" points="417.99 612.18 406.38 619.06 406.38 603.67 417.99 596.83 417.99 612.18"/><polygon class="cls-3" points="440.74 600.18 422.24 610.63 422.31 594.71 440.81 584.34 440.74 600.18"/><polygon class="cls-3" points="456.29 591.67 444.29 598.64 444.37 582.72 456.36 575.83 456.29 591.67"/><polygon class="cls-7" points="455.9 720.51 439.26 710.84 486.08 684.14 501.56 694.59 455.9 720.51"/><path class="cls-14" d="M470.46,707.92,470,670.63A1.88,1.88,0,0,0,468.5,669h0c-1.74-.58-3.77.29-3.77,1.61l.16,37.14a1.72,1.72,0,0,0,1.15,1.46l.33.16C468.12,710.21,470.48,709.35,470.46,707.92Z"/><path class="cls-15" d="M459.42,713.34,458.94,677a1.83,1.83,0,0,0-1.43-1.55h0c-1.69-.56-3.67.28-3.67,1.57l.16,36.22a1.68,1.68,0,0,0,1.11,1.43l.33.15C457.14,715.58,459.43,714.74,459.42,713.34Z"/><path class="cls-16" d="M451.37,709l-.48-36.37a1.83,1.83,0,0,0-1.42-1.55h0c-1.7-.56-3.68.28-3.67,1.57l.15,36.22a1.68,1.68,0,0,0,1.12,1.43l.32.15C449.09,711.21,451.39,710.37,451.37,709Z"/><path class="cls-17" d="M480.77,700.84l-.48-36.37a1.81,1.81,0,0,0-1.42-1.54h0c-1.69-.57-3.67.28-3.67,1.56l.15,36.22a1.73,1.73,0,0,0,1.12,1.44l.33.15C478.5,703.08,480.79,702.24,480.77,700.84Z"/><path class="cls-18" d="M486.88,690.22l-.44-32c0-.58-.51-1.1-1.3-1.36h0c-1.55-.5-3.36.25-3.36,1.38l.14,31.9a1.51,1.51,0,0,0,1,1.26l.3.13C484.8,692.19,486.9,691.45,486.88,690.22Z"/><path class="cls-19" d="M493.08,693.92l-.41-35.56a1.72,1.72,0,0,0-1.21-1.51h0c-1.43-.56-3.11.27-3.1,1.53l.13,35.41a1.63,1.63,0,0,0,.95,1.4l.27.15C491.15,696.11,493.09,695.29,493.08,693.92Z"/><ellipse class="cls-3" cx="479.42" cy="661.49" rx="3.7" ry="3.28" transform="translate(-220.96 240.92) rotate(-23.08)"/><polyline class="cls-12" points="494.47 661.3 479.25 653.83 479.25 650.14 494.59 657.54"/><polygon class="cls-6" points="477.7 655.32 465.29 648.55 444.69 672.91 456.96 681.25 477.7 655.32"/><polygon class="cls-8" points="478.81 651.37 465.29 648.55 477.84 655.33 493.68 659.75 478.81 651.37"/><polyline class="cls-12" points="456.83 683.18 444.16 675.81 444.16 672.13 457.09 679.16"/><polygon class="cls-13" points="493.68 659.36 457.73 679.5 477.48 655.1 493.68 659.36"/><polygon class="cls-7" points="494.47 661.3 494.47 657.54 456.58 679.04 456.83 683.05 494.47 661.3"/><polygon class="cls-12" points="439.26 710.84 439.26 715.48 455.9 725.15 455.9 720.51 439.26 710.84"/><polygon class="cls-20" points="455.9 720.51 455.9 725.15 501.56 699.23 501.56 694.59 455.9 720.51"/><polygon class="cls-2" points="314.51 100.9 366.37 130.84 366.37 260.6 314.51 230.66 314.51 100.9"/><polygon class="cls-21" points="318.61 109.58 328.67 115.45 328.61 150.61 318.55 144.75 318.61 109.58"/><polygon class="cls-21" points="331.79 117.03 343.62 123.86 343.48 159.06 331.65 152.24 331.79 117.03"/><polygon class="cls-21" points="347.43 125.69 362.22 134.08 362.25 168.32 347.45 159.93 347.43 125.69"/><polygon class="cls-21" points="318.65 149.68 328.71 155.55 328.64 190.71 318.59 184.85 318.65 149.68"/><polygon class="cls-21" points="331.83 157.14 343.66 163.96 343.51 199.16 331.69 192.34 331.83 157.14"/><polygon class="cls-21" points="347.46 165.79 362.26 174.18 362.29 208.42 347.49 200.03 347.46 165.79"/><polygon class="cls-21" points="318.65 190.71 328.71 196.58 328.64 231.74 318.59 225.88 318.65 190.71"/><polygon class="cls-21" points="331.83 198.17 343.66 205 343.51 240.19 331.69 233.37 331.83 198.17"/><polygon class="cls-21" points="347.46 206.82 362.26 215.21 362.29 249.45 347.49 241.06 347.46 206.82"/><polygon class="cls-22" points="366.37 130.84 521.94 41.02 522.93 170.2 366.37 260.6 366.37 130.84"/><polygon class="cls-23" points="368.33 133.9 383.49 125.26 383.65 159.54 368.49 168.32 368.33 133.9"/><polygon class="cls-23" points="368.98 174.21 384.14 165.57 384.31 199.85 369.14 208.63 368.98 174.21"/><polygon class="cls-23" points="369.8 214.34 384.96 205.7 385.12 239.98 369.96 248.76 369.8 214.34"/><polygon class="cls-24" points="387.79 126.49 523.38 47.24 528.82 51.36 393.04 130.72 387.79 126.49"/><polyline class="cls-24" points="387.46 126.31 390.27 249.81 395.35 252.98 393.2 130.02"/><polygon class="cls-25" points="495.26 195.28 530.95 174.86 529.4 51.02 393.63 130.38 395.35 252.98 413.01 243.07 412.63 175.51 494.54 127.83 495.26 195.28"/><polygon class="cls-25" points="347.43 125.69 349.08 126.63 349.08 159.06 347.45 159.93 347.43 125.69"/><polygon class="cls-25" points="347.43 165.79 349.08 166.73 349.08 199.16 347.45 200.03 347.43 165.79"/><polygon class="cls-25" points="347.43 206.82 349.08 207.76 349.08 240.19 347.45 241.06 347.43 206.82"/><polygon class="cls-25" points="331.79 198.17 333.45 199.13 333.45 232.48 331.69 233.37 331.79 198.17"/><polygon class="cls-25" points="331.79 157.22 333.45 158.19 333.45 191.53 331.69 192.42 331.79 157.22"/><polygon class="cls-25" points="331.79 117.03 333.45 118 333.45 151.35 331.69 152.24 331.79 117.03"/><polygon class="cls-25" points="318.61 149.69 320.27 150.66 320.27 184.01 318.51 184.89 318.61 149.69"/><polygon class="cls-25" points="318.61 190.71 320.27 191.68 320.27 225.03 318.51 225.91 318.61 190.71"/><polygon class="cls-25" points="318.55 109.51 320.21 110.47 320.21 143.82 318.45 144.71 318.55 109.51"/><polygon class="cls-25" points="333.45 232.48 331.69 233.37 343.51 240.19 343.51 238.13 333.45 232.48"/><polygon class="cls-25" points="333.45 191.45 331.69 192.34 343.51 199.16 343.51 197.1 333.45 191.45"/><polygon class="cls-25" points="333.45 151.35 331.69 152.24 343.51 159.06 343.51 157 333.45 151.35"/><polygon class="cls-25" points="349.05 240.19 347.43 241.06 362.26 249.45 362.26 247.29 349.05 240.19"/><polygon class="cls-25" points="349.05 199.16 347.43 200.03 362.26 208.42 362.26 206.26 349.05 199.16"/><polygon class="cls-25" points="349.08 159.06 347.46 159.93 362.29 168.32 362.29 166.16 349.08 159.06"/><polygon class="cls-25" points="320.21 143.82 318.45 144.71 328.61 150.61 328.61 148.52 320.21 143.82"/><polygon class="cls-25" points="320.29 183.94 318.53 184.83 328.69 190.73 328.69 188.64 320.29 183.94"/><polygon class="cls-25" points="320.27 224.96 318.51 225.84 328.67 231.74 328.67 229.65 320.27 224.96"/><polygon class="cls-24" points="383.49 125.26 381.69 126.28 381.69 158.07 383.65 159.54 383.49 125.26"/><polygon class="cls-24" points="384.14 165.57 382.34 166.6 382.34 198.39 384.31 199.85 384.14 165.57"/><polygon class="cls-24" points="384.96 205.7 383.16 206.73 383.16 238.52 385.12 239.98 384.96 205.7"/><polygon class="cls-24" points="382.34 198.39 368.98 206.1 369.14 208.63 384.31 199.85 382.34 198.39"/><polygon class="cls-24" points="383.16 238.52 369.8 246.23 369.96 248.76 385.12 239.98 383.16 238.52"/><polygon class="cls-24" points="381.69 158.07 368.33 165.79 368.49 168.32 383.65 159.54 381.69 158.07"/><polygon class="cls-23" points="416.26 182.6 431.42 173.97 431.71 221.06 416.55 229.84 416.26 182.6"/><line class="cls-24" x1="430.11" y1="188.99" x2="430.11" y2="220.78"/><polygon class="cls-24" points="429.74 219.6 416.38 227.31 416.55 229.84 431.71 221.06 429.74 219.6"/><polygon class="cls-24" points="431.38 173.99 429.58 175.01 429.74 219.6 431.71 221.06 431.38 173.99"/><polygon class="cls-23" points="468.04 153.97 483.2 145.33 483.41 191.61 468.25 200.39 468.04 153.97"/><polygon class="cls-24" points="481.52 190.18 468.24 197.84 468.25 200.39 483.41 191.61 481.52 190.18"/><polygon class="cls-24" points="483.16 145.35 481.36 146.37 481.52 190.18 483.41 191.61 483.16 145.35"/><polyline class="cls-23" points="438.02 170.13 461.92 156.58 462.59 204.24 438.02 218.54"/><line class="cls-26" x1="451.53" y1="161.97" x2="451.98" y2="208.29"/><polygon class="cls-24" points="460.64 202.58 437.99 215.6 438.02 218.54 462.59 204.24 460.64 202.58"/><polygon class="cls-24" points="461.92 156.58 460.02 157.6 460.64 202.58 462.59 204.24 461.92 156.58"/><polygon class="cls-24" points="494.54 127.83 486.75 132.36 487.6 190.87 495.26 195.28 494.54 127.83"/><ellipse class="cls-24" cx="509.21" cy="107.89" rx="19.17" ry="12.82" transform="translate(291.89 580.87) rotate(-77.29)"/><polygon class="cls-13" points="505.95 101.6 512.71 97.82 512.66 103.55 518.41 100.31 518.41 106.84 513.51 109.44 513.58 114.48 507.01 117.96 506.94 112.93 500.17 116.47 500.01 110.33 506.02 107.01 505.95 101.6"/><polyline class="cls-25" points="368.07 136.59 368.46 124.39 314.89 94.04 314.51 106.62"/><polygon class="cls-2" points="314.89 94.04 475.76 0 530.58 31.04 368.46 124.39 314.89 94.04"/><polyline class="cls-25" points="368.35 124.39 367.96 136.59 530.58 42.89 530.58 30.98 368.35 124.39"/><polygon class="cls-25" points="328.71 92.7 475.68 6.08 519.38 31.04 370.34 117.03 328.71 92.7"/><polygon class="cls-24" points="475.68 6.08 475.68 13.31 513.3 34.54 519.38 31.04 475.68 6.08"/><polygon class="cls-24" points="475.68 6.08 475.68 13.31 334.19 95.91 328.71 92.7 475.68 6.08"/><polygon class="cls-23" points="411.9 139.42 432.53 127.57 432.56 146.66 411.93 158.65 411.9 139.42"/><polyline class="cls-24" points="432.56 127.55 430.8 128.57 430.84 145.38 432.57 146.69"/><polygon class="cls-24" points="430.85 145.36 411.91 156.4 411.87 158.76 432.57 146.66 430.85 145.36"/><polygon class="cls-23" points="434.8 126.02 455.43 114.17 455.46 133.25 434.83 145.25 434.8 126.02"/><polyline class="cls-24" points="455.47 114.14 453.7 115.17 453.74 131.98 455.47 133.29"/><polygon class="cls-24" points="453.75 131.96 434.81 143 434.77 145.36 455.48 133.26 453.75 131.96"/><polygon class="cls-23" points="457.81 113.3 478.45 101.45 478.48 120.54 457.84 132.53 457.81 113.3"/><polyline class="cls-24" points="478.48 101.43 476.72 102.45 476.76 119.26 478.49 120.57"/><polygon class="cls-24" points="476.76 119.24 457.83 130.28 457.79 132.65 478.49 120.54 476.76 119.24"/><path class="cls-27" d="M583.32,1169.87a952.45,952.45,0,0,1-202.68-117.44v10.42c27.75,20.12,59.14,41,94.24,61.41a1124.29,1124.29,0,0,0,108.44,55.55Z"/><path class="cls-28" d="M381.59,1053.28A659.61,659.61,0,0,1,311,1099.63,659.38,659.38,0,0,1,241.42,1134v9.94c22.33-10.31,46.18-22.44,71-36.71,25.51-14.65,48.55-29.53,69.14-44Z"/><polyline class="cls-29" points="380.69 1082.69 378.79 1081.74 378.79 1050.29 380.64 1051.42"/><polygon class="cls-30" points="382.58 1081.27 382.58 1050.29 380.64 1051.42 380.69 1082.69 382.58 1081.27"/><polygon class="cls-31" points="382.58 1050.29 380.64 1051.42 378.79 1050.29 380.64 1049.17 382.58 1050.29"/><polygon class="cls-32" points="538.29 1193.1 395.58 1111 308.38 1161.63 450.6 1243.83 538.29 1193.1"/><polygon class="cls-33" points="450.6 1243.83 308.32 1161.72 276.08 1152.27 451.03 1253.28 450.6 1243.83"/><polygon class="cls-34" points="538.29 1193.1 450.6 1243.83 451.03 1253.28 569.24 1184.51 538.29 1193.1"/><polygon class="cls-29" points="394.72 1083.92 276.08 1152.27 308.32 1161.72 395.58 1111 394.72 1083.92"/><polygon class="cls-33" points="569.24 1184.51 394.72 1083.92 395.58 1111 538.29 1193.1 569.24 1184.51"/><polygon class="cls-35" points="525.89 1127.08 395.21 1052.41 395.21 1055.85 525.89 1130.94 525.89 1127.08"/><polygon class="cls-35" points="397.36 1051.42 321.27 1095.27 321.27 1098.7 396.93 1055.72 397.36 1051.42"/><polygon class="cls-35" points="318.26 1096.97 321.27 1098.7 321.27 1095.23 318.26 1096.97"/><polygon class="cls-35" points="529.33 1129.01 525.88 1131 525.88 1127.02 529.33 1129.01"/><polygon class="cls-35" points="525.83 1053.83 395.15 979.16 395.15 982.6 525.83 1057.69 525.83 1053.83"/><polygon class="cls-35" points="397.3 978.17 321.21 1022.02 321.21 1025.45 396.87 982.47 397.3 978.17"/><polygon class="cls-35" points="318.2 1023.72 321.21 1025.45 321.21 1021.98 318.2 1023.72"/><polygon class="cls-35" points="529.27 1055.76 525.82 1057.75 525.82 1053.77 529.27 1055.76"/><polygon class="cls-36" points="395.58 982.69 324.22 1023.74 324.22 1060.92 395.58 1019.44 395.58 982.69"/><polygon class="cls-36" points="395.58 1055.77 324.22 1097.03 324.22 1133.79 395.58 1093.16 395.58 1055.77"/><polygon class="cls-37" points="522.39 1055.55 395.58 982.9 395.58 1020.3 522.39 1092.94 522.39 1055.55"/><polygon class="cls-37" points="522.39 1129.48 395.58 1055.98 395.58 1093.37 522.39 1165.59 522.39 1129.48"/><polyline class="cls-7" points="396.01 1129.48 387.84 1124.75 387.84 950.66 395.58 955.39"/><polygon class="cls-20" points="403.75 1124.75 403.75 950.66 395.58 955.39 396.01 1129.48 403.75 1124.75"/><polygon class="cls-38" points="403.75 950.66 395.58 955.39 387.84 950.66 395.58 945.93 403.75 950.66"/><polyline class="cls-7" points="435.56 1152.27 427.39 1147.54 427.39 973.44 435.56 978.17"/><polygon class="cls-20" points="443.29 1147.54 443.29 973.44 435.56 978.17 435.56 1152.27 443.29 1147.54"/><polygon class="cls-38" points="443.29 973.44 435.56 978.17 427.39 973.44 435.56 969.14 443.29 973.44"/><polyline class="cls-7" points="475.1 1175.05 467.37 1170.75 467.37 996.23 475.1 1000.95"/><polygon class="cls-20" points="482.84 1170.32 482.84 996.23 475.1 1000.95 475.1 1175.05 482.84 1170.32"/><polygon class="cls-38" points="482.84 996.23 475.1 1000.95 467.37 996.23 475.1 991.93 482.84 996.23"/><polyline class="cls-7" points="514.65 1198.01 506.48 1193.28 506.91 1019.44 514.65 1023.74"/><polygon class="cls-20" points="522.39 1193.28 522.82 1019.44 514.65 1023.74 514.65 1198.01 522.39 1193.28"/><polygon class="cls-38" points="522.82 1019.44 514.65 1023.74 506.91 1019.44 514.65 1014.71 522.82 1019.44"/><polygon class="cls-39" points="522.82 1166.02 482.84 1142.81 475.1 1147.54 467.37 1142.81 467.37 1134.21 443.29 1120.03 435.56 1124.75 427.39 1120.03 427.39 1111 403.75 1097.24 395.58 1101.97 388.27 1096.81 324.22 1133.78 451.46 1207.29 522.82 1166.02"/><polygon class="cls-39" points="522.62 1083.65 482.84 1060.27 475.1 1065 467.37 1060.7 467.37 1051.25 443.29 1037.49 435.56 1042.22 427.39 1037.49 427.39 1028.46 403.75 1014.71 395.58 1019.44 387.84 1014.71 324.45 1051.42 451.69 1124.92 522.62 1083.65"/><polygon class="cls-29" points="414.49 1041.98 403.98 1035.87 403.98 1023.45 414.49 1029.75 414.49 1041.98"/><polygon class="cls-34" points="403.98 1035.68 389.65 1044.09 389.65 1031.47 403.98 1023.45 403.98 1035.68"/><polygon class="cls-30" points="400.35 1050.01 389.65 1043.9 389.65 1031.47 400.35 1037.4 400.35 1050.01"/><polygon class="cls-40" points="414.49 1041.98 400.35 1049.91 400.35 1037.49 414.49 1029.56 414.49 1041.98"/><polygon class="cls-31" points="403.98 1023.45 389.65 1031.47 383.35 1029.18 397.87 1021.16 403.98 1023.45"/><polygon class="cls-31" points="414.3 1029.56 400.39 1037.44 395.38 1034.34 408.76 1026.89 414.3 1029.56"/><polygon class="cls-41" points="395.19 1040.46 393.86 1039.61 393.86 1033.77 395.19 1034.53 395.19 1040.46"/><polygon class="cls-41" points="395.96 1034.72 395.38 1034.34 408.76 1026.89 409.33 1027.27 395.96 1034.72"/><polyline class="cls-7" points="332.82 1166.02 324.65 1161.29 324.22 987.2 332.39 991.93"/><polygon class="cls-20" points="340.56 1161.29 340.13 987.2 332.39 991.93 332.82 1166.02 340.56 1161.29"/><polygon class="cls-38" points="340.13 987.2 332.39 991.93 324.22 987.2 332.39 982.9 340.13 987.2"/><polyline class="cls-7" points="411.48 1211.59 403.75 1207.15 403.75 1033.19 411.48 1037.49"/><polygon class="cls-20" points="419.65 1207.29 419.65 1033.19 411.48 1037.49 411.48 1211.59 419.65 1207.29"/><polygon class="cls-38" points="419.65 1033.19 411.48 1037.49 403.75 1033.19 411.48 1028.46 419.65 1033.19"/><polyline class="cls-7" points="451.46 1234.66 443.29 1229.94 443.29 1055.98 451.46 1060.7"/><polygon class="cls-20" points="459.2 1229.94 459.2 1055.98 451.46 1060.7 451.46 1234.66 459.2 1229.94"/><polygon class="cls-38" points="459.2 1055.98 451.46 1060.7 443.29 1055.98 451.46 1051.25 459.2 1055.98"/><polyline class="cls-7" points="371.94 1188.64 363.77 1184.08 364.2 1010.41 371.94 1014.71"/><polygon class="cls-20" points="379.67 1184.08 379.67 1009.98 371.94 1014.71 371.94 1188.64 379.67 1184.08"/><polygon class="cls-38" points="379.67 1010.25 371.94 1014.71 364.2 1010.41 371.94 1005.68 379.67 1010.25"/><polygon class="cls-36" points="522.82 1055.55 451.46 1097.24 451.46 1134.21 522.82 1092.94 522.82 1055.55"/><polygon class="cls-36" points="522.82 1129.05 451.03 1170.75 451.46 1207.29 522.82 1166.45 522.82 1129.05"/><polygon class="cls-38" points="451.46 1097.24 324.22 1023.74 324.22 1061.13 451.46 1134.21 451.46 1097.24"/><polygon class="cls-38" points="451.46 1170.32 324.22 1096.81 324.22 1133.78 451.46 1207.29 451.46 1170.32"/><polygon class="cls-38" points="451.46 1100.54 318.2 1023.59 318.2 1060.99 451.46 1137.51 451.46 1100.54"/><polygon class="cls-35" points="451.46 1097.24 324.22 1023.74 320.78 1025.03 451.46 1100.68 451.46 1097.24"/><polygon class="cls-36" points="529.27 1055.76 451.46 1100.66 451.46 1137.63 529.27 1093.16 529.27 1055.76"/><polygon class="cls-35" points="522.82 1055.55 451.46 1097.24 451.46 1100.68 525.83 1057.69 522.82 1055.55"/><polygon class="cls-38" points="451.46 1173.53 318.2 1096.58 318.2 1133.98 451.46 1210.5 451.46 1173.53"/><polygon class="cls-35" points="451.46 1170.23 324.22 1096.73 320.78 1098.02 451.46 1173.67 451.46 1170.23"/><polygon class="cls-36" points="529.27 1128.62 451.46 1173.52 451.46 1210.48 529.27 1166.02 529.27 1128.62"/><polygon class="cls-35" points="522.82 1128.4 451.46 1170.1 451.46 1173.54 525.83 1130.55 522.82 1128.4"/><polyline class="cls-29" points="242.84 1163.56 240.95 1162.62 240.95 1131.17 242.79 1132.3"/><polygon class="cls-30" points="244.74 1162.14 244.74 1131.17 242.79 1132.3 242.84 1163.56 244.74 1162.14"/><polygon class="cls-31" points="244.74 1131.17 242.79 1132.3 240.95 1131.17 242.79 1130.05 244.74 1131.17"/><polyline class="cls-29" points="443.57 1279.49 441.68 1278.55 441.68 1247.1 443.52 1248.23"/><polygon class="cls-30" points="445.47 1278.07 445.47 1247.1 443.52 1248.23 443.57 1279.49 445.47 1278.07"/><polygon class="cls-31" points="445.47 1247.1 443.52 1248.23 441.68 1247.1 443.52 1245.98 445.47 1247.1"/><polyline class="cls-29" points="581.38 1200.41 579.48 1199.46 579.48 1168.02 581.33 1169.15"/><polygon class="cls-30" points="583.27 1198.99 583.27 1168.02 581.33 1169.15 581.38 1200.41 583.27 1198.99"/><polygon class="cls-31" points="583.27 1168.02 581.33 1169.15 579.48 1168.02 581.33 1166.89 583.27 1168.02"/><path class="cls-27" d="M443.15,1249.75A1218.66,1218.66,0,0,1,329,1190.08c-32.46-19.22-62-38.72-88.56-57.77v10.42c27,18.79,56.45,37.92,88.56,56.82,39.87,23.48,78.21,43.33,114.12,60.14Z"/><path class="cls-28" d="M583.32,1169.05a372.57,372.57,0,0,1-140.17,80.7v9.94A409.66,409.66,0,0,0,583.32,1179Z"/><path d="M249.66,1144.75c0-1.09,1.23-1.47,2.68-.84a5.14,5.14,0,0,1,1.79,1.37l-.47.27a3.86,3.86,0,0,0-1.34-1c-.94-.41-1.83-.18-1.84.59a3,3,0,0,0,1.83,2.18,2,2,0,0,0,1.34.13l.47.69a2.53,2.53,0,0,1-1.79-.2C250.87,1147.28,249.66,1145.85,249.66,1144.75Z"/><path d="M258.38,1151.09l-2.44-1.06-.36.43-.88-.38,2.45-2.89.05,0,2.41,5-.88-.38Zm-.31-.66-.9-1.9-.92,1.11Z"/><path d="M260.53,1152.72v-2.4l.81.36v2.39a1.78,1.78,0,0,0,1.13,1.42c.63.28,1.14.11,1.14-.43v-2.39l.82.35v2.4c0,.89-.86,1.17-2,.69A3,3,0,0,1,260.53,1152.72Z"/><path d="M269.44,1155.86l-1.38-.6v3.27l-.82-.36,0-3.26-1.39-.61v-.6l3.59,1.56Z"/><path d="M270.62,1156.48l.81.36v3.86l-.82-.35Z"/><path d="M273.11,1160.52c0-1.1,1.2-1.48,2.68-.84s2.66,2.06,2.66,3.17-1.21,1.46-2.68.82S273.1,1161.62,273.11,1160.52Zm4.52,2a2.94,2.94,0,0,0-1.85-2.19c-1-.45-1.85-.18-1.85.58a2.9,2.9,0,0,0,1.84,2.19C276.79,1163.5,277.63,1163.25,277.63,1162.48Z"/><path d="M283.87,1164.45v3.94h0l-3.3-4v2.52l-.81-.35,0-3.94,0,0,3.29,4v-2.52Z"/><path d="M306.49,1182.12c0-1.09,1.22-1.48,2.68-.85a5.33,5.33,0,0,1,1.79,1.37l-.48.28a3.82,3.82,0,0,0-1.33-1c-.94-.41-1.84-.18-1.84.59a3,3,0,0,0,1.83,2.18,1.91,1.91,0,0,0,1.34.13l.47.69a2.53,2.53,0,0,1-1.79-.2C307.7,1184.64,306.49,1183.21,306.49,1182.12Z"/><path d="M315.21,1188l-2.45-1.06-.35.43-.88-.38,2.44-2.89,0,0,2.42,5-.88-.38Zm-.32-.66-.9-1.9-.91,1.11Z"/><path d="M317.35,1189.14v-2.4l.82.35v2.4a1.79,1.79,0,0,0,1.13,1.42c.63.27,1.14.1,1.14-.43v-2.4l.82.36v2.4c0,.88-.86,1.16-2,.68A3,3,0,0,1,317.35,1189.14Z"/><path d="M326.27,1191.8l-1.38-.6,0,3.27-.81-.36v-3.26l-1.38-.6v-.61l3.58,1.56Z"/><path d="M327.92,1192.42l.81.36v3.86l-.81-.35Z"/><path d="M330.88,1196.46c0-1.1,1.21-1.48,2.68-.84s2.67,2.06,2.66,3.17-1.21,1.46-2.68.82S330.88,1197.56,330.88,1196.46Zm4.52,2a2.91,2.91,0,0,0-1.85-2.2c-1-.44-1.85-.18-1.85.58a2.92,2.92,0,0,0,1.84,2.19C334.56,1199.44,335.4,1199.19,335.4,1198.43Z"/><path d="M341.53,1199.67v3.95l0,0-3.29-4v2.52l-.81-.35v-3.94l0,0,3.29,4v-2.52Z"/><path d="M365.31,1215.64c0-1.09,1.22-1.48,2.67-.84a5.14,5.14,0,0,1,1.8,1.37l-.48.27a3.82,3.82,0,0,0-1.33-1c-.94-.4-1.84-.18-1.84.6a3,3,0,0,0,1.83,2.18,1.9,1.9,0,0,0,1.34.12l.46.69a2.49,2.49,0,0,1-1.78-.19C366.52,1218.16,365.31,1216.73,365.31,1215.64Z"/><path d="M374,1221.5l-2.45-1.06-.35.43-.88-.38,2.44-2.89,0,0,2.41,5-.87-.39Zm-.32-.66-.9-1.9-.91,1.11Z"/><path d="M376.65,1222.66v-2.4l.82.35v2.4a1.78,1.78,0,0,0,1.13,1.42c.63.28,1.14.11,1.14-.43v-2.4l.82.36v2.4c0,.89-.86,1.16-2,.69A3,3,0,0,1,376.65,1222.66Z"/><path d="M385.56,1225.33l-1.38-.61V1228l-.82-.36v-3.26l-1.38-.6v-.61l3.59,1.56Z"/><path d="M387.21,1226l.81.35v3.87l-.81-.36Z"/><path d="M389.7,1229.51c0-1.1,1.21-1.48,2.68-.84s2.67,2.06,2.66,3.17-1.21,1.46-2.68.82S389.7,1230.61,389.7,1229.51Zm4.52,2a2.92,2.92,0,0,0-1.85-2.19c-1-.45-1.85-.18-1.85.58a2.92,2.92,0,0,0,1.84,2.19C393.38,1232.49,394.22,1232.23,394.22,1231.47Z"/><path d="M400.46,1232.49v3.94h0l-3.29-4v2.52l-.81-.36v-3.93h0l3.29,4v-2.52Z"/><path d="M426.31,1247.5c0-1.09,1.23-1.47,2.68-.84a5.14,5.14,0,0,1,1.79,1.37l-.47.27a3.74,3.74,0,0,0-1.34-1c-.94-.41-1.83-.18-1.84.59A3,3,0,0,0,429,1250a1.91,1.91,0,0,0,1.34.12l.47.7a2.5,2.5,0,0,1-1.78-.2C427.52,1250,426.31,1248.59,426.31,1247.5Z"/><path d="M435.11,1252.76l-2.44-1.07-.36.44-.87-.39,2.44-2.88.05,0,2.41,5-.88-.38Zm-.31-.66-.9-1.91-.92,1.12Z"/><path d="M437.74,1253.41V1251l.82.35v2.4a1.76,1.76,0,0,0,1.13,1.42c.63.27,1.14.11,1.14-.43v-2.4l.82.36v2.4c0,.89-.86,1.16-2,.69A3,3,0,0,1,437.74,1253.41Z"/><path d="M447.6,1251.91l-1.39.6v3.27l-.82.36v-3.28l-1.39.6v-.6l3.59-1.55Z"/><path d="M449.19,1251l.81-.36v3.88l-.82.35Z"/><path d="M451.69,1252.29c0-1.1,1.2-2.53,2.68-3.16s2.67-.26,2.67.85-1.21,2.52-2.68,3.16S451.69,1253.39,451.69,1252.29Zm4.53-2c0-.77-.84-1-1.86-.59a2.94,2.94,0,0,0-1.85,2.19c0,.77.83,1,1.85.59A3,3,0,0,0,456.22,1250.33Z"/><path d="M462.42,1245.9v4l0,0-3.3-1.17v2.53l-.81.35v-3.95l0,0,3.3,1.16v-2.52Z"/><path d="M485.89,1238.48c0-1.09,1.22-2.53,2.67-3.16a2.65,2.65,0,0,1,1.8-.18l-.47.68a1.9,1.9,0,0,0-1.34.13,3,3,0,0,0-1.84,2.18c0,.78.91,1,1.84.59a3.82,3.82,0,0,0,1.34-1l.47.29a4.92,4.92,0,0,1-1.79,1.35C487.11,1240,485.89,1239.58,485.89,1238.48Z"/><path d="M494.54,1235.62l-2.45,1.06-.35.74-.88.38,2.43-5,0,0,2.43,2.9-.88.38Zm-.31-.39-.91-1.12-.91,1.91Z"/><path d="M496.44,1233.83v-2.41l.82-.35v2.41c0,.53.5.71,1.13.43a1.79,1.79,0,0,0,1.14-1.42v-2.4l.82-.36v2.41a3.05,3.05,0,0,1-2,2.39C497.29,1235,496.44,1234.72,496.44,1233.83Z"/><path d="M505.18,1228.05l-1.38.6v3.28l-.82.35V1229l-1.38.6v-.6l3.59-1.55Z"/><path d="M506.77,1226.22l.82-.35v3.88l-.81.35Z"/><path d="M509.28,1226.54c0-1.11,1.2-2.53,2.67-3.17s2.68-.25,2.68.86-1.21,2.52-2.68,3.15S509.28,1227.64,509.28,1226.54Zm4.53-2c0-.77-.84-1-1.86-.59a2.92,2.92,0,0,0-1.85,2.19c0,.77.83,1,1.85.59A3,3,0,0,0,513.81,1224.58Z"/><path d="M520,1219.2v4l0,0-3.3-1.16v2.52l-.82.35v-4h0l3.3,1.15v-2.52Z"/><path d="M536.09,1209.6c0-1.1,1.22-2.54,2.67-3.17a2.68,2.68,0,0,1,1.79-.18l-.47.68a2,2,0,0,0-1.34.13,3,3,0,0,0-1.83,2.18c0,.79.91,1,1.83.6a3.84,3.84,0,0,0,1.34-1l.47.28a4.82,4.82,0,0,1-1.78,1.36C537.3,1211.07,536.09,1210.69,536.09,1209.6Z"/><path d="M545,1205.91l-2.45,1.06-.35.74-.88.38,2.43-5,.05,0,2.43,2.9-.88.39Zm-.32-.39-.9-1.12-.92,1.91Z"/><path d="M546.64,1203.53v-2.41l.81-.36v2.41c0,.54.5.71,1.14.44a1.82,1.82,0,0,0,1.14-1.42v-2.41l.82-.35v2.4a3,3,0,0,1-2,2.39C547.49,1204.7,546.64,1204.42,546.64,1203.53Z"/><path d="M555.38,1196.8l-1.38.6v3.27l-.81.35v-3.27l-1.39.6v-.61l3.58-1.55Z"/><path d="M556.5,1194.49l.81-.35V1198l-.81.35Z"/><path d="M558.53,1194.81c0-1.1,1.2-2.53,2.67-3.16s2.68-.26,2.68.85-1.21,2.52-2.68,3.16S558.53,1195.91,558.53,1194.81Zm4.52-2c0-.77-.83-1-1.85-.59a2.93,2.93,0,0,0-1.85,2.2c0,.76.83,1,1.85.58A2.94,2.94,0,0,0,563.05,1192.85Z"/><path d="M568.78,1186.06v4l0,0-3.31-1.16v2.53l-.81.35v-4l0,0,3.3,1.16v-2.53Z"/><polygon class="cls-27" points="454.75 1043.74 443.46 1037.29 443.46 1024.17 454.75 1030.83 454.75 1043.74"/><polygon class="cls-27" points="443.46 1037.29 432.57 1043.54 432.57 1030.43 443.46 1024.18 443.46 1037.29"/><polygon class="cls-30" points="443.86 1049.99 432.57 1043.54 432.57 1030.43 443.86 1037.09 443.86 1049.99"/><polygon class="cls-40" points="454.75 1043.84 443.86 1050.09 443.86 1036.98 454.75 1030.73 454.75 1043.84"/><polygon class="cls-31" points="454.75 1030.83 443.86 1037.09 432.57 1030.43 443.46 1024.18 454.75 1030.83"/><line class="cls-42" x1="438.42" y1="1027.2" x2="449.51" y2="1033.86"/><polygon class="cls-41" points="450.36 1033.32 448.75 1034.33 437.45 1027.67 439.07 1026.66 450.36 1033.32"/><line class="cls-42" x1="449.51" y1="1033.86" x2="449.51" y2="1046.77"/><polygon class="cls-41" points="450.32 1046.36 448.75 1047.24 448.75 1034.33 450.36 1033.32 450.32 1046.36"/><polygon class="cls-2" points="749.78 1401.52 379.78 1615.17 749.78 1828.81 749.78 1401.52"/><polygon class="cls-2" points="750.09 1926.23 0 1493.12 0 2473.12 750.09 2040.06 750.09 1926.23"/><polygon class="cls-2" points="750.09 265.35 493.59 413.46 750.09 561.57 750.09 265.35"/><path class="cls-3" d="M385.23,1604.63h.11a16,16,0,0,1,1.58.68,16.33,16.33,0,0,1,5.07,4l-6.65,3.61"/><path class="cls-5" d="M385.34,1604.63a9,9,0,0,0-2.71,1,9.21,9.21,0,0,0-3.58,3.81l6.29,3.41"/><g id="left_back" data-name="left back"><g id="side_2.1" data-name="side 2.1"><polygon class="cls-3" points="338.82 1634.16 345.84 1638.9 384.91 1616.28 378.36 1613 338.82 1634.16"/><polygon class="cls-5" points="339.84 1640.81 344.32 1647.15 390.11 1622.48 386.62 1615.49 339.84 1640.81"/></g><g id="side_2.2" data-name="side 2.2"><polygon class="cls-3" points="331.59 1697.34 338.61 1702.08 385.11 1675.96 378.55 1672.68 331.59 1697.34"/><polygon class="cls-5" points="331.74 1704.42 336.21 1710.77 390.37 1680.19 384.81 1675.83 331.74 1704.42"/></g><g id="side_2.3" data-name="side 2.3"><polygon class="cls-3" points="325.82 1759.91 332.83 1764.65 388.07 1733.29 381.51 1730.01 325.82 1759.91"/><polygon class="cls-5" points="326.4 1766.11 330.87 1772.46 393.33 1737.52 387.77 1733.16 326.4 1766.11"/></g><g id="side_2.4" data-name="side 2.4"><polygon class="cls-3" points="318.39 1822.36 325.41 1827.1 389.38 1791.37 382.82 1788.09 318.39 1822.36"/><polygon class="cls-5" points="320.72 1828.13 325.2 1834.48 395.07 1795.61 389.52 1791.24 320.72 1828.13"/></g></g><g id="left"><polyline class="cls-10" points="309.12 1898.87 302.84 1895.33 339.68 1587.67 345.94 1591.12"/><polygon class="cls-5" points="315.81 1894.63 352.49 1586.32 345.78 1589.91 309.11 1898.38 315.81 1894.63"/></g><g id="left_batch" data-name="left batch"><g id="side_1.1" data-name="side 1.1"><polygon class="cls-3" points="385.63 1659.29 378.62 1664.03 339.54 1641.4 346.1 1638.13 385.63 1659.29"/><polygon class="cls-10" points="384.61 1665.93 380.14 1672.28 333.85 1646.08 339.4 1641.71 384.61 1665.93"/></g><g id="side_1.2" data-name="side 1.2"><polygon class="cls-3" points="385.01 1725.09 377.99 1729.83 331.49 1703.7 338.05 1700.43 385.01 1725.09"/><polygon class="cls-10" points="384.42 1732.6 379.95 1738.95 325.79 1708.38 331.35 1704.01 384.42 1732.6"/></g><g id="side_1.3" data-name="side 1.3"><polygon class="cls-3" points="386.85 1794.2 379.83 1798.94 324.6 1767.58 331.16 1764.31 386.85 1794.2"/><polygon class="cls-10" points="385.83 1800.85 381.36 1807.19 318.9 1772.26 324.46 1767.89 385.83 1800.85"/></g><g id="side_1.4" data-name="side 1.4"><polygon class="cls-3" points="390.78 1862.33 383.76 1867.07 316.74 1829.6 323.3 1826.32 390.78 1862.33"/><polygon class="cls-10" points="389.76 1868.97 385.29 1875.33 311.04 1834.27 316.6 1829.91 389.76 1868.97"/></g></g><g id="right_back" data-name="right back"><g id="side_1.1-2" data-name="side 1.1"><polygon class="cls-3" points="432.51 1633.19 425.49 1637.93 386.42 1615.3 392.97 1612.03 432.51 1633.19"/><polygon class="cls-10" points="431.49 1639.83 427.01 1646.18 380.72 1619.98 386.28 1615.61 431.49 1639.83"/></g><g id="side_1.2-2" data-name="side 1.2"><polygon class="cls-3" points="439.74 1697.24 432.72 1701.98 386.23 1675.86 392.78 1672.58 439.74 1697.24"/><polygon class="cls-10" points="439.16 1704.75 434.68 1711.1 380.53 1680.53 386.09 1676.17 439.16 1704.75"/></g><g id="side_1.3-2" data-name="side 1.3"><polygon class="cls-3" points="445.52 1761.55 438.5 1766.29 383.27 1734.93 389.82 1731.66 445.52 1761.55"/><polygon class="cls-10" points="444.5 1768.19 440.02 1774.55 379.7 1740.41 383.13 1735.24 444.5 1768.19"/></g><g id="side_1.4-2" data-name="side 1.4"><polygon class="cls-3" points="452.94 1824.44 445.92 1829.18 378.9 1791.71 385.45 1788.43 452.94 1824.44"/><polygon class="cls-10" points="451.92 1831.08 447.44 1837.43 382.32 1802.86 381.45 1791.94 451.92 1831.08"/></g></g><g id="right"><polyline class="cls-10" points="457.07 1892 450.78 1888.46 419.58 1585.07 425.84 1588.53"/><polygon class="cls-5" points="463.75 1887.77 432.55 1584.93 425.84 1588.53 457.06 1891.51 463.75 1887.77"/></g><g id="right_batch" data-name="right batch"><g id="side_2.1-2" data-name="side 2.1"><polygon class="cls-3" points="384.75 1659.51 391.77 1664.25 430.85 1641.62 424.29 1638.34 384.75 1659.51"/><polygon class="cls-5" points="385.77 1666.15 390.25 1672.5 436.04 1647.82 432.55 1640.84 385.77 1666.15"/></g><g id="side_2.2-2" data-name="side 2.2"><polygon class="cls-3" points="384.51 1725.74 391.53 1730.48 438.02 1704.36 431.47 1701.08 384.51 1725.74"/><polygon class="cls-5" points="384.65 1732.82 389.13 1739.17 443.28 1708.6 437.73 1704.23 384.65 1732.82"/></g><g id="side_2.3-2" data-name="side 2.3"><polygon class="cls-3" points="382.67 1794.86 389.68 1799.6 444.91 1768.24 438.36 1764.96 382.67 1794.86"/><polygon class="cls-5" points="383.25 1801.06 387.72 1807.41 450.18 1772.47 444.62 1768.11 383.25 1801.06"/></g><g id="side_2.4-2" data-name="side 2.4"><polygon class="cls-3" points="380.04 1861.68 387.06 1866.42 451.03 1830.69 444.47 1827.41 380.04 1861.68"/><polygon class="cls-5" points="382.38 1867.44 386.85 1873.8 456.73 1834.93 451.17 1830.56 382.38 1867.44"/></g></g><g id="front-2" data-name="front"><polyline class="cls-10" points="385.31 1932.73 379.02 1929.19 379.02 1609.4 385.28 1612.85"/><polygon class="cls-5" points="391.99 1928.5 391.99 1609.26 385.28 1612.85 385.3 1932.24 391.99 1928.5"/></g><polyline class="cls-10" points="385.38 1612.88 339.84 1587.62 339.67 1572.22 384.88 1598.05"/><polygon class="cls-5" points="432.55 1584.93 432.55 1570.52 384.94 1596.81 385.25 1613.06 432.55 1584.93"/><polygon class="cls-3" points="432.51 1570.61 384.88 1598.05 340.13 1572.37 387.3 1546.38 432.51 1570.61"/><polyline class="cls-10" points="385.69 1574.64 381.65 1572.57 381.65 1537.5 385.69 1539.12"/><polygon class="cls-5" points="389.72 1572.38 389.72 1537.08 385.69 1539.12 385.69 1574.64 389.72 1572.38"/><polygon class="cls-5" points="381.65 1537.5 385.69 1539.12 385.69 1534.27 381.65 1537.5"/><polygon class="cls-3" points="389.72 1537.1 385.69 1539.12 385.69 1534.27 389.72 1537.1"/><ellipse class="cls-43" cx="416.24" cy="1524.92" rx="28.35" ry="62.83" transform="translate(-646.93 355.17) rotate(-27)"/><path class="cls-3" d="M418.8,1528.75l0,0c.06.28.1.57.14.88a9.27,9.27,0,0,1-.15,3.07l-2.7-2.68"/><polyline class="cls-10" points="383.48 1545.23 383.23 1541.63 415.82 1526.46 416.1 1530.04"/><polygon class="cls-5" points="386.25 1547.9 418.81 1532.75 416.1 1530.04 383.49 1545.22 386.25 1547.9"/><path class="cls-5" d="M418.82,1528.8a6.55,6.55,0,0,0-.94-1.16,4.37,4.37,0,0,0-2.07-1.16l.3,3.59"/><path class="cls-10" d="M388,1468.91a13.13,13.13,0,0,1,2.61-1A12,12,0,0,0,388,1468.91Z"/><path class="cls-10" d="M391.24,1537.76C375.48,1506.84,374,1476,388,1468.91c-14,7.1-34.46,43.5-18.7,74.42,14.8,29.06,56.37,42.94,72.9,38.6C428,1585.42,406,1566.67,391.24,1537.76Z"/><polygon class="cls-44" points="0 2569.11 0 2613.61 750.09 2613.61 750.09 2135.97 0 2569.11"/></g></g></svg>