<svg width="4499" height="2878" viewBox="0 0 4499 2878" fill="none" xmlns="http://www.w3.org/2000/svg">
<g clip-path="url(#clip0)">
<rect width="4499" height="2878" fill="white"/>
<g clip-path="url(#clip1)">
<path d="M4499 306H0V2878H4499V306Z" fill="url(#paint0_linear)"/>
<rect width="1180.13" height="794.974" transform="matrix(0.866044 0.499967 -0.866044 0.499967 3126.66 2639.09)" fill="white"/>
<rect width="1180.13" height="1748.72" transform="matrix(0.866044 0.499967 -0.866044 0.499967 4724.04 1719.65)" fill="white"/>
<rect width="1179.55" height="1156.9" transform="matrix(0.866044 0.499967 -0.866044 0.499967 897.87 2509.47)" fill="white"/>
<rect width="2350.31" height="3056.08" transform="matrix(0.866044 0.499967 -0.866044 0.499967 43.1582 306)" fill="white"/>
<rect width="1063.86" height="2096.99" transform="matrix(0.866044 0.499967 -0.866044 0.499967 3325.46 -197.896)" fill="white"/>
<rect width="977.482" height="3075.86" transform="matrix(0.866044 0.499967 -0.866044 0.499967 5218.08 131.816)" fill="white"/>
<rect width="1318.26" height="2096.99" transform="matrix(0.866044 0.499967 -0.866044 0.499967 2068.28 -902.227)" fill="white"/>
<path d="M3132.02 2324.8L2054.61 2946.86L1576.39 2670.78V2463.32L1276.95 2290.65L2174.77 1772L3132.02 2324.8Z" fill="white"/>
<path d="M1985.43 2989.82L1419.98 3289.92L843.708 3281.19L845.001 2539.44L1205.37 2331.29L1505.79 2505.82V2712.84L1985.43 2989.82Z" fill="white"/>
<g clip-path="url(#clip2)">
<path d="M1251.73 2612.23V2737.29L1414.28 2643.57L1414.57 2518.36L1251.73 2612.23Z" fill="#F1F2F2"/>
<path d="M1034.57 2487.16V2612.23L1251.73 2737.29V2612.23L1034.57 2487.16Z" fill="#DDDDDD"/>
<path d="M1197.41 2393.29L1034.57 2487.16L1251.73 2612.23L1414.57 2518.36L1197.41 2393.29Z" fill="#F9F9F9"/>
</g>
<g clip-path="url(#clip3)">
<path d="M3877.31 2629.15V2799.29L4097.6 2671.78L4098 2501.44L3877.31 2629.15Z" fill="#F1F2F2"/>
<path d="M3583 2459V2629.15L3877.31 2799.29V2629.15L3583 2459Z" fill="#DDDDDD"/>
<path d="M3803.69 2331.29L3583 2459L3877.31 2629.15L4098 2501.44L3803.69 2331.29Z" fill="#F9F9F9"/>
</g>
<g clip-path="url(#clip4)">
<path d="M-104.054 2139.57L117.176 2267.43L448.797 2075.71L227.716 1948L-104.054 2139.57Z" fill="#F9F9F9"/>
<path d="M117.176 2267.43V2459L-104.054 2331.29V2139.57L117.176 2267.43Z" fill="#DDDDDD"/>
<path d="M448.797 2075.71L448.946 2267.43L117.176 2459V2267.43L448.797 2075.71Z" fill="#F1F2F2"/>
</g>
<rect width="180.659" height="180.659" transform="matrix(0.866044 0.499967 -0.866044 0.499967 687.236 497.494)" fill="white"/>
<rect width="320.387" height="180.659" transform="matrix(-4.37114e-08 1 -0.865988 -0.500065 687.225 678.159)" fill="#DDDDDD"/>
<rect width="180.659" height="320.623" transform="matrix(-0.866025 0.5 7.53869e-05 -1 843.684 908.453)" fill="#F1F2F2"/>
</g>
<g clip-path="url(#clip5)">
<path d="M1806.78 601.942L2028.01 729.804L2359.63 538.086L2138.55 410.373L1806.78 601.942Z" fill="#F9F9F9"/>
<path d="M2028.01 729.804V921.373L1806.78 793.66V601.942L2028.01 729.804Z" fill="#DDDDDD"/>
<path d="M2359.63 538.086L2359.78 729.804L2028.01 921.373V729.804L2359.63 538.086Z" fill="#F1F2F2"/>
</g>
<g clip-path="url(#clip6)">
<path d="M1307.54 1320.01L1227.76 1363.75L1181.31 1342.09L1260.67 1297.92L1307.54 1320.01Z" fill="#96CFF0"/>
<path d="M1556.46 1621.24L1082.16 1349.17L1080.91 1164.81L1558.33 1437.08" fill="#E09C6B"/>
<path d="M1713.52 1534.79L1716.02 1351.46L1554.79 1438.33L1552.71 1622.07L1713.52 1534.79Z" fill="#2895CD"/>
<path d="M1238.39 1070.64L1080.91 1164.18L1558.33 1437.5L1715.18 1351.46L1238.39 1070.64Z" fill="#96CFF0"/>
<path d="M1476.68 1390.83L1080.91 1164.18L1148.19 1073.77L1578.54 1330L1476.68 1390.83Z" fill="#F88D91"/>
<path d="M1716.23 1361.04L1237.34 1078.98L1236.3 1066.48L1714.98 1346.88" fill="#666666"/>
<path d="M1714.98 1351.05L1238.39 1070.64L1148.19 1073.77L1578.54 1330L1714.98 1351.05Z" fill="#F8BDAB"/>
<path d="M1160.69 1366.04L1107.16 1335.63V1281.05L1160.69 1313.55V1366.04Z" fill="#4699D3"/>
<path d="M1160.69 1286.67L1107.16 1256.26V1201.68L1160.69 1234.18V1286.67Z" fill="#4699D3"/>
<path d="M1242.55 1413.54L1189.02 1382.92V1328.34L1242.55 1361.04V1413.54Z" fill="#4699D3"/>
<path d="M1242.55 1334.17L1189.02 1303.76V1249.18L1242.55 1281.67V1334.17Z" fill="#4699D3"/>
<path d="M1268.17 1686.24L1136.53 1605.2L1137.99 1307.09L1272.76 1388.54" fill="#E09C6B"/>
<path d="M1424.4 1598.74L1289.84 1515.83V1225.22L1427.94 1301.88" fill="#1B4581"/>
<path d="M1428.77 1598.95L1428.36 1301.67L1272.76 1387.71L1268.17 1686.24L1428.77 1598.95Z" fill="#F9B180"/>
<path d="M1428.56 1310.63L1284.63 1229.39V1213.97L1429.61 1293.96" fill="#4D4D4D"/>
<path d="M1284.63 1229.39V1213.76L1136.53 1302.3L1137.78 1318.96L1284.63 1229.39Z" fill="#666666"/>
<path d="M1357.53 1279.8L1234.22 1210.43L1139.03 1310.01L1272.55 1388.13L1357.53 1279.8Z" fill="#F88D91"/>
<path d="M1289.63 1222.3L1234.22 1210.43L1358.16 1279.8L1428.98 1301.05L1289.63 1222.3Z" fill="#F8BDAB"/>
<path d="M1426.27 1297.51L1268.8 1383.54L1358.16 1279.59L1426.27 1297.51Z" fill="#F8ADA3"/>
<path d="M1429.61 1309.59V1293.96L1271.09 1378.96L1272.13 1395.83L1429.61 1309.59Z" fill="#666666"/>
<path d="M1272.13 1396.25L1137.78 1318.13V1302.92L1273.17 1379.38" fill="#4D4D4D"/>
<path d="M1366.7 1320.99C1374.18 1317.18 1377.45 1308.6 1374 1301.84C1370.56 1295.07 1361.7 1292.68 1354.21 1296.49C1346.73 1300.3 1343.46 1308.88 1346.91 1315.65C1350.35 1322.41 1359.21 1324.81 1366.7 1320.99Z" fill="white"/>
<path d="M1360.66 1296.46L1361.28 1309.17C1360.87 1309.17 1360.66 1309.17 1360.24 1309.17C1360.45 1304.8 1360.45 1300.63 1360.66 1296.46Z" fill="#666666"/>
<path d="M1368.57 1304.8L1361.49 1310.01C1360.87 1310.01 1360.24 1309.59 1360.24 1309.17C1360.24 1308.96 1360.45 1308.76 1360.66 1308.55C1363.16 1307.09 1365.87 1305.84 1368.57 1304.8Z" fill="#666666"/>
<path d="M1164.44 1847.48L690.142 1575.62L688.892 1391.04L1166.31 1663.32" fill="#E09C6B"/>
<path d="M846.158 1296.88L688.892 1390.63L1163.19 1661.65L1316.5 1571.45L846.158 1296.88Z" fill="#96CFF0"/>
<path d="M1163.81 1662.9L689.308 1390.83L792.208 1271.26L1235.26 1532.7L1163.81 1662.9Z" fill="#F88D91"/>
<path d="M1274.01 1543.12L845.741 1297.51L792.208 1271.26L1235.26 1532.7L1274.01 1543.12Z" fill="#F8BDAB"/>
<path d="M1165.9 1674.36L687.225 1398.96V1383.54L1166.94 1657.7" fill="#4D4D4D"/>
<path d="M1714.98 1534.79L1716.02 1351.05L1163.81 1662.9L1164.23 1847.48L1714.98 1534.79Z" fill="#F9B180"/>
<path d="M1714.98 1351.05L1163.81 1662.9L1235.26 1532.7L1578.54 1330L1714.98 1351.05Z" fill="#F8ADA3"/>
<path d="M1235.26 1532.7L1239.43 1523.12L1463.14 1384.59L1575.41 1331.05L1235.26 1532.7Z" fill="#F88D91"/>
<path d="M1716.02 1361.46V1345.84L1162.77 1658.74L1163.81 1675.4L1716.02 1361.46Z" fill="#666666"/>
<path d="M1234.22 1707.69L1201.73 1726.44L1200.68 1684.78L1233.18 1666.03L1234.22 1707.69Z" fill="#96CFF0"/>
<path d="M1294.21 1674.78L1261.72 1693.53L1260.67 1651.86L1293.17 1633.11L1294.21 1674.78Z" fill="#96CFF0"/>
<path d="M1352.95 1642.28L1320.46 1661.03L1319.41 1619.36L1351.91 1600.62L1352.95 1642.28Z" fill="#96CFF0"/>
<path d="M1234.22 1778.31L1201.52 1797.06L1200.48 1755.4L1233.18 1736.65L1234.22 1778.31Z" fill="#96CFF0"/>
<path d="M1294.21 1745.4L1261.72 1764.15L1260.67 1722.48L1293.17 1703.73L1294.21 1745.4Z" fill="#96CFF0"/>
<path d="M1352.95 1712.9L1320.46 1731.65L1319.41 1689.99L1351.91 1671.24L1352.95 1712.9Z" fill="#96CFF0"/>
<path d="M1579.58 1507.7L1547.09 1526.45L1546.04 1484.79L1578.54 1466.04L1579.58 1507.7Z" fill="#96CFF0"/>
<path d="M1639.57 1475L1607.08 1493.54L1606.04 1452.08L1638.53 1433.33L1639.57 1475Z" fill="#96CFF0"/>
<path d="M1698.31 1442.29L1665.82 1461.04L1664.78 1419.37L1697.27 1400.83L1698.31 1442.29Z" fill="#96CFF0"/>
<path d="M1579.58 1578.32L1546.88 1597.07L1545.84 1555.41L1578.54 1536.66L1579.58 1578.32Z" fill="#96CFF0"/>
<path d="M1639.57 1545.62L1607.08 1564.16L1606.04 1522.49L1638.53 1503.95L1639.57 1545.62Z" fill="#96CFF0"/>
<path d="M1698.31 1512.91L1665.82 1531.66L1664.78 1490L1697.27 1471.25L1698.31 1512.91Z" fill="#96CFF0"/>
<path d="M768.046 1600.82L714.513 1570.41V1515.83L768.046 1548.33V1600.82Z" fill="#4699D3"/>
<path d="M768.046 1521.66L714.513 1491.25V1436.67L768.046 1469.16V1521.66Z" fill="#4699D3"/>
<path d="M849.907 1648.32L796.374 1617.91V1563.33L849.907 1595.82V1648.32Z" fill="#4699D3"/>
<path d="M849.907 1568.95L796.374 1538.54V1483.95L849.907 1516.45V1568.95Z" fill="#4699D3"/>
<path d="M937.185 1698.74L883.652 1668.32V1613.74L937.185 1646.24V1698.74Z" fill="#4699D3"/>
<path d="M937.185 1619.36L883.652 1588.95V1534.37L937.185 1566.87V1619.36Z" fill="#4699D3"/>
<path d="M1115.49 1798.52L1061.96 1768.11V1713.32L1115.49 1746.02V1798.52Z" fill="#4699D3"/>
<path d="M1115.49 1719.15L1061.96 1688.74V1634.16L1115.49 1666.65V1719.15Z" fill="#4699D3"/>
<path d="M1025.3 1749.15L971.763 1718.73V1664.15L1025.3 1696.65V1749.15Z" fill="#4699D3"/>
<path d="M1025.3 1669.78L971.763 1639.36V1584.78L1025.3 1617.28V1669.78Z" fill="#4699D3"/>
<path d="M1235.26 1475L1164.86 1433.96V1380.42L1236.3 1423.54L1235.26 1475Z" fill="#4699D3"/>
<path d="M1318.16 1448.75L1286.71 1467.29V1425.62L1318.16 1407.08V1448.75Z" fill="#96CFF0"/>
<path d="M1380.03 1416.04L1329.83 1444.37V1401.25L1380.03 1373.13V1416.04Z" fill="#96CFF0"/>
<path d="M1422.11 1392.92L1389.61 1411.88L1389.82 1368.75L1422.31 1350L1422.11 1392.92Z" fill="#96CFF0"/>
<path d="M1421.06 1742.69L1375.86 1716.44L1502.93 1643.95L1545 1672.28L1421.06 1742.69Z" fill="#666666"/>
<path d="M1460.64 1708.53L1459.39 1607.28C1459.39 1605.41 1457.93 1603.74 1455.43 1602.91C1450.64 1601.24 1445.23 1603.74 1445.23 1607.28L1445.44 1708.11C1445.44 1709.78 1446.69 1711.23 1448.56 1712.07L1449.39 1712.48C1454.18 1714.78 1460.64 1712.28 1460.64 1708.53Z" fill="url(#paint1_linear)"/>
<path d="M1430.65 1723.11L1429.4 1624.36C1429.4 1622.49 1427.94 1621.03 1425.44 1620.2C1420.86 1618.74 1415.44 1621.03 1415.44 1624.36L1415.86 1722.69C1415.86 1724.15 1416.9 1725.61 1418.98 1726.65L1419.82 1727.07C1424.4 1729.36 1430.65 1727.07 1430.65 1723.11Z" fill="url(#paint2_linear)"/>
<path d="M1408.78 1711.23L1407.53 1612.49C1407.53 1610.61 1406.07 1609.16 1403.57 1608.32C1398.99 1606.86 1393.57 1609.16 1393.57 1612.49L1393.99 1710.82C1393.99 1712.28 1395.03 1713.73 1397.11 1714.78L1397.94 1715.19C1402.53 1717.48 1408.78 1715.19 1408.78 1711.23Z" fill="url(#paint3_linear)"/>
<path d="M1488.55 1689.36L1487.3 1590.62C1487.3 1588.74 1485.85 1587.28 1483.35 1586.45C1478.76 1584.99 1473.35 1587.28 1473.35 1590.62L1473.76 1688.94C1473.76 1690.4 1474.81 1691.86 1476.89 1692.9L1477.72 1693.32C1482.31 1695.4 1488.55 1693.11 1488.55 1689.36Z" fill="url(#paint4_linear)"/>
<path d="M1505.22 1660.4L1503.97 1573.53C1503.97 1571.87 1502.51 1570.62 1500.43 1569.78C1496.26 1568.53 1491.26 1570.41 1491.26 1573.53L1491.68 1660.2C1491.68 1661.65 1492.72 1662.9 1494.39 1663.53L1495.22 1663.95C1499.39 1665.82 1505.22 1663.74 1505.22 1660.4Z" fill="url(#paint5_linear)"/>
<path d="M1521.88 1670.4L1520.84 1573.95C1520.84 1572.28 1519.59 1570.62 1517.51 1569.78C1513.55 1568.33 1509.18 1570.62 1509.18 1573.95L1509.59 1669.99C1509.59 1671.44 1510.63 1672.9 1512.09 1673.74L1512.93 1674.15C1516.67 1676.44 1522.09 1674.15 1521.88 1670.4Z" fill="url(#paint6_linear)"/>
<path d="M1488.31 1590.72C1493.39 1588.55 1495.94 1583.11 1494 1578.56C1492.06 1574 1486.37 1572.07 1481.29 1574.24C1476.21 1576.4 1473.66 1581.85 1475.6 1586.4C1477.54 1590.95 1483.23 1592.88 1488.31 1590.72Z" fill="#96CFF0"/>
<path d="M1525.63 1582.07L1484.39 1561.66V1551.66L1526.05 1571.87" fill="#4D4D4D"/>
<path d="M1480.22 1565.83L1446.48 1547.28L1390.65 1613.53L1423.98 1636.03L1480.22 1565.83Z" fill="#F88D91"/>
<path d="M1483.14 1554.99L1446.48 1547.28L1480.64 1565.83L1523.55 1577.7L1483.14 1554.99Z" fill="#F8BDAB"/>
<path d="M1423.56 1641.45L1389.2 1621.45V1611.45L1424.4 1630.41" fill="#4D4D4D"/>
<path d="M1523.55 1576.66L1426.06 1631.45L1479.6 1565.2L1523.55 1576.66Z" fill="#F8ADA3"/>
<path d="M1525.63 1582.07V1571.66L1422.94 1630.2L1423.56 1641.03L1525.63 1582.07Z" fill="#666666"/>
<path d="M1375.86 1716.44V1728.94L1421.07 1755.19V1742.69L1375.86 1716.44Z" fill="#4D4D4D"/>
<path d="M1421.06 1742.69V1755.19L1545 1684.99V1672.28L1421.06 1742.69Z" fill="#808080"/>
</g>
<g clip-path="url(#clip7)">
<path d="M2440.96 1091.24L2433.98 1095.15L2498.92 1131.97V1122.5L2440.96 1091.24Z" fill="#E6E7E8"/>
<path d="M2590.58 1084.04L2532 1117.77L2532.83 1128.88L2599.21 1090.42L2590.58 1084.04Z" fill="#D0D2D3"/>
<path d="M2289.5 640.967L2464.6 742.17V1180.92L2289.5 1079.72V640.967Z" fill="white"/>
<path d="M2303.27 670.382L2337.39 690.129L2337.18 809.022L2303.07 789.275L2303.27 670.382Z" fill="#2589BC"/>
<path d="M2347.87 695.477L2387.74 718.721L2387.33 837.614L2347.46 814.576L2347.87 695.477Z" fill="#2589BC"/>
<path d="M2400.68 724.892L2450.62 753.278L2450.83 868.879L2400.68 840.493V724.892Z" fill="#2589BC"/>
<path d="M2303.48 805.937L2337.39 825.683L2337.18 944.576L2303.27 924.829L2303.48 805.937Z" fill="#2589BC"/>
<path d="M2348.07 831.032L2387.94 854.275L2387.53 973.168L2347.46 950.13L2348.07 831.032Z" fill="#2589BC"/>
<path d="M2400.89 860.446L2450.83 888.832V1004.43L2400.89 976.048V860.446Z" fill="#2589BC"/>
<path d="M2303.48 944.576L2337.39 964.529L2337.18 1083.42L2303.27 1063.47L2303.48 944.576Z" fill="#2589BC"/>
<path d="M2348.07 969.877L2387.94 992.915L2387.53 1112.01L2347.46 1088.77L2348.07 969.877Z" fill="#2589BC"/>
<path d="M2400.89 999.085L2450.83 1027.47V1143.28L2400.89 1114.89V999.085Z" fill="#2589BC"/>
<path d="M2464.6 742.17L2990.09 438.562L2993.38 875.256L2464.6 1180.92V742.17Z" fill="#F1F1F2"/>
<path d="M2471.17 752.661L2522.55 723.452L2522.96 839.259L2471.79 868.879L2471.17 752.661Z" fill="#2895CD"/>
<path d="M2473.43 888.832L2524.61 859.624L2525.22 975.637L2474.05 1005.26L2473.43 888.832Z" fill="#2895CD"/>
<path d="M2476.31 1024.59L2527.48 995.384L2528.1 1111.19L2476.72 1140.81L2476.31 1024.59Z" fill="#2895CD"/>
<path d="M2536.94 727.566L2995.02 459.543L3013.31 473.53L2554.82 741.759L2536.94 727.566Z" fill="#D0D2D3"/>
<path d="M2535.91 726.949L2545.36 1144.51L2562.63 1155.21L2555.23 739.496" fill="#D0D2D3"/>
<path d="M2900.07 960.003L3020.5 891.095L3015.36 472.296L2556.67 740.73L2562.63 1155.21L2622.22 1121.68L2620.99 893.357L2897.61 732.091L2900.07 960.003Z" fill="#F7ADA3"/>
<path d="M2400.68 724.892L2406.23 727.977V837.613L2400.68 840.493V724.892Z" fill="#E6E7E8"/>
<path d="M2400.68 860.446L2406.23 863.531V973.168L2400.68 976.048V860.446Z" fill="#E6E7E8"/>
<path d="M2400.68 999.085L2406.23 1002.17V1112.01L2400.68 1114.89V999.085Z" fill="#E6E7E8"/>
<path d="M2347.87 969.877L2353.42 973.168V1085.89L2347.46 1088.77L2347.87 969.877Z" fill="#E6E7E8"/>
<path d="M2347.87 831.443L2353.42 834.734V947.456L2347.46 950.336L2347.87 831.443Z" fill="#E6E7E8"/>
<path d="M2347.87 695.477L2353.42 698.768V811.49L2347.46 814.576L2347.87 695.477Z" fill="#E6E7E8"/>
<path d="M2303.27 805.937L2309.03 809.228V921.95L2303.07 925.035L2303.27 805.937Z" fill="#E6E7E8"/>
<path d="M2303.27 944.576L2309.03 947.867V1060.59L2303.07 1063.67L2303.27 944.576Z" fill="#E6E7E8"/>
<path d="M2303.07 670.176L2308.82 673.467V786.189L2302.86 789.069L2303.07 670.176Z" fill="#E6E7E8"/>
<path d="M2353.42 1085.89L2347.46 1088.77L2387.53 1112.01V1105.02L2353.42 1085.89Z" fill="#E6E7E8"/>
<path d="M2353.42 947.045L2347.46 950.13L2387.53 973.168V966.175L2353.42 947.045Z" fill="#E6E7E8"/>
<path d="M2353.42 811.49L2347.46 814.576L2387.53 837.614V830.62L2353.42 811.49Z" fill="#E6E7E8"/>
<path d="M2406.23 973.167L2400.68 976.047L2450.83 1004.43V997.234L2406.23 973.167Z" fill="#E6E7E8"/>
<path d="M2406.23 837.613L2400.89 840.493L2450.83 868.879V861.68L2406.23 837.613Z" fill="#E6E7E8"/>
<path d="M2308.82 786.189L2302.86 789.069L2337.18 809.022V802.028L2308.82 786.189Z" fill="#E6E7E8"/>
<path d="M2309.03 921.743L2303.07 924.829L2337.39 944.781V937.582L2309.03 921.743Z" fill="#E6E7E8"/>
<path d="M2309.03 1060.38L2303.07 1063.47L2337.39 1083.42V1076.22L2309.03 1060.38Z" fill="#E6E7E8"/>
<path d="M2522.55 723.452L2516.39 726.743V834.322L2522.96 839.259L2522.55 723.452Z" fill="#D0D2D3"/>
<path d="M2524.61 859.624L2518.65 863.12V970.494L2525.22 975.637L2524.61 859.624Z" fill="#D0D2D3"/>
<path d="M2527.48 995.384L2521.32 998.881V1106.25L2528.1 1111.19L2527.48 995.384Z" fill="#D0D2D3"/>
<path d="M2518.65 970.494L2473.43 996.618L2474.05 1005.26L2525.22 975.637L2518.65 970.494Z" fill="#D0D2D3"/>
<path d="M2516.39 834.322L2471.17 860.446L2471.79 868.879L2522.96 839.259L2516.39 834.322Z" fill="#D0D2D3"/>
<path d="M2633.12 917.218L2684.29 888.009L2685.32 1047.22L2634.14 1076.84L2633.12 917.218Z" fill="#2895CD"/>
<path d="M2678.74 1042.28L2633.53 1068.41L2634.14 1076.84L2685.32 1047.22L2678.74 1042.28Z" fill="#D0D2D3"/>
<path d="M2684.29 888.009L2678.12 891.506L2678.74 1042.28L2685.32 1047.22L2684.29 888.009Z" fill="#D0D2D3"/>
<path d="M2808.01 820.335L2859.18 791.126L2860 947.661L2808.83 977.282L2808.01 820.335Z" fill="#2895CD"/>
<path d="M2853.63 942.931L2808.83 968.643V977.282L2860 947.662L2853.63 942.931Z" fill="#D0D2D3"/>
<path d="M2859.18 791.332L2853.01 794.828L2853.63 942.93L2860 947.661L2859.18 791.332Z" fill="#D0D2D3"/>
<path d="M2706.69 875.05L2787.45 829.18L2789.71 990.446L2706.69 1038.78" fill="#2895CD"/>
<path d="M2752.31 847.487L2753.75 1004.02" stroke="white" stroke-width="0.7699" stroke-miterlimit="10"/>
<path d="M2783.14 984.687L2706.48 1028.71L2706.69 1038.79L2789.71 990.447L2783.14 984.687Z" fill="#D0D2D3"/>
<path d="M2787.45 829.18L2780.88 832.677L2783.14 984.686L2789.71 990.446L2787.45 829.18Z" fill="#D0D2D3"/>
<path d="M2897.61 732.091L2871.3 747.313L2874.18 945.193L2900.07 960.004L2897.61 732.091Z" fill="#D0D2D3"/>
<path d="M2904.8 655.16C2912.61 620.192 2937.89 596.125 2961.32 601.473C2984.54 606.821 2997.07 639.322 2989.26 674.29C2981.46 709.258 2956.18 733.325 2932.75 727.977C2909.53 722.629 2896.99 689.923 2904.8 655.16Z" fill="#D0D2D3"/>
<path d="M2936.04 643.435L2958.85 630.682V650.018L2978.17 639.116V661.125L2961.73 669.97L2961.93 686.837L2939.74 698.768L2939.53 681.695L2916.51 693.625L2916.1 672.85L2936.45 661.742L2936.04 643.435Z" fill="#F7ADA3"/>
<path d="M2470.35 761.711L2471.79 720.366L2290.74 617.724L2289.5 660.303" fill="white"/>
<path d="M2290.74 617.724L2834.1 299.922L3019.27 404.827L2471.79 720.366L2290.74 617.724Z" fill="#F7ADA3"/>
<path d="M2471.38 720.366L2469.94 761.712L3019.27 444.938V404.622L2471.38 720.366Z" fill="#E6E7E8"/>
<path d="M2337.39 613.404L2833.9 320.492L2981.46 404.827L2478.16 695.477L2337.39 613.404Z" fill="#E6E7E8"/>
<path d="M2833.9 320.492V344.97L2960.9 416.758L2981.46 404.827L2833.9 320.492Z" fill="#D0D2D3"/>
<path d="M2833.9 320.492V344.97L2356.09 624.1L2337.39 613.404L2833.9 320.492Z" fill="#D0D2D3"/>
<path d="M2618.52 771.174L2688.19 731.269V795.652L2618.52 836.174V771.174Z" fill="#2895CD"/>
<path d="M2688.19 731.063L2682.23 734.56L2682.44 791.332L2688.19 795.857" fill="#D0D2D3"/>
<path d="M2682.44 791.332L2618.52 828.563L2618.32 836.585L2688.19 795.651L2682.44 791.332Z" fill="#D0D2D3"/>
<path d="M2695.8 725.92L2765.46 685.81L2765.67 750.398L2695.8 790.921V725.92Z" fill="#2895CD"/>
<path d="M2765.67 685.81L2759.71 689.306V746.079L2765.67 750.604" fill="#D0D2D3"/>
<path d="M2759.71 746.078L2695.8 783.309V791.331L2765.67 750.398L2759.71 746.078Z" fill="#D0D2D3"/>
<path d="M2773.48 682.93L2843.15 642.819L2843.35 707.408L2773.68 747.93L2773.48 682.93Z" fill="#2895CD"/>
<path d="M2843.35 642.819L2837.39 646.316L2837.6 703.088L2843.35 707.613" fill="#D0D2D3"/>
<path d="M2837.6 703.088L2773.48 740.319V748.341L2843.35 707.408L2837.6 703.088Z" fill="#D0D2D3"/>
</g>
<g clip-path="url(#clip8)">
<path d="M2632.59 2178.93C2552.88 2145.11 2464.52 2102.27 2371.66 2048.16C2282.73 1996.3 2205.09 1943.13 2138.36 1892.78C2138.36 1901.23 2138.36 1909.69 2138.36 1918.14C2206.03 1967.18 2282.55 2017.91 2368.08 2067.89C2461.33 2122.19 2550.44 2166.72 2632.59 2203.36C2632.59 2195.09 2632.59 2187.01 2632.59 2178.93Z" fill="#FCB017"/>
<path d="M2140.61 1894.66C2091.74 1931.29 2034.59 1970.19 1968.6 2007.58C1908.44 2041.77 1851.11 2069.21 1798.84 2091.19C1798.84 2099.27 1798.84 2107.35 1798.84 2115.43C1853.36 2090.25 1911.45 2060.75 1971.98 2025.99C2034.21 1990.29 2090.42 1954.03 2140.61 1918.71C2140.61 1910.81 2140.61 1902.74 2140.61 1894.66Z" fill="#FFDF3F"/>
<path d="M2138.55 1966.43L2133.85 1964.18V1887.52L2138.36 1890.15" fill="#603813"/>
<path d="M2143.06 1962.86V1887.52L2138.36 1890.15L2138.54 1966.43L2143.06 1962.86Z" fill="#8C6239"/>
<path d="M2143.06 1887.52L2138.36 1890.15L2133.85 1887.52L2138.36 1884.7L2143.06 1887.52Z" fill="#C69C6D"/>
<path d="M2522.8 2235.49L2174.83 2035.39L1962.21 2158.83L2309.05 2359.12L2522.8 2235.49Z" fill="#2E1606"/>
<path d="M2309.05 2359.12L1962.02 2159.02L1883.44 2135.91L2309.99 2382.23L2309.05 2359.12Z" fill="#42210B"/>
<path d="M2522.8 2235.49L2309.05 2359.12L2309.99 2382.23L2598.37 2214.63L2522.8 2235.49Z" fill="#754C24"/>
<path d="M2172.76 1969.44L1883.44 2135.91L1962.02 2159.02L2174.83 2035.39L2172.76 1969.44Z" fill="#603813"/>
<path d="M2598.37 2214.63L2172.76 1969.44L2174.83 2035.39L2522.8 2235.49L2598.37 2214.63Z" fill="#42210B"/>
<path d="M2492.53 2074.65L2173.89 1892.59V1901.04L2492.53 2084.05V2074.65Z" fill="#E6E6E6"/>
<path d="M2179.15 1890.15L1993.6 1997.06V2005.51L2178.02 1900.67L2179.15 1890.15Z" fill="#E6E6E6"/>
<path d="M1986.27 2001.19L1993.6 2005.51V1997.06L1986.27 2001.19Z" fill="#E6E6E6"/>
<path d="M2500.99 2079.35L2492.53 2084.24V2074.47L2500.99 2079.35Z" fill="#E6E6E6"/>
<path d="M2492.35 1896.16L2173.7 1714.09V1722.55L2492.35 1905.55V1896.16Z" fill="#E6E6E6"/>
<path d="M2178.96 1711.65L1993.42 1818.56V1827.02L2178.02 1722.17L2178.96 1711.65Z" fill="#E6E6E6"/>
<path d="M1986.08 1822.69L1993.42 1827.02V1818.37L1986.08 1822.69Z" fill="#E6E6E6"/>
<path d="M2500.81 1900.86L2492.35 1905.55V1895.97L2500.81 1900.86Z" fill="#E6E6E6"/>
<path d="M2174.83 1722.74L2000.75 1822.69V1913.45L2174.83 1812.17V1722.74Z" fill="#CCCCCC"/>
<path d="M2174.83 1900.86L2000.75 2001.38V2091L2174.83 1991.98V1900.86Z" fill="#CCCCCC"/>
<path d="M2484.07 1900.29L2174.83 1723.3V1814.43L2484.07 1991.42V1900.29Z" fill="#999999"/>
<path d="M2484.07 2080.48L2174.83 1901.23V1992.55L2484.07 2168.41V2080.48Z" fill="#999999"/>
<path d="M2175.77 2080.48L2156.03 2069.02V1644.58L2174.83 1656.22" fill="#666666"/>
<path d="M2194.75 2069.02V1644.58L2174.83 1656.22L2175.77 2080.48L2194.75 2069.02Z" fill="#808080"/>
<path d="M2194.75 1644.58L2174.83 1656.22L2156.03 1644.58L2174.83 1633.11L2194.75 1644.58Z" fill="#B3B3B3"/>
<path d="M2272.21 2135.91L2252.47 2124.45V1700.19L2272.21 1711.65" fill="#666666"/>
<path d="M2291.19 2124.45V1700.19L2272.21 1711.65V2135.91L2291.19 2124.45Z" fill="#808080"/>
<path d="M2291.19 1700.19L2272.21 1711.65L2252.47 1700.19L2272.21 1689.67L2291.19 1700.19Z" fill="#B3B3B3"/>
<path d="M2368.65 2191.52L2349.85 2181V1755.62L2368.65 1767.27" fill="#666666"/>
<path d="M2387.63 2180.06V1755.62L2368.65 1767.27V2191.52L2387.63 2180.06Z" fill="#808080"/>
<path d="M2387.63 1755.62L2368.65 1767.27L2349.85 1755.62L2368.65 1745.28L2387.63 1755.62Z" fill="#B3B3B3"/>
<path d="M2465.09 2247.51L2445.16 2235.87L2446.29 1812.17L2465.09 1822.7" fill="#666666"/>
<path d="M2484.07 2235.87L2485.01 1812.17L2465.09 1822.7V2247.51L2484.07 2235.87Z" fill="#808080"/>
<path d="M2485.01 1812.17L2465.09 1822.7L2446.29 1812.17L2465.09 1800.71L2485.01 1812.17Z" fill="#B3B3B3"/>
<path d="M2485.01 2169.54L2387.63 2112.98L2368.65 2124.45L2349.85 2112.98V2091.94L2291.19 2057.37L2272.21 2069.02L2252.47 2057.37V2035.39L2194.75 2001.94L2174.83 2013.4L2156.97 2000.81L2000.75 2091L2311.12 2270.06L2485.01 2169.54Z" fill="#001D55"/>
<path d="M2484.64 1968.69L2387.63 1911.75L2368.65 1923.4L2349.85 1912.88V1889.77L2291.19 1856.33L2272.21 1867.79L2252.47 1856.33V1834.34L2194.75 1800.71L2174.83 1812.17L2156.03 1800.71L2001.31 1890.15L2311.69 2069.39L2484.64 1968.69Z" fill="#001D55"/>
<path d="M2220.89 1867.22L2195.32 1852.38V1821.94L2220.89 1837.35V1867.22Z" fill="#603813"/>
<path d="M2195.32 1851.82L2160.35 1872.3V1841.67L2195.32 1822.13V1851.82Z" fill="#754C24"/>
<path d="M2186.48 1886.77L2160.35 1871.92V1841.67L2186.48 1855.95V1886.77Z" fill="#8C6239"/>
<path d="M2220.89 1867.22L2186.48 1886.58V1856.33L2220.89 1836.97V1867.22Z" fill="#A67C52"/>
<path d="M2195.32 1822.13L2160.35 1841.67L2144.94 1836.04L2180.47 1816.49L2195.32 1822.13Z" fill="#C69C6D"/>
<path d="M2220.51 1836.97L2186.48 1856.14L2174.26 1848.62L2206.97 1830.4L2220.51 1836.97Z" fill="#C69C6D"/>
<path opacity="0.68" d="M2173.89 1863.47L2170.69 1861.4V1847.12L2173.89 1849V1863.47Z" fill="#FCB017"/>
<path opacity="0.68" d="M2175.77 1849.56L2174.26 1848.62L2206.97 1830.4L2208.29 1831.34L2175.77 1849.56Z" fill="#FCB017"/>
<path d="M2021.8 2169.54L2001.88 2158.08L2000.75 1733.63L2020.67 1745.28" fill="#666666"/>
<path d="M2040.6 2158.08L2039.66 1733.63L2020.67 1745.28L2021.8 2169.54L2040.6 2158.08Z" fill="#808080"/>
<path d="M2039.66 1733.63L2020.67 1745.28L2000.75 1733.63L2020.67 1723.3L2039.66 1733.63Z" fill="#B3B3B3"/>
<path d="M2213.55 2280.58L2194.75 2269.68V1845.81L2213.55 1856.33" fill="#666666"/>
<path d="M2233.48 2270.06V1845.81L2213.55 1856.33V2280.58L2233.48 2270.06Z" fill="#808080"/>
<path d="M2233.48 1845.81L2213.55 1856.33L2194.75 1845.81L2213.55 1834.34L2233.48 1845.81Z" fill="#B3B3B3"/>
<path d="M2311.12 2336.76L2291.19 2325.3V1901.23L2311.12 1912.88" fill="#666666"/>
<path d="M2329.92 2325.3V1901.23L2311.12 1912.88V2336.76L2329.92 2325.3Z" fill="#808080"/>
<path d="M2329.92 1901.23L2311.12 1912.88L2291.19 1901.23L2311.12 1889.77L2329.92 1901.23Z" fill="#B3B3B3"/>
<path d="M2117.11 2224.59L2097.19 2213.51L2098.31 1790.19L2117.11 1800.71" fill="#666666"/>
<path d="M2136.1 2213.51V1789.25L2117.11 1800.71V2224.59L2136.1 2213.51Z" fill="#808080"/>
<path d="M2136.1 1789.81L2117.11 1800.71L2098.32 1790.19L2117.11 1778.73L2136.1 1789.81Z" fill="#B3B3B3"/>
<path d="M2485.01 1900.29L2311.12 2001.94V2091.94L2485.01 1991.42V1900.29Z" fill="#CCCCCC"/>
<path d="M2485.01 2079.35L2309.99 2181L2311.12 2270.06L2485.01 2170.48V2079.35Z" fill="#CCCCCC"/>
<path d="M2311.12 2001.94L2000.75 1822.69V1913.82L2311.12 2091.94V2001.94Z" fill="#B3B3B3"/>
<path d="M2311.12 2180.06L2000.75 2000.81V2091L2311.12 2270.06V2180.06Z" fill="#B3B3B3"/>
<path d="M2311.12 2009.83L1986.08 1822.32V1913.45L2311.12 2100.02V2009.83Z" fill="#B3B3B3"/>
<path d="M2311.12 2001.94L2000.75 1822.7L1992.48 1825.89L2311.12 2010.21V2001.94Z" fill="#E6E6E6"/>
<path d="M2500.81 1900.86L2311.12 2010.21V2100.4L2500.81 1991.98V1900.86Z" fill="#CCCCCC"/>
<path d="M2485.01 1900.29L2311.12 2001.94V2010.21L2492.35 1905.55L2485.01 1900.29Z" fill="#E6E6E6"/>
<path d="M2311.12 2187.76L1986.08 2000.25V2091.38L2311.12 2277.95V2187.76Z" fill="#B3B3B3"/>
<path d="M2311.12 2179.69L2000.75 2000.63L1992.48 2003.82L2311.12 2188.14V2179.69Z" fill="#E6E6E6"/>
<path d="M2500.81 2078.41L2311.12 2187.77V2277.95L2500.81 2169.54V2078.41Z" fill="#CCCCCC"/>
<path d="M2485.01 2077.85L2311.12 2179.5V2187.77L2492.35 2083.11L2485.01 2077.85Z" fill="#E6E6E6"/>
<path d="M1802.42 2163.53L1797.72 2161.27V2084.61L1802.23 2087.24" fill="#603813"/>
<path d="M1806.93 2160.15V2084.61L1802.23 2087.24L1802.42 2163.53L1806.93 2160.15Z" fill="#8C6239"/>
<path d="M1806.93 2084.61L1802.23 2087.24L1797.72 2084.61L1802.23 2081.79L1806.93 2084.61Z" fill="#C69C6D"/>
<path d="M2291.76 2446.11L2287.25 2443.67V2367.2L2291.76 2369.83" fill="#603813"/>
<path d="M2296.46 2442.54V2367.2L2291.76 2369.83V2446.11L2296.46 2442.54Z" fill="#8C6239"/>
<path d="M2296.46 2367.2L2291.76 2369.83L2287.25 2367.2L2291.76 2364.38L2296.46 2367.2Z" fill="#C69C6D"/>
<path d="M2627.89 2253.34L2623.19 2251.08V2174.42L2627.7 2177.05" fill="#603813"/>
<path d="M2632.59 2249.96V2174.42L2627.7 2177.05L2627.89 2253.34L2632.59 2249.96Z" fill="#8C6239"/>
<path d="M2632.59 2174.42L2627.7 2177.05L2623.19 2174.42L2627.7 2171.61L2632.59 2174.42Z" fill="#C69C6D"/>
<path d="M2290.82 2373.59C2203.97 2333.94 2110.35 2286.03 2012.59 2228.16C1933.45 2181.38 1861.45 2133.84 1796.59 2087.43C1796.59 2095.89 1796.59 2104.34 1796.59 2112.8C1862.39 2158.64 1934.2 2205.24 2012.59 2251.27C2109.78 2308.58 2203.4 2356.87 2290.82 2397.83C2290.82 2389.75 2290.82 2381.67 2290.82 2373.59Z" fill="#FCB017"/>
<path d="M2632.59 2176.87C2595.55 2210.69 2547.8 2248.83 2488.21 2284.72C2414.71 2329.06 2345.71 2356.3 2290.82 2373.59C2290.82 2381.67 2290.82 2389.75 2290.82 2397.83C2347.03 2379.04 2415.46 2350.48 2488.21 2306.7C2546.49 2271.56 2594.43 2234.74 2632.59 2201.1C2632.59 2193.03 2632.59 2184.95 2632.59 2176.87Z" fill="#FFDF3F"/>
<path d="M1818.96 2117.68C1818.96 2115.05 1821.97 2114.11 1825.54 2115.62C1827.23 2116.37 1828.73 2117.49 1829.86 2119L1828.73 2119.75C1827.79 2118.62 1826.67 2117.68 1825.54 2117.31C1823.28 2116.37 1821.03 2116.93 1821.03 2118.81C1821.03 2120.69 1823.28 2123.13 1825.54 2124.07C1826.85 2124.63 1827.98 2124.63 1828.73 2124.45L1829.86 2126.14C1828.73 2126.51 1827.42 2126.51 1825.54 2125.57C1821.97 2123.88 1818.96 2120.31 1818.96 2117.68Z" fill="black"/>
<path d="M1840.2 2133.09L1834.19 2130.46L1833.25 2131.59L1831.18 2130.65L1837.19 2123.69H1837.38L1843.21 2135.91L1841.14 2134.97L1840.2 2133.09ZM1839.45 2131.59L1837.19 2126.89L1834.94 2129.52L1839.45 2131.59Z" fill="black"/>
<path d="M1845.47 2137.03V2131.21L1847.53 2132.15V2137.97C1847.53 2139.29 1848.66 2140.79 1850.35 2141.36C1851.86 2142.11 1853.17 2141.54 1853.17 2140.23V2134.4L1855.24 2135.34V2141.17C1855.24 2143.42 1853.17 2143.99 1850.54 2142.86C1847.53 2141.73 1845.47 2139.29 1845.47 2137.03Z" fill="black"/>
<path d="M1867.27 2144.74L1863.89 2143.24V2151.13L1861.82 2150.19V2142.3L1858.44 2140.79V2139.29L1867.08 2143.05L1867.27 2144.74Z" fill="black"/>
<path d="M1870.09 2146.24L1872.16 2147.18V2156.58L1870.09 2155.64V2146.24Z" fill="black"/>
<path d="M1876.11 2156.2C1876.11 2153.57 1879.12 2152.63 1882.69 2154.13C1886.26 2155.64 1889.27 2159.21 1889.27 2161.84C1889.27 2164.47 1886.26 2165.41 1882.69 2163.9C1879.12 2162.21 1876.11 2158.83 1876.11 2156.2ZM1887.2 2160.9C1887.2 2159.02 1885.13 2156.58 1882.69 2155.64C1880.24 2154.51 1878.18 2155.26 1878.18 2157.14C1878.18 2159.02 1880.24 2161.46 1882.69 2162.4C1885.13 2163.34 1887.2 2162.78 1887.2 2160.9Z" fill="black"/>
<path d="M1902.43 2165.59V2175.18L1894.34 2165.41V2171.61L1892.28 2170.67V2161.08H1892.46L1900.55 2170.85V2164.65L1902.43 2165.59Z" fill="black"/>
<path d="M1957.51 2208.81C1957.51 2206.18 1960.52 2205.24 1964.09 2206.74C1965.78 2207.49 1967.28 2208.62 1968.41 2210.12L1967.28 2210.88C1966.34 2209.75 1965.22 2208.81 1964.09 2208.43C1961.83 2207.49 1959.58 2208.06 1959.58 2209.94C1959.58 2211.81 1961.83 2214.26 1964.09 2215.2C1965.4 2215.76 1966.53 2215.76 1967.28 2215.57L1968.41 2217.26C1967.28 2217.64 1965.97 2217.64 1964.09 2216.7C1960.52 2214.82 1957.51 2211.44 1957.51 2208.81Z" fill="black"/>
<path d="M1978.75 2223.09L1972.74 2220.46L1971.8 2221.59L1969.73 2220.65L1975.74 2213.69H1975.93L1981.76 2225.91L1979.69 2224.97L1978.75 2223.09ZM1978 2221.4L1975.74 2216.7L1973.49 2219.33L1978 2221.4Z" fill="black"/>
<path d="M1984.02 2225.91V2220.08L1986.08 2221.02V2226.85C1986.08 2228.16 1987.21 2229.66 1988.9 2230.23C1990.41 2230.98 1991.72 2230.42 1991.72 2229.1V2223.28L1993.79 2224.22V2230.04C1993.79 2232.29 1991.72 2232.86 1989.09 2231.73C1986.08 2230.42 1984.02 2227.97 1984.02 2225.91Z" fill="black"/>
<path d="M2005.82 2232.29L2002.44 2230.79V2238.68L2000.37 2237.74V2229.85L1996.99 2228.35V2226.85L2005.63 2230.6L2005.82 2232.29Z" fill="black"/>
<path d="M2009.77 2233.8L2011.84 2234.74V2244.13L2009.77 2243.19V2233.8Z" fill="black"/>
<path d="M2017.1 2243.76C2017.1 2241.13 2020.11 2240.19 2023.68 2241.69C2027.25 2243.19 2030.26 2246.76 2030.26 2249.39C2030.26 2252.02 2027.25 2252.96 2023.68 2251.46C2019.92 2249.77 2017.1 2246.39 2017.1 2243.76ZM2028.01 2248.45C2028.01 2246.57 2025.94 2244.13 2023.49 2243.19C2021.05 2242.07 2018.98 2242.82 2018.98 2244.7C2018.98 2246.57 2021.05 2249.02 2023.49 2249.96C2025.94 2250.9 2028.01 2250.33 2028.01 2248.45Z" fill="black"/>
<path d="M2043.05 2251.46V2261.04L2034.96 2251.27V2257.47L2032.89 2256.53V2246.95H2033.08L2041.17 2256.72V2250.52L2043.05 2251.46Z" fill="black"/>
<path d="M2100.95 2290.35C2100.95 2287.72 2103.95 2286.78 2107.53 2288.29C2109.22 2289.04 2110.72 2290.16 2111.85 2291.67L2110.72 2292.42C2109.78 2291.29 2108.65 2290.35 2107.53 2289.98C2105.27 2289.04 2103.01 2289.6 2103.01 2291.48C2103.01 2293.36 2105.27 2295.8 2107.53 2296.74C2108.84 2297.3 2109.97 2297.3 2110.72 2297.12L2111.85 2298.81C2110.72 2299.18 2109.41 2299.18 2107.53 2298.24C2103.95 2296.55 2100.95 2293.17 2100.95 2290.35Z" fill="black"/>
<path d="M2122.19 2304.82L2116.17 2302.19L2115.23 2303.32L2113.17 2302.38L2119.18 2295.43H2119.37L2125.2 2307.64L2123.13 2306.7L2122.19 2304.82ZM2121.44 2303.13L2119.18 2298.43L2116.93 2301.06L2121.44 2303.13Z" fill="black"/>
<path d="M2128.58 2307.64V2301.81L2130.65 2302.75V2308.58C2130.65 2309.89 2131.78 2311.4 2133.47 2311.96C2134.97 2312.71 2136.29 2312.15 2136.29 2310.83V2305.01L2138.36 2305.95V2311.77C2138.36 2314.03 2136.29 2314.59 2133.66 2313.46C2130.65 2312.15 2128.58 2309.71 2128.58 2307.64Z" fill="black"/>
<path d="M2150.39 2314.03L2147 2312.52V2320.42L2144.94 2319.48V2311.58L2141.55 2310.08V2308.58L2150.2 2312.34L2150.39 2314.03Z" fill="black"/>
<path d="M2154.34 2315.53L2156.4 2316.47V2325.86L2154.34 2324.92V2315.53Z" fill="black"/>
<path d="M2160.54 2324.17C2160.54 2321.54 2163.55 2320.6 2167.12 2322.11C2170.69 2323.61 2173.7 2327.18 2173.7 2329.81C2173.7 2332.44 2170.69 2333.38 2167.12 2331.88C2163.36 2330.37 2160.54 2326.99 2160.54 2324.17ZM2171.44 2329.06C2171.44 2327.18 2169.38 2324.74 2166.93 2323.8C2164.49 2322.67 2162.42 2323.42 2162.42 2325.3C2162.42 2327.18 2164.49 2329.62 2166.93 2330.56C2169.38 2331.5 2171.44 2330.94 2171.44 2329.06Z" fill="black"/>
<path d="M2186.67 2331.5V2341.08L2178.59 2331.31V2337.51L2176.52 2336.57V2326.99H2176.71L2184.79 2336.76V2330.56L2186.67 2331.5Z" fill="black"/>
<path d="M2249.84 2368.14C2249.84 2365.51 2252.84 2364.57 2256.42 2366.07C2258.11 2366.82 2259.61 2367.95 2260.74 2369.45L2259.61 2370.21C2258.67 2369.08 2257.54 2368.14 2256.42 2367.76C2254.16 2366.82 2251.9 2367.39 2251.9 2369.27C2251.9 2371.15 2254.16 2373.59 2256.42 2374.53C2257.73 2375.09 2258.86 2375.09 2259.61 2374.9L2260.74 2376.59C2259.61 2376.97 2258.3 2376.97 2256.42 2376.03C2252.66 2374.15 2249.84 2370.77 2249.84 2368.14Z" fill="black"/>
<path d="M2271.27 2380.92L2265.25 2378.29L2264.31 2379.41L2262.24 2378.47L2268.26 2371.52H2268.45L2274.28 2383.73L2272.21 2382.79L2271.27 2380.92ZM2270.52 2379.22L2268.26 2374.53L2266 2377.16L2270.52 2379.22Z" fill="black"/>
<path d="M2277.66 2382.42V2376.59L2279.73 2377.53V2383.36C2279.73 2384.67 2280.86 2386.18 2282.55 2386.74C2284.05 2387.49 2285.37 2386.93 2285.37 2385.61V2379.79L2287.43 2380.73V2386.55C2287.43 2388.81 2285.37 2389.37 2282.73 2388.24C2279.73 2387.12 2277.66 2384.67 2277.66 2382.42Z" fill="black"/>
<path d="M2301.72 2378.85L2298.34 2380.35V2388.24L2296.27 2389.18V2381.29L2292.89 2382.79V2381.29L2301.72 2377.53V2378.85Z" fill="black"/>
<path d="M2305.48 2376.59L2307.55 2375.65V2385.05L2305.48 2385.99V2376.59Z" fill="black"/>
<path d="M2311.69 2379.79C2311.69 2377.16 2314.69 2373.59 2318.27 2372.09C2321.84 2370.58 2324.85 2371.52 2324.85 2374.15C2324.85 2376.78 2321.84 2380.35 2318.27 2381.86C2314.51 2383.36 2311.69 2382.42 2311.69 2379.79ZM2322.59 2374.9C2322.59 2373.02 2320.52 2372.46 2318.08 2373.4C2315.63 2374.53 2313.57 2376.78 2313.57 2378.66C2313.57 2380.54 2315.63 2381.1 2318.08 2380.16C2320.71 2379.22 2322.59 2376.78 2322.59 2374.9Z" fill="black"/>
<path d="M2337.82 2364.19V2373.78L2329.73 2370.96V2377.16L2327.67 2378.1V2368.51H2327.85L2335.94 2371.33V2365.13L2337.82 2364.19Z" fill="black"/>
<path d="M2394.97 2346.16C2394.97 2343.53 2397.97 2339.96 2401.55 2338.45C2403.24 2337.7 2404.74 2337.7 2405.87 2338.08L2404.74 2339.77C2403.8 2339.58 2402.67 2339.58 2401.55 2340.14C2399.29 2341.08 2397.03 2343.53 2397.03 2345.4C2397.03 2347.28 2399.29 2347.85 2401.55 2346.91C2402.86 2346.34 2403.99 2345.4 2404.74 2344.28L2405.87 2345.03C2404.74 2346.34 2403.43 2347.47 2401.55 2348.41C2397.97 2349.73 2394.97 2348.79 2394.97 2346.16Z" fill="black"/>
<path d="M2416.21 2339.2L2410.19 2341.83L2409.25 2343.71L2407.19 2344.65L2413.2 2332.44H2413.39L2419.22 2339.58L2417.15 2340.52L2416.21 2339.2ZM2415.46 2338.26L2413.2 2335.45L2410.95 2340.14L2415.46 2338.26Z" fill="black"/>
<path d="M2420.72 2334.69V2328.87L2422.79 2327.93V2333.75C2422.79 2335.07 2424.1 2335.45 2425.61 2334.88C2427.11 2334.13 2428.43 2332.82 2428.43 2331.5V2325.68L2430.5 2324.74V2330.56C2430.5 2332.82 2428.43 2335.26 2425.8 2336.39C2422.79 2337.7 2420.72 2336.95 2420.72 2334.69Z" fill="black"/>
<path d="M2442.15 2320.6L2438.77 2322.11V2330L2436.7 2330.94V2323.05L2433.32 2324.55V2323.05L2442.15 2319.29V2320.6Z" fill="black"/>
<path d="M2445.91 2316.28L2447.98 2315.34V2324.74L2445.91 2325.68V2316.28Z" fill="black"/>
<path d="M2452.12 2317.03C2452.12 2314.4 2455.12 2310.83 2458.7 2309.33C2462.27 2307.83 2465.28 2308.77 2465.28 2311.4C2465.28 2314.03 2462.27 2317.6 2458.7 2319.1C2454.94 2320.6 2452.12 2319.66 2452.12 2317.03ZM2463.02 2312.15C2463.02 2310.27 2460.95 2309.71 2458.51 2310.64C2456.06 2311.77 2454 2314.03 2454 2315.91C2454 2317.78 2456.06 2318.35 2458.51 2317.41C2461.14 2316.47 2463.02 2314.03 2463.02 2312.15Z" fill="black"/>
<path d="M2478.25 2299.18V2308.77L2470.16 2305.95V2312.15L2468.09 2313.09V2303.51H2468.28L2476.37 2306.32V2300.12L2478.25 2299.18Z" fill="black"/>
<path d="M2517.54 2275.7C2517.54 2273.07 2520.54 2269.5 2524.12 2267.99C2525.81 2267.24 2527.31 2267.24 2528.44 2267.62L2527.31 2269.31C2526.37 2269.12 2525.24 2269.12 2524.12 2269.68C2521.86 2270.62 2519.6 2273.07 2519.6 2274.95C2519.6 2276.82 2521.86 2277.39 2524.12 2276.45C2525.43 2275.89 2526.56 2274.95 2527.31 2273.82L2528.44 2274.57C2527.31 2275.89 2526 2277.01 2524.12 2277.95C2520.36 2279.27 2517.54 2278.33 2517.54 2275.7Z" fill="black"/>
<path d="M2539.16 2266.68L2533.14 2269.31L2532.2 2271.19L2530.13 2272.13L2536.15 2259.91H2536.34L2542.16 2267.05L2540.1 2267.99L2539.16 2266.68ZM2538.4 2265.74L2536.15 2262.92L2533.89 2267.62L2538.4 2265.74Z" fill="black"/>
<path d="M2543.1 2260.85V2255.03L2545.17 2254.09V2259.91C2545.17 2261.23 2546.49 2261.61 2547.99 2261.04C2549.5 2260.29 2550.81 2258.98 2550.81 2257.66V2251.84L2552.88 2250.9V2256.72C2552.88 2258.98 2550.81 2261.42 2548.18 2262.55C2545.17 2263.86 2543.1 2263.11 2543.1 2260.85Z" fill="black"/>
<path d="M2564.53 2244.51L2561.15 2246.01V2253.9L2559.08 2254.84V2246.95L2555.7 2248.45V2246.95L2564.53 2243.19V2244.51Z" fill="black"/>
<path d="M2567.17 2238.87L2569.23 2237.93V2247.33L2567.17 2248.27V2238.87Z" fill="black"/>
<path d="M2572.24 2239.62C2572.24 2236.99 2575.25 2233.42 2578.82 2231.92C2582.39 2230.42 2585.4 2231.36 2585.4 2233.99C2585.4 2236.62 2582.39 2240.19 2578.82 2241.69C2575.06 2243.38 2572.24 2242.44 2572.24 2239.62ZM2583.15 2234.93C2583.15 2233.05 2581.08 2232.48 2578.63 2233.42C2576.19 2234.55 2574.12 2236.8 2574.12 2238.68C2574.12 2240.56 2576.19 2241.13 2578.63 2240.19C2581.08 2239.25 2583.15 2236.8 2583.15 2234.93Z" fill="black"/>
<path d="M2597.25 2218.39V2227.97L2589.16 2225.16V2231.36L2587.09 2232.29V2222.71H2587.28L2595.37 2225.53V2219.33L2597.25 2218.39Z" fill="black"/>
<path d="M2319.02 1871.55L2291.57 1855.76V1823.82L2319.02 1839.98V1871.55Z" fill="#FCB017"/>
<path d="M2291.57 1855.76L2265.06 1870.98V1839.04L2291.57 1823.82V1855.76Z" fill="#FCB017"/>
<path d="M2292.51 1886.77L2265.06 1870.98V1839.04L2292.51 1855.2V1886.77Z" fill="#8C6239"/>
<path d="M2319.02 1871.73L2292.51 1886.95V1855.01L2319.02 1839.79V1871.73Z" fill="#A67C52"/>
<path d="M2319.02 1839.98L2292.51 1855.2L2265.06 1839.04L2291.57 1823.82L2319.02 1839.98Z" fill="#C69C6D"/>
<path d="M2279.35 1831.15L2306.23 1847.5" stroke="black" stroke-miterlimit="10"/>
<path opacity="0.68" d="M2308.49 1846.18L2304.54 1848.62L2276.91 1832.28L2280.86 1829.83L2308.49 1846.18Z" fill="#FCB017"/>
<path d="M2306.23 1847.5V1878.87" stroke="black" stroke-miterlimit="10"/>
<path opacity="0.68" d="M2308.3 1877.93L2304.54 1880V1848.62L2308.49 1846.18L2308.3 1877.93Z" fill="#FCB017"/>
</g>
<g clip-path="url(#clip9)">
<path d="M3402.47 1072.2H3402.66C3403.81 1072.58 3405.16 1073.16 3406.31 1073.74C3411.69 1076.43 3415.53 1079.89 3418.22 1082.97L3402.66 1091.43" fill="#96CFF0"/>
<path d="M3402.66 1072.2C3400.93 1072.58 3398.63 1073.16 3396.32 1074.51C3391.52 1077.39 3389.02 1081.43 3387.87 1083.35C3392.86 1086.04 3397.67 1088.73 3402.66 1091.23" fill="#2895CD"/>
<path d="M3294.11 1141.22L3310.44 1152.37L3401.7 1099.5L3386.33 1091.81L3294.11 1141.22Z" fill="#96CFF0"/>
<path d="M3296.41 1156.79L3306.98 1171.6L3413.8 1113.92L3405.74 1097.58L3296.41 1156.79Z" fill="#2895CD"/>
<path d="M3277.2 1289.07L3293.53 1300.03L3402.28 1239.08L3386.91 1231.39L3277.2 1289.07Z" fill="#96CFF0"/>
<path d="M3277.39 1305.6L3287.96 1320.41L3414.57 1248.89L3401.51 1238.7L3277.39 1305.6Z" fill="#2895CD"/>
<path d="M3263.56 1435.38L3280.08 1446.34L3409.19 1373.09L3393.82 1365.4L3263.56 1435.38Z" fill="#96CFF0"/>
<path d="M3265.1 1449.8L3275.47 1464.6L3421.49 1383.08L3408.43 1372.7L3265.1 1449.8Z" fill="#2895CD"/>
<path d="M3246.27 1581.3L3262.79 1592.46L3412.08 1508.82L3396.9 1501.32L3246.27 1581.3Z" fill="#96CFF0"/>
<path d="M3251.84 1594.76L3262.21 1609.76L3425.52 1518.82L3412.46 1508.63L3251.84 1594.76Z" fill="#2895CD"/>
<path d="M3224.56 1760.3L3209.95 1752.03L3296.03 1032.59L3310.63 1040.67" fill="#1B4581"/>
<path d="M3240.31 1750.3L3326 1029.52L3310.25 1037.78L3224.56 1759.14L3240.31 1750.3Z" fill="#2895CD"/>
<path d="M3403.43 1200.05L3387.1 1211.2L3295.64 1158.33L3311.01 1150.64L3403.43 1200.05Z" fill="#96CFF0"/>
<path d="M3401.12 1215.62L3390.56 1230.43L3282.39 1169.1L3295.45 1158.91L3401.12 1215.62Z" fill="#1B4581"/>
<path d="M3401.89 1353.86L3385.56 1365.01L3277.01 1303.87L3292.19 1296.18L3401.89 1353.86Z" fill="#96CFF0"/>
<path d="M3400.55 1371.55L3390.17 1386.35L3263.56 1314.83L3276.62 1304.64L3400.55 1371.55Z" fill="#1B4581"/>
<path d="M3406.31 1515.55L3389.79 1526.7L3260.87 1453.26L3276.05 1445.57L3406.31 1515.55Z" fill="#96CFF0"/>
<path d="M3403.81 1531.12L3393.44 1545.93L3247.42 1464.22L3260.48 1454.03L3403.81 1531.12Z" fill="#1B4581"/>
<path d="M3415.53 1674.74L3399.01 1685.89L3242.42 1598.22L3257.79 1590.72L3415.53 1674.74Z" fill="#96CFF0"/>
<path d="M3413.04 1690.32L3402.66 1705.12L3229.17 1609.18L3242.04 1598.99L3413.04 1690.32Z" fill="#1B4581"/>
<path d="M3512.94 1139.11L3496.61 1150.06L3405.35 1097.19L3420.53 1089.5L3512.94 1139.11Z" fill="#96CFF0"/>
<path d="M3510.64 1154.49L3500.07 1169.48L3391.9 1108.15L3404.97 1097.96L3510.64 1154.49Z" fill="#1B4581"/>
<path d="M3529.85 1288.88L3513.52 1299.84L3404.77 1238.89L3420.14 1231.2L3529.85 1288.88Z" fill="#96CFF0"/>
<path d="M3528.51 1306.37L3518.13 1321.18L3391.52 1249.66L3404.39 1239.47L3528.51 1306.37Z" fill="#1B4581"/>
<path d="M3543.3 1439.22L3526.97 1450.18L3397.86 1376.93L3413.23 1369.24L3543.3 1439.22Z" fill="#96CFF0"/>
<path d="M3541 1454.8L3530.43 1469.6L3389.6 1389.81L3397.47 1377.7L3541 1454.8Z" fill="#1B4581"/>
<path d="M3560.78 1586.3L3544.26 1597.26L3387.67 1509.78L3403.05 1502.09L3560.78 1586.3Z" fill="#96CFF0"/>
<path d="M3558.29 1601.68L3547.91 1616.68L3395.74 1535.74L3393.63 1510.17L3558.29 1601.68Z" fill="#1B4581"/>
<path d="M3570.39 1744.15L3555.6 1735.88L3482.78 1026.44L3497.38 1034.52" fill="#1B4581"/>
<path d="M3585.95 1734.34L3513.14 1026.25L3497.38 1034.52L3570.39 1742.99L3585.95 1734.34Z" fill="#2895CD"/>
<path d="M3401.32 1200.63L3417.84 1211.59L3509.1 1158.72L3493.73 1151.03L3401.32 1200.63Z" fill="#96CFF0"/>
<path d="M3403.81 1216.01L3414.19 1231.01L3521.21 1173.33L3513.14 1156.99L3403.81 1216.01Z" fill="#2895CD"/>
<path d="M3400.74 1355.4L3417.26 1366.55L3525.82 1305.41L3510.45 1297.72L3400.74 1355.4Z" fill="#96CFF0"/>
<path d="M3401.12 1371.93L3411.5 1386.93L3538.11 1315.41L3525.24 1305.22L3401.12 1371.93Z" fill="#2895CD"/>
<path d="M3396.51 1517.09L3412.84 1528.24L3541.96 1454.8L3526.59 1447.11L3396.51 1517.09Z" fill="#96CFF0"/>
<path d="M3397.86 1531.51L3408.23 1546.5L3554.25 1464.79L3541.19 1454.6L3397.86 1531.51Z" fill="#2895CD"/>
<path d="M3390.36 1673.4L3406.7 1684.36L3556.17 1600.91L3541 1593.22L3390.36 1673.4Z" fill="#96CFF0"/>
<path d="M3395.74 1686.85L3406.31 1701.66L3569.62 1610.72L3556.56 1600.53L3395.74 1686.85Z" fill="#2895CD"/>
<path d="M3402.66 1839.51L3388.06 1831.24V1083.35L3402.66 1091.43" fill="#1B4581"/>
<path d="M3418.22 1829.51V1083.16L3402.66 1091.43V1838.36L3418.22 1829.51Z" fill="#2895CD"/>
<path d="M3402.85 1091.62L3296.41 1032.4L3296.03 996.449L3401.7 1056.82" fill="#1B4581"/>
<path d="M3513.14 1026.25V992.411L3401.89 1053.93L3402.47 1092L3513.14 1026.25Z" fill="#2895CD"/>
<path d="M3512.94 992.604L3401.7 1056.82L3297.18 996.833L3407.27 936.079L3512.94 992.604Z" fill="#96CFF0"/>
<path d="M3403.62 1002.22L3394.21 997.218V915.315L3403.62 919.16" fill="#1B4581"/>
<path d="M3413.04 996.833V914.354L3403.62 919.16V1002.22L3413.04 996.833Z" fill="#2895CD"/>
<path d="M3394.21 915.315L3403.62 919.16V907.817L3394.21 915.315Z" fill="#2895CD"/>
<path d="M3413.04 914.354L3403.62 919.16V907.817L3413.04 914.354Z" fill="#96CFF0"/>
<path d="M3533.89 855.714C3497 783.424 3440.9 738.243 3408.23 754.97C3375.57 771.696 3379.03 843.602 3415.92 915.892C3452.81 988.181 3508.91 1033.36 3541.57 1016.64C3574.23 1000.1 3570.78 928.004 3533.89 855.714Z" fill="url(#paint7_radial)"/>
<path d="M3480.86 894.744C3480.86 894.936 3481.05 894.936 3480.86 894.744C3481.05 895.513 3481.24 896.282 3481.24 896.859C3481.63 899.935 3481.24 902.242 3480.86 903.972L3474.52 897.628" fill="#96CFF0"/>
<path d="M3398.43 933.388L3397.86 924.928L3473.94 889.552L3474.71 897.819" fill="#1B4581"/>
<path d="M3404.77 939.54L3480.86 904.164L3474.71 897.819L3398.43 933.387L3404.77 939.54Z" fill="#2895CD"/>
<path d="M3481.05 894.936C3480.47 894.166 3479.9 893.205 3478.75 892.244C3476.63 890.321 3474.71 889.745 3473.94 889.552C3474.13 892.436 3474.33 895.128 3474.71 898.012" fill="#2895CD"/>
<path d="M3408.81 754.97C3410.73 754.008 3412.84 753.239 3414.96 752.663C3413.04 753.047 3411.11 753.816 3408.81 754.97Z" fill="#1B4581"/>
<path d="M3416.49 915.891C3379.61 843.602 3376.34 771.504 3408.81 754.97C3376.15 771.504 3328.31 856.675 3365 928.965C3399.59 996.833 3496.81 1029.32 3535.42 1019.14C3502.38 1027.4 3450.89 983.567 3416.49 915.891Z" fill="#1B4581"/>
</g>
<path d="M4061 899.188L4305.83 1040.81L4672.84 828.459L4428.17 687L4061 899.188Z" fill="#F9F9F9"/>
<path d="M4305.83 1040.81V1253L4061 1111.54V899.188L4305.83 1040.81Z" fill="#DDDDDD"/>
<path d="M4672.84 828.458L4673 1040.81L4305.83 1253V1040.81L4672.84 828.458Z" fill="#F1F2F2"/>
</g>
<defs>
<linearGradient id="paint0_linear" x1="2249.49" y1="309.752" x2="2249.49" y2="2986.54" gradientUnits="userSpaceOnUse">
<stop stop-color="#CEE1EC" stop-opacity="0"/>
<stop offset="0.07067" stop-color="#CEE1EC" stop-opacity="0.1413"/>
<stop offset="0.5" stop-color="#CEE1EC"/>
<stop offset="0.8854" stop-color="#CEE1EC" stop-opacity="0.1344"/>
<stop offset="0.9452" stop-color="#CEE1EC" stop-opacity="0"/>
</linearGradient>
<linearGradient id="paint1_linear" x1="1460.58" y1="1657.93" x2="1445.04" y2="1657.93" gradientUnits="userSpaceOnUse">
<stop stop-color="white"/>
<stop offset="1" stop-color="#CCCCCC" stop-opacity="0.99"/>
</linearGradient>
<linearGradient id="paint2_linear" x1="1430.61" y1="1673.89" x2="1415.49" y2="1673.89" gradientUnits="userSpaceOnUse">
<stop stop-color="white"/>
<stop offset="1" stop-color="#CCCCCC" stop-opacity="0.99"/>
</linearGradient>
<linearGradient id="paint3_linear" x1="1408.77" y1="1662.03" x2="1393.66" y2="1662.03" gradientUnits="userSpaceOnUse">
<stop stop-color="white"/>
<stop offset="1" stop-color="#B3B3B3" stop-opacity="0.99"/>
</linearGradient>
<linearGradient id="paint4_linear" x1="1488.56" y1="1639.98" x2="1473.45" y2="1639.98" gradientUnits="userSpaceOnUse">
<stop stop-color="white"/>
<stop offset="1" stop-color="#CCCCCC" stop-opacity="0.99"/>
</linearGradient>
<linearGradient id="paint5_linear" x1="1505.14" y1="1617.03" x2="1491.3" y2="1617.03" gradientUnits="userSpaceOnUse">
<stop stop-color="white"/>
<stop offset="1" stop-color="#CCCCCC" stop-opacity="0.99"/>
</linearGradient>
<linearGradient id="paint6_linear" x1="1521.95" y1="1622.28" x2="1509.14" y2="1622.28" gradientUnits="userSpaceOnUse">
<stop stop-color="white"/>
<stop offset="1" stop-color="#CCCCCC" stop-opacity="0.99"/>
</linearGradient>
<radialGradient id="paint7_radial" cx="0" cy="0" r="1" gradientUnits="userSpaceOnUse" gradientTransform="translate(3474.94 885.863) scale(175.233 175.351)">
<stop offset="0.2779" stop-color="#96CFF0"/>
<stop offset="0.71" stop-color="#146FC1"/>
</radialGradient>
<clipPath id="clip0">
<rect width="4499" height="2878" fill="white"/>
</clipPath>
<clipPath id="clip1">
<rect width="4499" height="2572" fill="white" transform="translate(0 306)"/>
</clipPath>
<clipPath id="clip2">
<rect width="380" height="344" fill="white" transform="translate(1034.57 2393.29)"/>
</clipPath>
<clipPath id="clip3">
<rect width="515" height="468" fill="white" transform="translate(3583 2331.29)"/>
</clipPath>
<clipPath id="clip4">
<rect width="553" height="511" fill="white" transform="translate(-104.054 1948)"/>
</clipPath>
<clipPath id="clip5">
<rect width="553" height="511" fill="white" transform="translate(1806.78 410.373)"/>
</clipPath>
<clipPath id="clip6">
<rect width="1029" height="781" fill="white" transform="translate(687.225 1066.48)"/>
</clipPath>
<clipPath id="clip7">
<rect width="731" height="881" fill="white" transform="translate(2289.5 299.922)"/>
</clipPath>
<clipPath id="clip8">
<rect width="836" height="813" fill="white" transform="translate(1796.59 1633.11)"/>
</clipPath>
<clipPath id="clip9">
<rect width="376" height="1088" fill="white" transform="translate(3209.95 751.509)"/>
</clipPath>
</defs>
</svg>
