<svg xmlns="http://www.w3.org/2000/svg" xmlns:xlink="http://www.w3.org/1999/xlink" viewBox="0 0 1920.79 302.05"><defs><style>.cls-1{fill:url(#linear-gradient);}</style><linearGradient id="linear-gradient" x1="960.4" y1="-53.53" x2="960.4" y2="598.7" gradientUnits="userSpaceOnUse"><stop offset="0" stop-color="#bbdef5" stop-opacity="0.5"/><stop offset="0.02" stop-color="#c4e1f6" stop-opacity="0.59"/><stop offset="0.06" stop-color="#cfe6f7" stop-opacity="0.7"/><stop offset="0.1" stop-color="#d9e9f7" stop-opacity="0.79"/><stop offset="0.14" stop-color="#e1ecf8" stop-opacity="0.87"/><stop offset="0.19" stop-color="#e7eef8" stop-opacity="0.93"/><stop offset="0.25" stop-color="#ebf0f9" stop-opacity="0.97"/><stop offset="0.34" stop-color="#edf1f9" stop-opacity="0.99"/><stop offset="0.59" stop-color="#eef1f9"/></linearGradient></defs><g id="Layer_7" data-name="Layer 7"><g id="Layer_5" data-name="Layer 5"><g id="Layer_3-2" data-name="Layer 3"><path class="cls-1" d="M1912.7,108.3A49.23,49.23,0,0,0,1847.1,85l-.58.29A56,56,0,0,0,1782,71.6a72.88,72.88,0,0,0-103.06-.91q-1.61,1.57-3.1,3.24a64.14,64.14,0,0,0-41-5.28,49.23,49.23,0,0,0-59.89-13.12,56,56,0,0,0-79.08-4.21,54.94,54.94,0,0,0-7.42,8.12A83.4,83.4,0,0,0,1393.09,44a94.93,94.93,0,0,0-161.43,36.09,62.39,62.39,0,0,0-17.94-2.85,72.88,72.88,0,0,0-102.43-11.49l-.1.09a72.38,72.38,0,0,0-94.13-27.95A82.42,82.42,0,0,0,876.91,69.19a54.42,54.42,0,0,0-53.6,12.27A64.16,64.16,0,0,0,784.59,68.7a60.59,60.59,0,0,0-7,.41,72.88,72.88,0,0,0-113-5.73A64.13,64.13,0,0,0,614.9,60.5a27.85,27.85,0,0,0-32.72-13.15,42.09,42.09,0,0,0-71.57-16,37,37,0,0,0-43.06,7.71,72.38,72.38,0,0,0-81-11.75A82.39,82.39,0,0,0,246.68,57.7a72.44,72.44,0,0,0-72.94-5.32A82.42,82.42,0,0,0,33.6,83.7,54.56,54.56,0,0,0,0,84v504.1H1920.79V105.39A35.86,35.86,0,0,0,1912.7,108.3Z"/></g></g></g></svg>