<svg xmlns="http://www.w3.org/2000/svg" xmlns:xlink="http://www.w3.org/1999/xlink" viewBox="0 0 1920.79 302.05"><defs><style>.cls-1{fill:url(#linear-gradient);}</style><linearGradient id="linear-gradient" x1="1042.05" y1="132.58" x2="1042.05" y2="447.87" gradientTransform="matrix(-1, 0, 0, 1, 2003.01, 0)" gradientUnits="userSpaceOnUse"><stop offset="0" stop-color="#cdddee" stop-opacity="0.8"/><stop offset="0.27" stop-color="#c8daec" stop-opacity="0.99"/><stop offset="1" stop-color="#b6cee6"/></linearGradient></defs><g id="Layer_7" data-name="Layer 7"><g id="Layer_3-2" data-name="Layer 3"><path class="cls-1" d="M.57,217.34V440.07H1921.36V196a54.7,54.7,0,0,0-33.6-.32,82.42,82.42,0,0,0-140.14-31.32,72.46,72.46,0,0,0-72.94,5.32,82.4,82.4,0,0,0-139.87-30.39,72.42,72.42,0,0,0-81,11.75,37,37,0,0,0-43.06-7.71,42.1,42.1,0,0,0-71.57,16,27.87,27.87,0,0,0-32.72,13.15,64.22,64.22,0,0,0-49.69,2.88,72.9,72.9,0,0,0-113,5.73,65.72,65.72,0,0,0-7-.41,64.3,64.3,0,0,0-38.72,12.76,54.47,54.47,0,0,0-53.6-12.27A82.43,82.43,0,0,0,904.3,149.81a72.39,72.39,0,0,0-94.13,27.95l-.11-.08a72.88,72.88,0,0,0-102.42,11.48A62.68,62.68,0,0,0,689.7,192a94.94,94.94,0,0,0-161.43-36.09,83.43,83.43,0,0,0-95.33,15.47,56,56,0,0,0-86.5-3.91,49.25,49.25,0,0,0-59.89,13.12,65.75,65.75,0,0,0-12.89-1.28,63.72,63.72,0,0,0-28.12,6.56c-1-1.11-2-2.19-3.1-3.23a72.88,72.88,0,0,0-103.06.9A56,56,0,0,0,74.84,197.2l-.59-.28A49.23,49.23,0,0,0,8.66,220.25,37,37,0,0,0,.57,217.34Z"/></g></g></svg>