<svg xmlns="http://www.w3.org/2000/svg" viewBox="0 0 482.31 318.3"><defs><style>.cls-1{fill:none;stroke:#000;stroke-miterlimit:10;stroke-width:0.65px;}.cls-2{fill:#2894cc;}.cls-3{fill:#e5e5e5;}.cls-4{fill:#cbcbcb;}.cls-5{fill:#333;}.cls-6{fill:#1b4580;}.cls-7{fill:gray;}</style></defs><title>Asset 25</title><g id="Layer_2" data-name="Layer 2"><g id="Layer_3" data-name="Layer 3"><line class="cls-1" x1="159.38" y1="268.09" x2="159.42" y2="268.07"/><polygon class="cls-2" points="282.69 171.74 282.69 156.52 130.57 244.99 115.6 238.31 115.86 267.98 282.69 171.74"/><path class="cls-3" d="M7.14,315.09s-.22.93,1,1.77A9.2,9.2,0,0,1,6.57,316a41.51,41.51,0,0,1-4.87-4.87s-3-5.25,1.13-15.37,12-24,13.86-27.73,7.87-12.75,12-18.37S55,223.57,55,223.57L291.92,86.79s3.82-2.44,6.82-2.81,3.61-.26,5.86.86a80.48,80.48,0,0,1,9.09,5.25A96.2,96.2,0,0,0,322.12,95L331,101.1a13,13,0,0,1,2.33,3.77"/><path class="cls-4" d="M482.31,56.25A8,8,0,0,1,481,60.61a13.93,13.93,0,0,1-4,3.45L61.83,303.76S23,325,6.82,316.11c-19.23-10.59,201.33-138.6,201.33-138.6L479.59,18.36"/><path class="cls-5" d="M26.17,270.44a2,2,0,0,0,2,2.21c4.54-.21,7.06,1.21,19.42-3.67,13.74-5.41,22.46-13.58,28.57-18.21a2,2,0,0,0-.09-3.18L54.2,232.79a2,2,0,0,0-2.48.23c-4.5,4.53-16.51,16.83-21,24-3.75,6-4.06,9.55-4.58,13.45"/><path class="cls-6" d="M1.3,303.31A7.5,7.5,0,0,0,3.75,308a3.11,3.11,0,0,0,.54.35c.16.1.41.21.63.32.44.21.88.4,1.32.58a15.64,15.64,0,0,0,2.73.84,19.87,19.87,0,0,0,5.72.22c.48,0,1-.1,1.45-.16s.92-.15,1.4-.27c.94-.22,1.88-.49,2.83-.76,3.77-1.14,7.5-2.51,11.21-3.92q2.78-1.07,5.54-2.17l2.76-1.12,2.72-1.18q10.93-4.77,21.83-9.64c1.81-.82,3.63-1.64,5.38-2.5.8-.38,1.69-.92,2.55-1.41L75,285.73l10.38-5.92L106.05,268c6.91-4,13.8-7.9,20.58-12.06,13.72-8.13,27.45-16.16,41.19-24.22l166.63-97.53-.18,7.63-164.5,93.29c-13.83,7.87-27.7,15.73-41.48,23.64-6.85,4.07-13.85,7.93-20.79,11.81L86.61,282.09l-10.46,5.77-2.61,1.44c-.88.48-1.69,1-2.7,1.44-1.83.87-3.65,1.65-5.48,2.46-7.32,3.17-14.65,6.26-22,9.35l-2.77,1.16-2.79,1.09q-2.79,1.08-5.61,2.1c-3.75,1.37-7.51,2.69-11.38,3.81-1,.26-1.94.53-2.95.74-.49.12-1,.18-1.53.27s-1,.12-1.52.16a21.31,21.31,0,0,1-6.16-.34,16.75,16.75,0,0,1-3-1c-.48-.2-.94-.41-1.4-.64a6.74,6.74,0,0,1-1.4-.84,7,7,0,0,1-2-2.59A10.4,10.4,0,0,1,0,303.46Z"/><polygon class="cls-5" points="196.92 195.15 196.92 205 201.79 202.18 201.79 192.33 196.92 195.15"/><path class="cls-7" d="M89.21,258.64l1.66,11.43-2,1.16L59.9,286.06a.66.66,0,0,1-.87-.94c2.91-4.67,11.3-13.22,15.2-16.14,2.93-2.2,9.69-6.79,15-10.34"/><path class="cls-7" d="M169.43,211.64v13.49l-37.86,21.74-31.49,18,1.37-.82V250.88c17.59-10.3,68-39.24,68-39.24"/><polygon class="cls-5" points="158.74 231.32 158.74 217.76 151.24 222.09 151.24 222.12 151.24 235.63 158.74 231.32"/><polygon class="cls-5" points="140.36 241.94 140.36 228.38 132.86 232.71 132.86 232.74 132.86 246.25 140.36 241.94"/><polygon class="cls-5" points="120.87 253.2 120.87 239.64 113.38 243.97 113.38 244 113.38 257.5 120.87 253.2"/><path class="cls-5" d="M101.45,250.88V264l-1.38.82L89.4,271.05l-.19-12.41c2.81-1.9,5.21-3.49,6.38-4.27.52-.35,2.64-1.61,5.86-3.49"/><path class="cls-3" d="M456.12,3.37A22,22,0,0,0,447.48.15,12.29,12.29,0,0,0,438.75,2L146.66,170.66a11.84,11.84,0,0,0-4.34,16.18l7.89,13.67a8.94,8.94,0,0,0,12.2,3.27L478.15,21.16a2.92,2.92,0,0,0,0-5.05l-4.29-2.49"/><polyline class="cls-6" points="334.27 141.78 334.45 134.15 481.66 47.33 482.13 53.71"/><polygon class="cls-5" points="348.22 106.57 348.22 116.41 353.09 113.6 353.09 103.75 348.22 106.57"/><polygon class="cls-7" points="376.28 103.27 376.28 89.61 471.99 31.55 471.99 45.84 376.28 103.27"/><polygon class="cls-5" points="395.5 91.84 395.5 78.1 388.11 82.54 388.11 82.57 388.11 96.29 395.5 91.84"/><polygon class="cls-5" points="416.56 79.09 416.56 65.35 409.17 69.79 409.17 69.82 409.17 83.54 416.56 79.09"/><polygon class="cls-5" points="435.77 67.5 435.77 53.76 428.38 58.2 428.38 58.23 428.38 71.95 435.77 67.5"/><polygon class="cls-5" points="452.77 57.08 452.77 43.33 445.38 47.77 445.38 47.8 445.38 61.53 452.77 57.08"/><polygon class="cls-5" points="471.99 45.49 471.99 31.74 464.6 36.19 464.6 36.22 464.6 49.94 471.99 45.49"/><polygon class="cls-7" points="228.84 189.04 228.84 175.38 324.54 117.32 324.54 131.61 228.84 189.04"/><polygon class="cls-5" points="248.05 177.61 248.05 163.86 240.66 168.31 240.66 168.34 240.66 182.06 248.05 177.61"/><polygon class="cls-5" points="269.11 164.86 269.11 151.12 261.72 155.56 261.72 155.59 261.72 169.31 269.11 164.86"/><polygon class="cls-5" points="288.33 153.27 288.33 139.53 280.94 143.97 280.94 144 280.94 157.72 288.33 153.27"/><polygon class="cls-5" points="305.33 142.84 305.33 129.1 297.94 133.54 297.94 133.57 297.94 147.29 305.33 142.84"/><polygon class="cls-5" points="324.54 131.25 324.54 117.51 317.15 121.95 317.15 121.98 317.15 135.71 324.54 131.25"/></g></g></svg>