<svg id="Layer_1" data-name="Layer 1" xmlns="http://www.w3.org/2000/svg" viewBox="0 0 418.684 245.198"><defs><style>.cls-1{fill:#001949;}</style></defs><path class="cls-1" d="M52.07,102.917l-16.784,9.754c-6.033,3.5-15.07,3.38-20.772.088s-5.947-8.526.086-12.032l16.784-9.754L36.8,94.1l-16.771,9.746c-2.905,1.689-2.706,4.251-.114,5.747a11,11,0,0,0,9.959-.062l16.771-9.747Z" transform="translate(-10.157 -90.973)"/><path class="cls-1" d="M122.45,142.786l-14.468,23.261-5.836-3.37,2.019-3.14-10.72-6.189-5.434,1.168-5.817-3.358,40.09-8.467Zm-22.356,9.124,6.531,3.771,3.868-6.02-10.4,2.249" transform="translate(-10.157 -90.973)"/><path class="cls-1" d="M87.313,136.741c2.579,1.489,3.286,4.954-1,7.443a17.452,17.452,0,0,1-16.439-.137L59.752,138.2l26.629-15.475,7.317,4.225c4.75,2.742,4.307,6.506.723,8.588C91.592,137.184,87.964,137.117,87.313,136.741ZM74.6,140.726a7.5,7.5,0,0,0,6.842.2c1.535-.892,2-2.4-.556-3.878l-4.24-2.448-6.305,3.664,4.259,2.459m11.942-11.873-5.2,3.022,2.178,1.257a5.739,5.739,0,0,0,5.173-.077c1.5-.874,1.375-2.167.13-2.886l-2.279-1.316" transform="translate(-10.157 -90.973)"/><path class="cls-1" d="M56.759,124.208l-2.976,10.547-6.583-3.8,4.055-12.238L38.67,126.029l-5.388-3.111L59.9,107.436l8.747,5.05c5,2.886,5.274,7.49.485,10.274A17.3,17.3,0,0,1,56.759,124.208Zm-.009-4.671a7.545,7.545,0,0,0,6.792.034c1.9-1.1,1.709-2.9-.105-3.948l-3.454-1.994-6.692,3.889,3.435,2,.024.014" transform="translate(-10.157 -90.973)"/><polygon class="cls-1" points="131.295 62.975 131.823 81.063 146.742 72.393 152.15 75.515 124.964 91.314 124.708 91.167 124.173 73.046 109.254 81.716 103.872 78.608 131.033 62.824 131.295 62.975"/><polygon class="cls-1" points="217.341 112.653 217.869 130.742 232.789 122.072 238.196 125.194 211.01 140.993 210.761 140.849 210.219 122.724 195.3 131.394 189.918 128.287 217.079 112.502 217.341 112.653"/><polygon class="cls-1" points="187.736 95.561 188.264 113.649 203.183 104.979 208.584 108.097 181.397 123.897 181.148 123.753 180.614 105.631 165.695 114.301 160.306 111.19 187.467 95.406 187.736 95.561"/><polygon class="cls-1" points="178.915 91.041 152.287 106.516 146.898 103.405 173.527 87.93 178.915 91.041"/><path class="cls-1" d="M321.862,257.917l-14.468,23.26-5.835-3.369,2.018-3.141-10.726-6.192-5.428,1.172-5.817-3.358,40.09-8.468Zm-22.362,9.12,6.538,3.775,3.86-6.024-10.4,2.249" transform="translate(-10.157 -90.973)"/><polygon class="cls-1" points="355.4 192.935 328.771 208.41 323.383 205.299 350.011 189.824 355.4 192.935"/><polygon class="cls-1" points="343.582 186.112 338.279 189.193 331.69 185.389 310.364 197.782 304.963 194.664 326.289 182.271 319.687 178.459 324.99 175.378 343.582 186.112"/><polygon class="cls-1" points="300.626 161.311 260.792 169.933 260.594 169.819 275.4 146.747 281.102 150.039 272.507 162.992 294.854 157.979 300.626 161.311"/><path class="cls-1" d="M269.655,227.915c7.668,4.427,7.709,11.682.059,16.127-7.58,4.405-20.072,4.387-27.753-.047-7.649-4.416-7.709-11.645-.128-16.05C249.482,223.5,261.994,223.492,269.655,227.915Zm-22.277,12.932c4.686,2.7,12.291,2.716,16.922.025,4.656-2.705,4.631-7.122-.055-9.827s-12.285-2.691-16.941.015c-4.631,2.691-4.6,7.088.074,9.787" transform="translate(-10.157 -90.973)"/><polygon class="cls-1" points="397.835 216.862 398.364 234.95 413.283 226.28 418.684 229.399 391.497 245.198 391.248 245.054 390.714 226.933 375.795 235.603 370.406 232.492 397.567 216.707 397.835 216.862"/><path class="cls-1" d="M386.922,295.619c7.668,4.427,7.709,11.682.059,16.128-7.58,4.4-20.072,4.386-27.753-.048-7.649-4.416-7.709-11.645-.128-16.05C366.749,291.2,379.261,291.2,386.922,295.619Zm-22.277,12.932c4.686,2.7,12.291,2.716,16.922.025,4.656-2.705,4.631-7.121-.055-9.827s-12.279-2.687-16.935.018c-4.63,2.691-4.605,7.085.068,9.784" transform="translate(-10.157 -90.973)"/></svg>