<?xml version="1.0" encoding="UTF-8" standalone="no"?>
<!DOCTYPE svg PUBLIC "-//W3C//DTD SVG 1.1//EN" "http://www.w3.org/Graphics/SVG/1.1/DTD/svg11.dtd">
<svg width="100%" height="100%" viewBox="0 0 1000 1000" version="1.1" xmlns="http://www.w3.org/2000/svg" xmlns:xlink="http://www.w3.org/1999/xlink" xml:space="preserve" xmlns:serif="http://www.serif.com/" style="fill:#001d55;fill-rule:evenodd;clip-rule:evenodd;stroke-linejoin:round;stroke-miterlimit:2;">
    <path d="M950,185C950,110.491 889.509,50 815,50L185,50C110.491,50 50,110.491 50,185L50,815C50,889.509 110.491,950 185,950L815,950C889.509,950 950,889.509 950,815L950,185ZM499.978,150L500.033,150L499.923,150L499.978,150C404.974,150 393.042,150.416 355.716,152.115C318.456,153.821 293.022,159.72 270.768,168.375C247.748,177.315 228.221,189.273 208.767,208.734C189.298,228.189 177.34,247.716 168.371,270.728C159.694,292.99 153.788,318.43 152.111,355.676C150.441,393.009 150.004,404.946 150.004,500C150.004,595.054 150.427,606.947 152.118,644.28C153.832,681.541 159.731,706.974 168.379,729.228C177.326,752.248 189.284,771.775 208.745,791.229C228.192,810.698 247.719,822.685 270.724,831.625C292.993,840.28 318.434,846.179 355.687,847.885C393.02,849.584 404.942,850 499.989,850C595.051,850 606.943,849.584 644.277,847.885C681.537,846.179 706.999,840.28 729.268,831.625C752.281,822.685 771.779,810.698 791.226,791.229C810.694,771.775 822.653,752.248 831.621,729.235C840.226,706.974 846.132,681.533 847.882,644.287C849.559,606.954 849.996,595.054 849.996,500C849.996,404.946 849.559,393.017 847.882,355.683C846.132,318.423 840.226,292.99 831.621,270.735C822.653,247.716 810.694,228.189 791.226,208.734C771.757,189.266 752.288,177.307 729.246,168.375C706.934,159.72 681.486,153.821 644.226,152.115C606.9,150.416 595.012,150 499.978,150ZM468.635,213.073C477.954,213.058 488.352,213.073 500.033,213.073C593.483,213.073 604.559,213.408 641.462,215.085C675.587,216.646 694.108,222.348 706.445,227.139C722.779,233.482 734.423,241.066 746.666,253.316C758.916,265.566 766.499,277.232 772.858,293.566C777.648,305.889 783.358,324.409 784.911,358.534C786.588,395.43 786.953,406.514 786.953,499.92C786.953,593.326 786.588,604.409 784.911,641.305C783.351,675.43 777.648,693.951 772.858,706.274C766.514,722.607 758.916,734.237 746.666,746.48C734.416,758.73 722.786,766.314 706.445,772.657C694.122,777.47 675.587,783.157 641.462,784.718C604.566,786.395 593.483,786.759 500.033,786.759C406.576,786.759 395.499,786.395 358.604,784.718C324.479,783.143 305.958,777.441 293.613,772.65C277.28,766.306 265.613,758.723 253.363,746.473C241.113,734.223 233.53,722.585 227.171,706.245C222.381,693.922 216.671,675.401 215.118,641.276C213.441,604.38 213.106,593.297 213.106,499.832C213.106,406.368 213.441,395.343 215.118,358.447C216.679,324.322 222.381,305.801 227.171,293.464C233.515,277.13 241.113,265.464 253.363,253.214C265.613,240.964 277.28,233.38 293.613,227.022C305.951,222.209 324.479,216.522 358.604,214.954C390.891,213.496 403.404,213.058 468.635,212.985L468.635,213.073ZM500.029,320.26L500.033,320.26L500.026,320.26L500.029,320.26C400.771,320.26 320.293,400.739 320.293,500C320.293,599.261 400.771,679.703 500.033,679.703C599.294,679.703 679.743,599.261 679.743,500C679.743,400.739 599.287,320.26 500.029,320.26ZM500.033,383.333C564.462,383.333 616.699,435.564 616.699,500C616.699,564.429 564.462,616.667 500.033,616.667C435.596,616.667 383.366,564.429 383.366,500C383.366,435.564 435.596,383.333 500.033,383.333ZM686.86,271.187C663.672,271.187 644.86,289.978 644.86,313.173C644.86,336.36 663.672,355.173 686.86,355.173C710.047,355.173 728.86,336.36 728.86,313.173C728.86,289.985 710.047,271.173 686.86,271.173L686.86,271.187Z"/>
</svg>
