<?xml version="1.0" encoding="UTF-8" standalone="no"?>
<!DOCTYPE svg PUBLIC "-//W3C//DTD SVG 1.1//EN" "http://www.w3.org/Graphics/SVG/1.1/DTD/svg11.dtd">
<svg width="100%" height="100%" viewBox="0 0 1000 1000" version="1.1" xmlns="http://www.w3.org/2000/svg" xmlns:xlink="http://www.w3.org/1999/xlink" xml:space="preserve" xmlns:serif="http://www.serif.com/" style="fill:#001d55;fill-rule:evenodd;clip-rule:evenodd;stroke-linejoin:round;stroke-miterlimit:2;">
    <path d="M950,185C950,110.491 889.509,50 815,50L185,50C110.491,50 50,110.491 50,185L50,815C50,889.509 110.491,950 185,950L815,950C889.509,950 950,889.509 950,815L950,185ZM150,420.719C188.145,452.761 281.072,528.397 365.698,578.38C417.021,608.688 466.081,628.957 500,628.957C533.919,628.957 582.979,608.688 634.302,578.38C718.928,528.397 811.855,452.761 850,420.719L850,651.419C850,687.237 820.923,716.314 785.105,716.314L214.895,716.314C179.077,716.314 150,687.237 150,651.419L150,420.719ZM150,349.162L150,348.581C150,312.763 179.077,283.686 214.895,283.686L785.105,283.686C820.923,283.686 850,312.763 850,348.581L850,349.162L832.18,364.727C832.18,364.727 712.751,469.115 606.746,531.721C565.584,556.035 527.204,574.773 500,574.773C472.796,574.773 434.416,556.035 393.254,531.721C287.249,469.115 167.82,364.727 167.82,364.727L150,349.162Z"/>
</svg>
