<?xml version="1.0" encoding="UTF-8" standalone="no"?>
<!DOCTYPE svg PUBLIC "-//W3C//DTD SVG 1.1//EN" "http://www.w3.org/Graphics/SVG/1.1/DTD/svg11.dtd">
<svg width="100%" height="100%" viewBox="0 0 1000 1000" version="1.1" xmlns="http://www.w3.org/2000/svg" xmlns:xlink="http://www.w3.org/1999/xlink" xml:space="preserve" xmlns:serif="http://www.serif.com/" style="fill:#001d55;fill-rule:evenodd;clip-rule:evenodd;stroke-linejoin:round;stroke-miterlimit:2;">
    <path d="M950,185C950,110.491 889.509,50 815,50L185,50C110.491,50 50,110.491 50,185L50,815C50,889.509 110.491,950 185,950L815,950C889.509,950 950,889.509 950,815L950,185ZM797.039,729.713L850,780.841L850,782.538L581.359,782.538L581.359,780.841L635.279,729.713C641.029,724.981 643.783,717.464 642.468,710.086L642.468,383.205C642.468,369.393 642.468,350.735 644.865,334.742L463.694,789.08L461.537,789.08L273.896,371.089C269.822,360.67 268.624,359.943 265.988,352.916L265.988,626.972C263.741,645.315 266.822,663.921 274.855,680.524L350.342,780.841L350.342,782.538L150,782.538L150,780.841L225.488,680.281C233.461,663.746 236.54,645.235 234.355,626.972L234.355,324.08C235.582,309.167 231.124,294.343 221.893,282.645L168.453,212.616L168.453,210.92L360.168,210.92L520.729,564.94L662.119,210.92L849.76,210.92L849.76,212.616L797.039,271.983C790.721,276.653 787.564,284.539 788.891,292.337L788.891,710.086C787.494,717.686 790.695,725.399 797.039,729.713Z"/>
</svg>
