<?xml version="1.0" encoding="UTF-8" standalone="no"?>
<!DOCTYPE svg PUBLIC "-//W3C//DTD SVG 1.1//EN" "http://www.w3.org/Graphics/SVG/1.1/DTD/svg11.dtd">
<svg width="100%" height="100%" viewBox="0 0 1000 1000" version="1.1" xmlns="http://www.w3.org/2000/svg" xmlns:xlink="http://www.w3.org/1999/xlink" xml:space="preserve" xmlns:serif="http://www.serif.com/" style="fill:#001d55;fill-rule:evenodd;clip-rule:evenodd;stroke-linejoin:round;stroke-miterlimit:2;">
    <path d="M950,185C950,110.491 889.509,50 815,50L185,50C110.491,50 50,110.491 50,185L50,815C50,889.509 110.491,950 185,950L815,950C889.509,950 950,889.509 950,815L950,185ZM849.997,282.905C824.247,294.327 796.565,302.045 767.519,305.517C797.167,287.744 819.942,259.6 830.662,226.063C802.911,242.524 772.177,254.473 739.463,260.913C713.269,233 675.945,215.563 634.638,215.563C555.328,215.563 491.022,279.862 491.022,359.172C491.022,370.428 492.292,381.39 494.742,391.901C375.385,385.912 269.566,328.736 198.733,241.848C186.371,263.058 179.287,287.726 179.287,314.046C179.287,363.873 204.641,407.829 243.176,433.582C219.635,432.837 197.49,426.376 178.128,415.62C178.112,416.219 178.112,416.821 178.112,417.426C178.112,487.006 227.616,545.047 293.315,558.249C281.264,561.532 268.577,563.285 255.48,563.285C246.226,563.285 237.231,562.382 228.46,560.709C246.737,617.763 299.772,659.284 362.618,660.438C313.468,698.96 251.546,721.92 184.258,721.92C172.666,721.92 161.235,721.237 150,719.911C213.557,760.661 289.045,784.437 370.147,784.437C634.303,784.437 778.759,565.606 778.759,375.822C778.759,369.595 778.619,363.404 778.342,357.24C806.398,336.996 830.744,311.705 849.997,282.905L850,282.903L849.998,282.903L849.997,282.905Z"/>
</svg>
