<?xml version="1.0" encoding="UTF-8"?>
<svg xmlns="http://www.w3.org/2000/svg" xmlns:xlink="http://www.w3.org/1999/xlink" width="824.756pt" height="336.631pt" viewBox="0 0 824.756 336.631" version="1.1">
<g id="surface1">
<path style=" stroke:none;fill-rule:evenodd;fill:rgb(40.391541%,47.058105%,54.118347%);fill-opacity:1;" d="M 416.429688 219.695313 L 405.824219 236.519531 C 404.136719 239.195313 400.519531 239.863281 397.988281 237.964844 L 389.550781 231.636719 C 388.773438 231.054688 387.714844 231.0625 386.941406 231.644531 L 375.539063 240.300781 C 374.019531 241.457031 372.027344 239.632813 373.054688 238.019531 L 383.664063 221.183594 C 385.351563 218.507813 388.96875 217.839844 391.5 219.738281 L 399.9375 226.070313 C 400.714844 226.648438 401.777344 226.644531 402.546875 226.0625 L 413.941406 217.414063 C 415.460938 216.257813 417.453125 218.082031 416.429688 219.695313 M 394.742188 192.730469 C 374.390625 192.730469 358.617188 207.636719 358.617188 227.769531 C 358.617188 238.300781 362.933594 247.402344 369.964844 253.6875 C 370.554688 254.21875 370.90625 254.953125 370.9375 255.746094 L 371.132813 262.171875 C 371.199219 264.21875 373.3125 265.546875 375.191406 264.726563 L 382.355469 261.566406 C 382.96875 261.296875 383.640625 261.246094 384.28125 261.421875 C 387.574219 262.328125 391.085938 262.808594 394.742188 262.808594 C 415.09375 262.808594 430.863281 247.902344 430.863281 227.769531 C 430.863281 207.636719 415.09375 192.730469 394.742188 192.730469 "/>
<path style=" stroke:none;fill-rule:evenodd;fill:rgb(40.391541%,47.058105%,54.118347%);fill-opacity:1;" d="M 622.449219 236.042969 C 621.550781 235.59375 617.132813 233.421875 616.308594 233.121094 C 615.484375 232.820313 614.886719 232.671875 614.285156 233.570313 C 613.6875 234.46875 611.964844 236.492188 611.441406 237.09375 C 610.917969 237.691406 610.394531 237.769531 609.496094 237.316406 C 608.59375 236.867188 605.699219 235.917969 602.269531 232.859375 C 599.597656 230.476563 597.792969 227.535156 597.269531 226.632813 C 596.746094 225.734375 597.214844 225.25 597.664063 224.800781 C 598.070313 224.398438 598.5625 223.75 599.011719 223.226563 C 599.460938 222.703125 599.609375 222.328125 599.910156 221.726563 C 600.210938 221.128906 600.0625 220.601563 599.835938 220.152344 C 599.609375 219.703125 597.8125 215.28125 597.066406 213.480469 C 596.335938 211.730469 595.59375 211.96875 595.042969 211.9375 C 594.519531 211.914063 593.921875 211.90625 593.320313 211.90625 C 592.722656 211.90625 591.75 212.132813 590.925781 213.03125 C 590.101563 213.929688 587.78125 216.105469 587.78125 220.527344 C 587.78125 224.949219 591 229.222656 591.449219 229.824219 C 591.898438 230.421875 597.785156 239.496094 606.800781 243.390625 C 608.941406 244.3125 610.617188 244.867188 611.921875 245.28125 C 614.074219 245.964844 616.03125 245.871094 617.582031 245.636719 C 619.304688 245.378906 622.898438 243.464844 623.644531 241.367188 C 624.394531 239.265625 624.394531 237.46875 624.167969 237.09375 C 623.945313 236.71875 623.34375 236.492188 622.449219 236.042969 M 606.050781 258.429688 L 606.042969 258.429688 C 600.675781 258.425781 595.417969 256.984375 590.828125 254.261719 L 589.738281 253.613281 L 578.425781 256.582031 L 581.445313 245.554688 L 580.734375 244.421875 C 577.742188 239.664063 576.160156 234.164063 576.164063 228.515625 C 576.171875 212.035156 589.578125 198.628906 606.066406 198.628906 C 614.046875 198.632813 621.550781 201.746094 627.195313 207.394531 C 632.839844 213.042969 635.945313 220.554688 635.941406 228.539063 C 635.933594 245.019531 622.527344 258.429688 606.050781 258.429688 M 631.492188 203.101563 C 624.703125 196.304688 615.671875 192.558594 606.050781 192.554688 C 586.230469 192.554688 570.097656 208.6875 570.09375 228.511719 C 570.089844 234.851563 571.746094 241.039063 574.894531 246.492188 L 569.792969 265.125 L 588.855469 260.125 C 594.105469 262.988281 600.019531 264.5 606.039063 264.5 L 606.050781 264.5 C 606.054688 264.5 606.050781 264.5 606.050781 264.5 C 625.871094 264.5 642.003906 248.371094 642.011719 228.542969 C 642.015625 218.933594 638.28125 209.898438 631.492188 203.101563 "/>
<path style=" stroke:none;fill-rule:nonzero;fill:rgb(40.391541%,47.058105%,54.118347%);fill-opacity:1;" d="M 519.277344 205.636719 C 516.921875 205.636719 515.015625 207.542969 515.015625 209.898438 C 515.015625 212.25 516.921875 214.15625 519.277344 214.15625 C 521.628906 214.15625 523.539063 212.25 523.539063 209.898438 C 523.539063 207.542969 521.628906 205.636719 519.277344 205.636719 M 500.320313 240.6875 C 493.785156 240.6875 488.484375 235.390625 488.484375 228.851563 C 488.484375 222.316406 493.785156 217.015625 500.320313 217.015625 C 506.859375 217.015625 512.15625 222.316406 512.15625 228.851563 C 512.15625 235.390625 506.859375 240.6875 500.320313 240.6875 M 500.320313 210.617188 C 490.25 210.617188 482.085938 218.78125 482.085938 228.851563 C 482.085938 238.921875 490.25 247.085938 500.320313 247.085938 C 510.390625 247.085938 518.554688 238.921875 518.554688 228.851563 C 518.554688 218.78125 510.390625 210.617188 500.320313 210.617188 M 529.226563 243.199219 C 529.066406 246.660156 528.488281 248.542969 528.003906 249.792969 C 527.359375 251.449219 526.589844 252.632813 525.347656 253.878906 C 524.105469 255.117188 522.921875 255.890625 521.265625 256.53125 C 520.011719 257.019531 518.132813 257.597656 514.671875 257.757813 C 510.925781 257.925781 509.800781 257.964844 500.320313 257.964844 C 490.839844 257.964844 489.714844 257.925781 485.972656 257.757813 C 482.511719 257.597656 480.628906 257.019531 479.378906 256.53125 C 477.722656 255.890625 476.539063 255.117188 475.296875 253.878906 C 474.054688 252.636719 473.285156 251.449219 472.640625 249.792969 C 472.152344 248.542969 471.574219 246.660156 471.417969 243.199219 C 471.246094 239.457031 471.210938 238.332031 471.210938 228.851563 C 471.210938 219.371094 471.246094 218.246094 471.417969 214.503906 C 471.574219 211.039063 472.152344 209.160156 472.640625 207.910156 C 473.285156 206.253906 474.054688 205.070313 475.296875 203.828125 C 476.539063 202.585938 477.722656 201.816406 479.378906 201.171875 C 480.628906 200.683594 482.511719 200.105469 485.972656 199.949219 C 489.714844 199.777344 490.839844 199.742188 500.320313 199.742188 C 509.800781 199.742188 510.925781 199.777344 514.671875 199.949219 C 518.132813 200.105469 520.011719 200.683594 521.265625 201.171875 C 522.921875 201.816406 524.105469 202.585938 525.347656 203.828125 C 526.589844 205.070313 527.359375 206.253906 528.003906 207.910156 C 528.488281 209.160156 529.066406 211.039063 529.226563 214.503906 C 529.394531 218.246094 529.433594 219.371094 529.433594 228.851563 C 529.433594 238.332031 529.394531 239.457031 529.226563 243.199219 M 533.964844 205.59375 C 533.058594 203.257813 531.84375 201.277344 529.871094 199.304688 C 527.898438 197.328125 525.917969 196.113281 523.582031 195.207031 C 521.324219 194.328125 518.742188 193.730469 514.960938 193.558594 C 511.171875 193.382813 509.964844 193.34375 500.320313 193.34375 C 490.675781 193.34375 489.46875 193.382813 485.679688 193.558594 C 481.902344 193.730469 479.320313 194.328125 477.0625 195.207031 C 474.726563 196.113281 472.746094 197.328125 470.773438 199.304688 C 468.796875 201.277344 467.585938 203.257813 466.675781 205.59375 C 465.796875 207.851563 465.199219 210.433594 465.027344 214.210938 C 464.855469 218 464.8125 219.207031 464.8125 228.851563 C 464.8125 238.496094 464.855469 239.703125 465.027344 243.492188 C 465.199219 247.273438 465.796875 249.851563 466.675781 252.113281 C 467.585938 254.445313 468.796875 256.425781 470.773438 258.402344 C 472.746094 260.375 474.726563 261.589844 477.0625 262.496094 C 479.320313 263.375 481.902344 263.976563 485.679688 264.148438 C 489.46875 264.320313 490.675781 264.363281 500.320313 264.363281 C 509.964844 264.363281 511.171875 264.320313 514.960938 264.148438 C 518.742188 263.976563 521.324219 263.375 523.582031 262.496094 C 525.917969 261.589844 527.898438 260.375 529.871094 258.402344 C 531.84375 256.425781 533.058594 254.445313 533.964844 252.113281 C 534.84375 249.851563 535.445313 247.273438 535.617188 243.492188 C 535.789063 239.703125 535.832031 238.496094 535.832031 228.851563 C 535.832031 219.207031 535.789063 218 535.617188 214.210938 C 535.445313 210.433594 534.84375 207.851563 533.964844 205.59375 "/>
<path style=" stroke:none;fill-rule:nonzero;fill:rgb(40.391541%,47.058105%,54.118347%);fill-opacity:1;" d="M 289.160156 192.949219 C 269.210938 192.949219 253.039063 209.121094 253.039063 229.070313 C 253.039063 247.109375 266.261719 262.058594 283.542969 264.757813 L 283.542969 239.503906 L 274.308594 239.503906 L 274.308594 229.070313 L 283.542969 229.070313 L 283.546875 221.113281 C 283.546875 212.058594 288.910156 207.039063 297.160156 207.039063 C 301.113281 207.039063 305.214844 207.796875 305.214844 207.796875 L 305.214844 216.628906 L 300.691406 216.628906 C 296.203125 216.628906 294.773438 219.4375 294.773438 222.292969 L 294.78125 229.070313 L 304.8125 229.070313 L 303.207031 239.503906 L 294.78125 239.503906 L 294.78125 264.757813 C 312.058594 262.058594 325.285156 247.109375 325.285156 229.070313 C 325.285156 209.121094 309.109375 192.949219 289.160156 192.949219 "/>
<path style=" stroke:none;fill-rule:nonzero;fill:rgb(40.391541%,47.058105%,54.118347%);fill-opacity:1;" d="M 737.28125 235.875 C 736.125 236.667969 734.847656 237.183594 733.472656 237.40625 C 732.097656 237.628906 730.730469 237.621094 729.355469 237.621094 L 701.007813 237.621094 C 699.632813 237.621094 698.265625 237.628906 696.890625 237.40625 C 695.515625 237.179688 694.238281 236.683594 693.082031 235.886719 C 690.769531 234.292969 689.378906 231.671875 689.382813 228.855469 C 689.382813 226.042969 690.773438 223.429688 693.085938 221.835938 C 694.242188 221.039063 695.519531 220.523438 696.894531 220.300781 C 698.269531 220.078125 699.632813 220.085938 701.007813 220.085938 L 729.355469 220.085938 C 730.734375 220.085938 732.101563 220.078125 733.476563 220.300781 C 734.851563 220.523438 736.128906 221.019531 737.285156 221.816406 C 739.597656 223.410156 740.984375 226.03125 740.984375 228.847656 C 740.984375 231.664063 739.59375 234.28125 737.28125 235.875 M 748.707031 208.667969 C 745.664063 206.226563 742.183594 204.539063 738.390625 203.628906 C 736.21875 203.105469 734.050781 202.871094 731.828125 202.796875 C 730.179688 202.746094 728.535156 202.757813 726.890625 202.757813 L 703.476563 202.757813 C 701.828125 202.757813 700.183594 202.746094 698.535156 202.796875 C 696.3125 202.871094 694.140625 203.105469 691.96875 203.628906 C 688.179688 204.539063 684.699219 206.226563 681.65625 208.671875 C 675.535156 213.585938 671.96875 221.003906 671.96875 228.855469 C 671.972656 236.707031 675.539063 244.125 681.660156 249.035156 C 684.703125 251.476563 688.183594 253.167969 691.972656 254.078125 C 694.144531 254.597656 696.316406 254.832031 698.539063 254.90625 C 700.183594 254.960938 701.832031 254.949219 703.476563 254.949219 L 726.890625 254.949219 C 728.535156 254.949219 730.183594 254.960938 731.828125 254.90625 C 734.050781 254.832031 736.226563 254.601563 738.398438 254.078125 C 742.1875 253.164063 745.667969 251.476563 748.710938 249.035156 C 754.832031 244.121094 758.394531 236.703125 758.394531 228.851563 C 758.394531 221 754.828125 213.582031 748.707031 208.667969 "/>
<path style=" stroke:none;fill-rule:nonzero;fill:rgb(40.391541%,47.058105%,54.118347%);fill-opacity:1;" d="M 126.121094 73.160156 L 126.121094 82.636719 C 126.121094 83.257813 125.710938 83.667969 125.089844 83.667969 L 84.390625 83.667969 L 84.390625 103.042969 L 117.980469 103.042969 C 118.601563 103.042969 119.011719 103.453125 119.011719 104.070313 L 119.011719 113.550781 C 119.011719 114.171875 118.601563 114.582031 117.980469 114.582031 L 84.390625 114.582031 L 84.390625 143.226563 C 84.390625 143.847656 83.976563 144.257813 83.359375 144.257813 L 73.160156 144.257813 C 72.539063 144.257813 72.128906 143.847656 72.128906 143.226563 L 72.128906 73.160156 C 72.128906 72.542969 72.539063 72.128906 73.160156 72.128906 L 125.089844 72.128906 C 125.710938 72.128906 126.121094 72.542969 126.121094 73.160156 "/>
<path style=" stroke:none;fill-rule:nonzero;fill:rgb(40.391541%,47.058105%,54.118347%);fill-opacity:1;" d="M 187.585938 113.757813 C 183.824219 103.351563 179.648438 92.941406 175.375 83.464844 L 172.953125 83.464844 C 168.675781 92.941406 164.453125 103.351563 160.691406 113.757813 Z M 209.171875 144.257813 L 197.941406 144.257813 C 197.324219 144.257813 196.910156 143.949219 196.753906 143.332031 C 195.261719 137.40625 193.457031 131.171875 191.398438 124.886719 L 156.929688 124.886719 C 154.871094 131.171875 153.066406 137.40625 151.625 143.332031 C 151.46875 143.949219 151.054688 144.257813 150.4375 144.257813 L 139.621094 144.257813 C 138.898438 144.257813 138.484375 143.847656 138.691406 143.125 C 145.183594 120.144531 155.074219 94.796875 165.070313 73.46875 C 165.535156 72.488281 166.101563 72.128906 167.082031 72.128906 L 181.710938 72.128906 C 182.6875 72.128906 183.257813 72.488281 183.71875 73.46875 C 193.820313 94.746094 203.554688 120.144531 210.097656 143.125 C 210.304688 143.847656 209.894531 144.257813 209.171875 144.257813 "/>
<path style=" stroke:none;fill-rule:nonzero;fill:rgb(40.391541%,47.058105%,54.118347%);fill-opacity:1;" d="M 227.613281 108.8125 C 227.613281 86.453125 242.347656 70.789063 263.367188 70.789063 L 264.914063 70.789063 C 278.105469 70.789063 288.304688 77.488281 293.714844 87.171875 C 294.074219 87.789063 293.972656 88.304688 293.355469 88.617188 L 284.285156 93.097656 C 283.667969 93.40625 282.894531 93.40625 282.484375 92.632813 C 278.671875 86.039063 272.953125 82.535156 264.503906 82.535156 L 262.957031 82.535156 C 249.714844 82.535156 240.597656 93.046875 240.597656 108.296875 C 240.597656 123.597656 249.5625 133.851563 262.957031 133.851563 L 264.503906 133.851563 C 273.15625 133.851563 278.207031 130.914063 282.070313 126.429688 C 282.585938 125.863281 283.152344 125.761719 283.773438 126.070313 L 293.097656 130.605469 C 293.457031 130.8125 293.613281 131.070313 293.613281 131.324219 C 293.613281 131.582031 293.507813 131.789063 293.304688 132.097656 C 287.585938 140.445313 277.28125 145.597656 264.710938 145.597656 L 263.164063 145.597656 C 241.78125 145.597656 227.613281 130.914063 227.613281 108.8125 "/>
<path style=" stroke:none;fill-rule:nonzero;fill:rgb(40.391541%,47.058105%,54.118347%);fill-opacity:1;" d="M 375.785156 133.746094 L 375.785156 143.226563 C 375.785156 143.847656 375.371094 144.257813 374.753906 144.257813 L 320.65625 144.257813 C 320.039063 144.257813 319.628906 143.847656 319.628906 143.226563 L 319.628906 73.160156 C 319.628906 72.542969 320.039063 72.128906 320.65625 72.128906 L 373.828125 72.128906 C 374.445313 72.128906 374.855469 72.542969 374.855469 73.160156 L 374.855469 82.640625 C 374.855469 83.257813 374.445313 83.667969 373.828125 83.667969 L 331.890625 83.667969 L 331.890625 102.421875 L 365.996094 102.421875 C 366.613281 102.421875 367.027344 102.835938 367.027344 103.453125 L 367.027344 112.832031 C 367.027344 113.449219 366.613281 113.859375 365.996094 113.859375 L 331.890625 113.859375 L 331.890625 132.71875 L 374.753906 132.71875 C 375.371094 132.71875 375.785156 133.128906 375.785156 133.746094 "/>
<path style=" stroke:none;fill-rule:nonzero;fill:rgb(40.391541%,47.058105%,54.118347%);fill-opacity:1;" d="M 456.359375 123.390625 C 456.359375 116.695313 451.929688 113.652344 442.191406 113.652344 L 417.925781 113.652344 L 417.925781 133.027344 L 442.191406 133.027344 C 452.085938 133.027344 456.359375 130.140625 456.359375 123.390625 M 438.742188 83.359375 L 417.925781 83.359375 L 417.925781 102.730469 L 438.742188 102.730469 C 448.066406 102.730469 452.339844 99.691406 452.339844 93.046875 C 452.339844 86.398438 448.066406 83.359375 438.742188 83.359375 M 468.933594 124.472656 C 468.933594 137.097656 459.246094 144.257813 442.140625 144.257813 L 406.695313 144.257813 C 406.078125 144.257813 405.664063 143.847656 405.664063 143.226563 L 405.664063 73.160156 C 405.664063 72.539063 406.078125 72.128906 406.695313 72.128906 L 439 72.128906 C 455.640625 72.128906 464.707031 78.722656 464.707031 90.777344 C 464.707031 98.714844 460.6875 103.917969 452.546875 106.339844 C 463.984375 108.761719 468.933594 115.613281 468.933594 124.472656 "/>
<path style=" stroke:none;fill-rule:nonzero;fill:rgb(40.391541%,47.058105%,54.118347%);fill-opacity:1;" d="M 529.15625 133.851563 C 543.941406 133.851563 553.269531 123.703125 553.269531 108.195313 C 553.269531 92.683594 543.941406 82.535156 529.15625 82.535156 L 527.609375 82.535156 C 512.824219 82.535156 503.5 92.683594 503.5 108.195313 C 503.5 123.703125 512.824219 133.851563 527.609375 133.851563 Z M 490.515625 108.195313 C 490.515625 86.453125 504.941406 70.789063 527.609375 70.789063 L 529.15625 70.789063 C 551.828125 70.789063 566.25 86.453125 566.25 108.195313 C 566.25 129.933594 551.828125 145.597656 529.15625 145.597656 L 527.609375 145.597656 C 504.941406 145.597656 490.515625 129.933594 490.515625 108.195313 "/>
<path style=" stroke:none;fill-rule:nonzero;fill:rgb(40.391541%,47.058105%,54.118347%);fill-opacity:1;" d="M 625.808594 133.851563 C 640.59375 133.851563 649.917969 123.703125 649.917969 108.195313 C 649.917969 92.683594 640.59375 82.535156 625.808594 82.535156 L 624.261719 82.535156 C 609.476563 82.535156 600.148438 92.683594 600.148438 108.195313 C 600.148438 123.703125 609.476563 133.851563 624.261719 133.851563 Z M 587.167969 108.195313 C 587.167969 86.453125 601.59375 70.789063 624.261719 70.789063 L 625.808594 70.789063 C 648.476563 70.789063 662.902344 86.453125 662.902344 108.195313 C 662.902344 129.933594 648.476563 145.597656 625.808594 145.597656 L 624.261719 145.597656 C 601.59375 145.597656 587.167969 129.933594 587.167969 108.195313 "/>
<path style=" stroke:none;fill-rule:nonzero;fill:rgb(40.391541%,47.058105%,54.118347%);fill-opacity:1;" d="M 751.773438 144.257813 L 738.480469 144.257813 C 737.605469 144.257813 737.242188 144.050781 736.675781 143.382813 C 727.351563 132.40625 716.324219 121.484375 706.949219 113.449219 L 700.972656 113.449219 L 700.972656 143.226563 C 700.972656 143.847656 700.5625 144.257813 699.941406 144.257813 L 689.742188 144.257813 C 689.121094 144.257813 688.710938 143.847656 688.710938 143.226563 L 688.710938 73.160156 C 688.710938 72.542969 689.121094 72.128906 689.742188 72.128906 L 699.941406 72.128906 C 700.5625 72.128906 700.972656 72.542969 700.972656 73.160156 L 700.972656 101.597656 L 707.050781 101.597656 C 717.097656 92.53125 726.371094 82.742188 733.945313 72.902344 C 734.460938 72.230469 734.875 72.128906 735.492188 72.128906 L 748.0625 72.128906 C 748.679688 72.128906 748.988281 72.4375 748.988281 72.851563 C 748.988281 73.054688 748.886719 73.3125 748.628906 73.621094 C 737.554688 87.277344 726.578125 98.457031 716.429688 107.109375 C 729.207031 117.929688 741.3125 129.984375 752.339844 142.96875 C 752.90625 143.640625 752.597656 144.257813 751.773438 144.257813 "/>
</g>
</svg>
